<svg width="49" height="36" viewBox="0 0 49 36" fill="none" xmlns="http://www.w3.org/2000/svg">
<path fill-rule="evenodd" clip-rule="evenodd" d="M17.888 0.285C14.8375 0.619739 11.2589 2.01666 8.24049 4.05101C7.91128 4.27286 7.60475 4.4839 7.5593 4.51993C7.25596 4.7603 6.10303 6.9192 5.36388 8.63063C3.00661 14.089 1.52969 20.4892 0.992852 27.5726C0.935581 28.3283 0.935847 28.5037 0.994449 28.5992C1.13949 28.8358 2.49574 30.1357 3.12583 30.642C5.24828 32.3474 7.65159 33.5447 10.5428 34.3371C11.8566 34.6971 13.6013 34.9889 14.6109 35.0173L15.0863 35.0308L15.9515 33.8864C16.4273 33.257 16.8182 32.7291 16.82 32.7133C16.8219 32.6975 16.4702 32.5455 16.0384 32.3754C13.9084 31.5366 11.9893 30.425 10.199 28.9931C9.55677 28.4794 8.01401 27.0166 7.71121 26.6342C7.56483 26.4495 7.61476 26.4753 8.18018 26.8762C11.5825 29.2891 15.2325 30.7305 19.661 31.4102C22.8289 31.8963 26.6999 31.9051 29.9171 31.4333C34.0845 30.8221 37.6742 29.4743 40.9082 27.3063C41.3181 27.0315 41.7732 26.7171 41.9195 26.6074L42.1857 26.4081L42.0159 26.6246C41.7171 27.0058 40.1799 28.4669 39.5221 28.995C37.7724 30.4001 35.813 31.5351 33.6961 32.37C33.2716 32.5374 32.9164 32.6816 32.9067 32.6904C32.897 32.6991 33.2818 33.2293 33.7616 33.8685L34.6342 35.0308L35.1099 35.0173C36.1254 34.9887 37.8619 34.6975 39.1993 34.3316C42.0831 33.5426 44.4599 32.3524 46.6357 30.6079C47.2263 30.1343 48.5916 28.8212 48.7309 28.5927C48.8052 28.4709 48.7843 28.0812 48.5967 26.0888C47.9882 19.625 46.5554 13.7244 44.3576 8.63063C43.6879 7.07861 42.505 4.84647 42.1973 4.55421C42.1324 4.49247 41.7439 4.2191 41.3341 3.94669C38.3565 1.96753 34.855 0.63725 31.6733 0.276377L31.3804 0.243164L31.125 0.757168C30.9846 1.03985 30.88 1.28139 30.8925 1.2939C30.905 1.30641 31.2715 1.41004 31.7069 1.52416C34.5615 2.27235 36.9982 3.45589 39.2995 5.21187C39.9103 5.67792 41.05 6.6437 41.0222 6.6716C41.0111 6.68261 40.4301 6.40642 39.7309 6.05779C34.2662 3.33283 29.9784 2.33633 24.1953 2.44736C18.8419 2.55019 15.0562 3.51854 9.88358 6.10814C9.24295 6.42888 8.70973 6.68224 8.69866 6.67122C8.67401 6.64653 9.47001 5.95789 10.2234 5.35207C11.7456 4.12819 13.417 3.15931 15.2092 2.46195C16.097 2.11651 17.4458 1.67633 18.1815 1.49195C18.4777 1.41776 18.75 1.3385 18.7866 1.31588C18.8361 1.28528 18.7878 1.14295 18.5981 0.761107C18.321 0.203351 18.3648 0.232679 17.888 0.285ZM18.8385 15.6612C20.9799 16.38 22.1225 18.9869 21.3377 21.3633C20.4524 24.0441 17.5697 25.0179 15.5367 23.323C14.6232 22.5615 14.0818 21.4093 14.0174 20.0901C13.9832 19.3884 14.0498 18.8563 14.2428 18.2887C14.6292 17.1528 15.3554 16.2956 16.3261 15.8297C17.1243 15.4467 18.0204 15.3866 18.8385 15.6612ZM32.5456 15.5487C33.6131 15.7389 34.6071 16.5029 35.1637 17.5607C35.5902 18.3716 35.7509 19.1239 35.7038 20.0901C35.6234 21.7383 34.7601 23.1644 33.4566 23.8024C32.9474 24.0516 32.5326 24.1495 31.9663 24.1541C30.0151 24.17 28.4067 22.5636 28.1643 20.3566C27.9136 18.075 29.261 15.9922 31.2743 15.549C31.6916 15.4571 32.0312 15.457 32.5456 15.5487Z" fill="black"/>
</svg>
