<svg width="41" height="40" viewBox="0 0 41 40" fill="none" xmlns="http://www.w3.org/2000/svg">
<circle cx="20.0541" cy="19.9867" r="19.9477" fill="black"/>
<path fill-rule="evenodd" clip-rule="evenodd" d="M19.5391 8.19907C18.3135 8.30276 17.3392 8.49712 16.3568 8.83395C12.4574 10.1709 9.51566 13.49 8.65665 17.5218C8.29853 19.2027 8.31767 21.0304 8.71106 22.7166C9.69114 26.9176 13.0359 30.3416 17.2031 31.4098C18.3485 31.7035 19.037 31.789 20.2267 31.7852C22.1373 31.7792 23.6814 31.4257 25.3428 30.6136C28.0258 29.3022 30.0627 27.1196 31.1724 24.3671C31.3444 23.9403 31.6547 22.9568 31.7063 22.6746C31.7231 22.5829 31.5657 22.5767 28.9185 22.5645L26.1129 22.5516L25.8826 22.977C24.5071 25.5173 21.7222 26.8458 18.9468 26.2857C15.355 25.5608 13.0797 21.9575 13.9831 18.4251C14.29 17.2253 14.844 16.2768 15.7524 15.3956C16.9871 14.1982 18.4619 13.6013 20.1992 13.5959C22.0963 13.59 23.7863 14.3586 25.0503 15.8019C25.3565 16.1515 25.7486 16.7229 25.8977 17.0367L25.9958 17.243H28.8095C30.357 17.243 31.6367 17.2295 31.6532 17.2131C31.6902 17.176 31.4398 16.3117 31.2314 15.7576C31.1461 15.5307 30.931 15.058 30.7536 14.707C28.9896 11.2179 25.68 8.83912 21.8496 8.30716C21.2449 8.22322 19.9629 8.1632 19.5391 8.19907Z" fill="white"/>
</svg>
