<svg width="30" height="30" viewBox="0 0 30 30" fill="none" xmlns="http://www.w3.org/2000/svg">
<g clip-path="url(#clip0_589_31707)">
<path d="M14.997 0V3.88765C8.85824 3.88765 3.88157 8.86433 3.88157 15.003H0V0H14.997Z" fill="#5FFECD"/>
<path d="M30.0001 14.9971V29.994H14.9971V26.1064C21.1358 26.1064 26.1125 21.1297 26.1125 14.991H30.0001V14.9971Z" fill="#5FFECD"/>
<path d="M19.8997 15.35C20.0922 12.6419 18.0528 10.2905 15.3447 10.098C12.6365 9.90555 10.2851 11.9449 10.0926 14.6531C9.90016 17.3612 11.9395 19.7127 14.6477 19.9051C17.3558 20.0976 19.7073 18.0582 19.8997 15.35Z" fill="#5FFECD"/>
<path d="M19.8997 15.35C20.0922 12.6419 18.0528 10.2905 15.3447 10.098C12.6365 9.90555 10.2851 11.9449 10.0926 14.6531C9.90016 17.3612 11.9395 19.7127 14.6477 19.9051C17.3558 20.0976 19.7073 18.0582 19.8997 15.35Z" fill="#5FFECD"/>
</g>
<defs>
<clipPath id="clip0_589_31707">
<rect width="30" height="30" fill="white"/>
</clipPath>
</defs>
</svg>
