<svg width="29" height="29" viewBox="0 0 29 29" fill="none" xmlns="http://www.w3.org/2000/svg">
<g clip-path="url(#clip0_690_11019)">
<path d="M14.1729 0.783203V4.41168C8.44347 4.41168 3.79858 9.05658 3.79858 14.786H0.175781V0.783203H14.1729Z" fill="black"/>
<path d="M28.1757 14.7805V28.7776H14.1729V25.1491C19.9023 25.1491 24.5472 20.5042 24.5472 14.7748H28.1757V14.7805Z" fill="black"/>
<path d="M18.7491 15.1099C18.9287 12.5823 17.0253 10.3876 14.4977 10.208C11.97 10.0284 9.77538 11.9318 9.59576 14.4594C9.41613 16.987 11.3195 19.1817 13.8472 19.3613C16.3748 19.5409 18.5694 17.6375 18.7491 15.1099Z" fill="black"/>
<path d="M18.7491 15.1099C18.9287 12.5823 17.0253 10.3876 14.4977 10.208C11.97 10.0284 9.77538 11.9318 9.59576 14.4594C9.41613 16.987 11.3195 19.1817 13.8472 19.3613C16.3748 19.5409 18.5694 17.6375 18.7491 15.1099Z" fill="black"/>
</g>
<defs>
<clipPath id="clip0_690_11019">
<rect width="28" height="28" fill="white" transform="translate(0.175781 0.783203)"/>
</clipPath>
</defs>
</svg>
