<svg width="125" height="108" viewBox="0 0 125 108" fill="none" xmlns="http://www.w3.org/2000/svg">
<circle cx="37.3665" cy="95.3197" r="12.471" fill="#FFAA00"/>
<path d="M37.3676 0.254395L51.6776 25.0401H23.0575L37.3676 0.254395Z" fill="#FDFF2D"/>
<rect x="72.7744" y="84.2939" width="22.0499" height="22.0499" fill="#5FFECD"/>
<rect x="0.642578" y="55.3505" width="19.5205" height="19.5205" transform="rotate(-45 0.642578 55.3505)" fill="#5FFECD"/>
<path d="M83.7982 0.254395L96.922 9.78938L91.9091 25.2173H75.6872L70.6744 9.78938L83.7982 0.254395Z" fill="#FFAA00"/>
<path d="M54.9082 70.4262C63.2349 70.4262 69.985 63.6761 69.985 55.3495C69.985 47.0228 63.2349 40.2727 54.9082 40.2727V70.4262Z" fill="#00FFFF"/>
<path d="M107.306 39.3518L112.613 48.7671L123.208 50.9047L115.893 58.8613L117.134 69.5977L107.306 65.0999L97.479 69.5977L98.7198 58.8613L91.4052 50.9047L102 48.7671L107.306 39.3518Z" fill="#FDFF2D"/>
</svg>
