<svg width="107" height="106" viewBox="0 0 107 106" fill="none" xmlns="http://www.w3.org/2000/svg">
<path d="M58.1562 0.25V48.2884H106.195V0.25H58.1562ZM93.1414 35.2351L85.38 32.0012L82.2049 39.7626L78.9709 32.0012L71.2095 35.2351L74.4434 27.4737L66.682 24.2986L74.4434 21.1235L71.2095 13.3621L78.9709 16.596L82.2049 8.83459L85.4388 16.596L93.2002 13.3621L89.9663 21.1235L97.7277 24.2986L89.9663 27.4737L93.1414 35.2351Z" fill="#FFAA00"/>
<path d="M0.474609 0.250977V48.2894H48.513V0.250977H0.474609ZM35.4597 35.2361L27.6983 32.0022L24.5232 39.7636L21.2893 32.0022L13.5279 35.2361L16.7618 27.4747L9.0004 24.2996L16.7618 21.1245L13.5279 13.3631L21.2893 16.597L24.4644 8.83556L27.6395 16.597L35.4009 13.3631L32.2258 21.0657L39.9872 24.2408L32.2258 27.4747L35.4597 35.2361Z" fill="#FDFF2D"/>
<path d="M58.1562 57.9312V105.97H106.195V57.9312H58.1562ZM93.1414 92.9163L85.38 89.6824L82.1461 97.4438L78.9121 89.6824L71.1507 92.9163L74.3846 85.1549L66.6232 81.921L74.3846 78.7458L71.1507 70.9844L78.9121 74.2184L82.1461 66.4569L85.38 74.2184L93.1414 70.9844L89.9075 78.7458L97.6689 81.921L89.9075 85.1549L93.1414 92.9163Z" fill="#00FFFF"/>
<path d="M0.474609 57.9312V105.97H48.513V57.9312H0.474609ZM35.4597 92.9163L27.6983 89.6824L24.5232 97.4438L21.3481 89.6824L13.5867 92.9163L16.8206 85.1549L8.9416 81.9798L16.703 78.8046L13.4691 71.0432L21.2305 74.2771L24.4056 66.5157L27.5807 74.2771L35.3421 71.0432L32.2258 78.7458L39.9872 81.921L32.2258 85.1549L35.4597 92.9163Z" fill="#5FFECD"/>
</svg>
