<svg width="29" height="29" viewBox="0 0 29 29" fill="none" xmlns="http://www.w3.org/2000/svg">
<circle cx="14.4216" cy="14.154" r="14.0964" fill="black"/>
<path fillRule="evenodd" clipRule="evenodd" d="M14.0572 5.82389C13.1912 5.89717 12.5026 6.03451 11.8084 6.27254C9.05282 7.21736 6.97396 9.56286 6.36693 12.412C6.11385 13.5998 6.12738 14.8914 6.40537 16.083C7.09797 19.0517 9.46163 21.4714 12.4064 22.2262C13.2158 22.4337 13.7024 22.4942 14.5431 22.4915C15.8933 22.4873 16.9844 22.2374 18.1585 21.6636C20.0545 20.7368 21.4939 19.1945 22.2781 17.2493C22.3997 16.9477 22.6189 16.2527 22.6554 16.0533C22.6673 15.9885 22.556 15.9841 20.6853 15.9755L18.7027 15.9664L18.54 16.267C17.5679 18.0621 15.5999 19.001 13.6386 18.6052C11.1004 18.0929 9.49253 15.5466 10.131 13.0503C10.3478 12.2024 10.7393 11.5321 11.3813 10.9094C12.2538 10.0633 13.296 9.64147 14.5237 9.63766C15.8643 9.6335 17.0586 10.1766 17.9518 11.1966C18.1682 11.4437 18.4453 11.8474 18.5507 12.0692L18.6199 12.215H20.6083C21.7019 12.215 22.6062 12.2055 22.6178 12.1938C22.6441 12.1676 22.4671 11.5569 22.3198 11.1653C22.2595 11.005 22.1075 10.6709 21.9821 10.4228C20.7356 7.95722 18.3968 6.2762 15.6899 5.90028C15.2627 5.84096 14.3567 5.79854 14.0572 5.82389Z" fill="white"/>
</svg>
