<svg width="32" height="24" viewBox="0 0 32 24" fill="none" xmlns="http://www.w3.org/2000/svg">
<path fillRule="evenodd" clipRule="evenodd" d="M11.6102 0.962152C9.67028 1.17502 7.39455 2.06337 5.47502 3.35709C5.26567 3.49817 5.07073 3.63238 5.04183 3.65529C4.84892 3.80815 4.11574 5.18107 3.64568 6.26943C2.14661 9.74057 1.20739 13.8107 0.865994 18.3153C0.829573 18.7958 0.829743 18.9074 0.86701 18.9682C0.959246 19.1186 1.82173 19.9452 2.22243 20.2672C3.57217 21.3518 5.10052 22.1132 6.93913 22.617C7.77464 22.846 8.88415 23.0315 9.52619 23.0497L9.82848 23.0582L10.3787 22.3305C10.6813 21.9302 10.9299 21.5945 10.9311 21.5845C10.9322 21.5744 10.7086 21.4777 10.434 21.3696C9.07946 20.8361 7.85902 20.1292 6.72053 19.2186C6.31209 18.8919 5.33099 17.9617 5.13843 17.7186C5.04535 17.6011 5.0771 17.6174 5.43667 17.8724C7.60032 19.4068 9.92147 20.3235 12.7377 20.7557C14.7523 21.0649 17.214 21.0704 19.2599 20.7704C21.9101 20.3818 24.1929 19.5246 26.2496 18.1459C26.5102 17.9712 26.7996 17.7712 26.8927 17.7015L27.0619 17.5748L26.954 17.7124C26.7639 17.9548 25.7864 18.884 25.3681 19.2199C24.2554 20.1134 23.0094 20.8352 21.6631 21.3661C21.3932 21.4726 21.1673 21.5643 21.1611 21.5698C21.155 21.5754 21.3996 21.9126 21.7048 22.3191L22.2597 23.0582L22.5622 23.0497C23.208 23.0314 24.3123 22.8463 25.1628 22.6136C26.9967 22.1118 28.5082 21.3549 29.8919 20.2455C30.2675 19.9444 31.1357 19.1093 31.2243 18.964C31.2715 18.8866 31.2583 18.6388 31.1389 17.3717C30.752 13.2611 29.8408 9.50875 28.4432 6.26943C28.0173 5.28245 27.265 3.86295 27.0694 3.67709C27.0281 3.63783 26.781 3.46398 26.5204 3.29075C24.6269 2.03213 22.4001 1.18616 20.3768 0.956668L20.1905 0.935547L20.0281 1.26242C19.9388 1.44219 19.8723 1.59579 19.8802 1.60375C19.8882 1.6117 20.1212 1.6776 20.3981 1.75017C22.2134 2.22598 23.7631 2.97863 25.2265 4.09532C25.6149 4.3917 26.3398 5.00587 26.322 5.02361C26.315 5.03062 25.9455 4.85498 25.5009 4.63327C22.0257 2.90037 19.2989 2.26667 15.6212 2.33727C12.2169 2.40267 9.80936 3.01847 6.51991 4.66529C6.11252 4.86926 5.77342 5.03038 5.76638 5.02337C5.75071 5.00767 6.25691 4.56974 6.73604 4.18448C7.70403 3.40617 8.76693 2.79003 9.90664 2.34655C10.4712 2.12687 11.329 1.84695 11.7969 1.7297C11.9852 1.68251 12.1584 1.63211 12.1817 1.61773C12.2132 1.59826 12.1824 1.50775 12.0618 1.26492C11.8856 0.910228 11.9134 0.928879 11.6102 0.962152ZM12.2147 10.7404C13.5765 11.1975 14.3031 12.8554 13.804 14.3666C13.241 16.0714 11.4078 16.6906 10.1149 15.6128C9.534 15.1285 9.1897 14.3958 9.14878 13.5569C9.12701 13.1107 9.16936 12.7723 9.29212 12.4113C9.53783 11.689 9.99966 11.1438 10.6169 10.8476C11.1245 10.604 11.6944 10.5658 12.2147 10.7404ZM20.9315 10.6689C21.6104 10.7898 22.2425 11.2757 22.5964 11.9484C22.8677 12.464 22.9698 12.9425 22.9399 13.5569C22.8888 14.605 22.3398 15.512 21.5108 15.9177C21.187 16.0762 20.9233 16.1384 20.5631 16.1414C19.3222 16.1514 18.2994 15.1299 18.1453 13.7264C17.9858 12.2754 18.8427 10.9509 20.123 10.669C20.3884 10.6106 20.6044 10.6106 20.9315 10.6689Z" fill="black"/>
</svg>
