<svg width="53" height="70" viewBox="0 0 53 70" fill="none" xmlns="http://www.w3.org/2000/svg">
<path d="M26.6933 0C16.3549 0 8.60936 7.74525 8.60936 18.084H16.3595C16.3595 11.6306 21.526 7.75036 26.6931 7.75036C31.8602 7.75036 37.0267 11.6305 37.0267 18.084V28.4176H44.7768V18.084C44.7768 7.7455 37.0315 0 26.6928 0H26.6933ZM49.9425 28.4169H3.44287C0.859375 28.4169 0.859375 28.4169 0.859375 31.0004V67.1671C0.859375 69.7506 0.859375 69.7506 3.44287 69.7506H49.9438C52.5273 69.7506 52.5273 69.7506 52.5273 67.1671V30.9992C52.5263 28.4162 52.5263 28.4162 49.9428 28.4162L49.9425 28.4169Z" fill="black"/>
</svg>
