<svg width="62" height="56" viewBox="0 0 62 56" fill="none" xmlns="http://www.w3.org/2000/svg">
<path d="M49.4915 32.8274C47.9924 32.8274 46.5616 33.1222 45.2471 33.6412L37.7448 20.6477C40.4115 18.5252 42.1241 15.2582 42.1241 11.5852C42.1241 5.18666 36.9375 0 30.5389 0C24.1403 0 18.9537 5.18666 18.9537 11.5852C18.9537 15.2573 20.6664 18.5247 23.333 20.6477L15.8308 33.6412C14.5162 33.1222 13.0866 32.8274 11.5863 32.8274C5.18775 32.8274 0 38.0151 0 44.4137C0 50.8122 5.18775 56 11.5863 56C17.4028 56 22.2037 51.7095 23.0318 46.1238H38.0465C38.8742 51.7095 43.6757 56 49.492 56C55.8906 56 61.0784 50.8133 61.0784 44.4137C61.0773 38.0146 55.8895 32.8274 49.492 32.8274H49.4915ZM26.2942 22.3582C27.6104 22.8772 29.0379 23.172 30.5386 23.172C32.0394 23.172 33.4669 22.8772 34.7831 22.3582L42.2849 35.3516C40.0426 37.1375 38.4862 39.7368 38.0458 42.7036L23.0312 42.7041C22.5919 39.7368 21.0344 37.1381 18.7921 35.3521L26.2942 22.3582Z" fill="black"/>
</svg>
