<svg width="67" height="52" viewBox="0 0 67 52" fill="none" xmlns="http://www.w3.org/2000/svg">
<path d="M15.0013 0H0.441406V4.15966H10.8416V37.4394H56.5993V33.2798H15.0009L15.0013 0Z" fill="black"/>
<path d="M19.1602 2.08008V29.1182H56.5992L66.9994 2.08008H19.1602Z" fill="black"/>
<path d="M27.4802 47.8393C27.4802 50.1369 25.618 51.9997 23.3205 51.9997C21.023 51.9997 19.1602 50.1369 19.1602 47.8393C19.1602 45.5418 21.023 43.6797 23.3205 43.6797C25.618 43.6797 27.4802 45.5418 27.4802 47.8393Z" fill="black"/>
<path d="M48.2829 47.8393C48.2829 50.1369 46.4201 51.9997 44.1225 51.9997C41.825 51.9997 39.9629 50.1369 39.9629 47.8393C39.9629 45.5418 41.825 43.6797 44.1225 43.6797C46.4201 43.6797 48.2829 45.5418 48.2829 47.8393Z" fill="black"/>
</svg>
