<svg width="63" height="66" viewBox="0 0 63 66" fill="none" xmlns="http://www.w3.org/2000/svg">
<path d="M27.9233 25.2248H34.4869C35.5901 22.8118 36.2143 20.1212 36.2143 17.2754C36.2143 9.47193 31.5736 2.79205 24.9869 0V19.4759H11.2439V0.00175109C4.65716 2.79642 0.015625 9.4728 0.015625 17.2762C0.015625 24.5094 4.00663 30.7698 9.83424 33.8737L9.83338 65.8993H26.3992V63.7826L16.0297 45.8198L27.9233 25.2248Z" fill="black"/>
<path d="M51.7671 26.8242H29.3333L18.1152 46.2549L29.3333 65.6838H51.7649L62.9847 46.2549L51.7671 26.8242ZM40.5515 54.231C36.1456 54.231 32.5756 50.6601 32.5756 46.2533C32.5756 41.8492 36.1465 38.2748 40.5515 38.2748C44.9574 38.2748 48.5291 41.8492 48.5291 46.2533C48.5283 50.6601 44.9565 54.231 40.5515 54.231Z" fill="black"/>
</svg>
