<svg width="59" height="66" viewBox="0 0 59 66" fill="none" xmlns="http://www.w3.org/2000/svg">
<path d="M18.623 66L20.0615 59.5215L38.9851 59.5323L40.478 66H18.623Z" fill="black"/>
<path d="M29.5758 0L16.457 17.0237V56.1308H42.544V17.0237L29.5758 0Z" fill="black"/>
<path d="M29.5003 27.7207C32.9156 27.7207 35.6842 24.9695 35.6842 21.5757C35.6842 18.1819 32.9156 15.4307 29.5003 15.4307C26.085 15.4307 23.3164 18.1819 23.3164 21.5757C23.3164 24.9695 26.085 27.7207 29.5003 27.7207Z" fill="white"/>
<path d="M13.0444 53.9741H0V38.2844L13.0444 30.9785V53.9741Z" fill="black"/>
<path d="M45.9551 53.973H58.9995V38.2815L45.9551 30.9756V53.973Z" fill="black"/>
</svg>
