<svg width="51" height="51" viewBox="0 0 51 51" fill="none" xmlns="http://www.w3.org/2000/svg">
<path d="M5.3125 19.125H9.56285V31.8757H5.3125V19.125Z" fill="black"/>
<path d="M0 12.7506C0 13.9407 0.956215 14.8757 2.12517 14.8757H12.7506C13.9196 14.8757 14.8757 13.9407 14.8757 12.7506V2.12517C14.8757 0.956176 13.9195 0 12.7506 0H2.12517C0.956176 0 0 0.956215 0 2.12517V12.7506Z" fill="black"/>
<path d="M0 48.8756C0 50.0657 0.956215 51.0007 2.12517 51.0007H12.7506C13.9196 51.0007 14.8757 50.0657 14.8757 48.8756V38.2502C14.8757 37.0812 13.9195 36.125 12.7506 36.125H2.12517C0.956176 36.125 0 37.0812 0 38.2502V48.8756Z" fill="black"/>
<path d="M19.125 41.4395H31.8757V45.6898H19.125V41.4395Z" fill="black"/>
<path d="M51.0007 2.12517C51.0007 0.956176 50.0445 0 48.8756 0H38.2502C37.0812 0 36.125 0.956215 36.125 2.12517V12.7506C36.125 13.9407 37.0812 14.8757 38.2502 14.8757H48.8756C50.0446 14.8757 51.0007 13.9407 51.0007 12.7506V2.12517Z" fill="black"/>
<path d="M19.125 5.3125H31.8757V9.56285H19.125V5.3125Z" fill="black"/>
<path d="M51.0007 38.2502C51.0007 37.0812 50.0445 36.125 48.8756 36.125H38.2502C37.0812 36.125 36.125 37.0812 36.125 38.2502V48.8756C36.125 50.0657 37.0812 51.0007 38.2502 51.0007H48.8756C50.0446 51.0007 51.0007 50.0657 51.0007 48.8756V38.2502Z" fill="black"/>
<path d="M41.4395 19.125H45.6898V31.8757H41.4395V19.125Z" fill="black"/>
</svg>
