<svg width="62" height="40" viewBox="0 0 62 40" fill="none" xmlns="http://www.w3.org/2000/svg">
<path d="M59.7857 13.3333H62V0H24.3571V11.1111H19.9286V0H0V13.3333H2.21429C4.58775 13.3333 6.78078 14.6042 7.967 16.6667C9.15372 18.7291 9.15372 21.2709 7.967 23.3333C6.78078 25.3958 4.58775 26.6667 2.21429 26.6667H0V40H19.9286V28.8889H24.3571V40H62V26.6667H59.7857C57.4123 26.6667 55.2192 25.3958 54.033 23.3333C52.8463 21.2709 52.8463 18.7291 54.033 16.6667C55.2192 14.6042 57.4123 13.3333 59.7857 13.3333ZM24.3571 22.2222H19.9286V17.7778H24.3571V22.2222Z" fill="black"/>
</svg>
