<svg width="41" height="40" viewBox="0 0 41 40" fill="none" xmlns="http://www.w3.org/2000/svg">
<circle cx="20.0546" cy="19.9471" r="19.9471" fill="#5FFECD"/>
<path fill-rule="evenodd" clip-rule="evenodd" d="M19.5398 8.16001C18.3143 8.2637 17.3399 8.45805 16.3576 8.79487C12.4583 10.1318 9.5166 13.4508 8.65762 17.4825C8.29951 19.1634 8.31865 20.991 8.71203 22.6772C9.69208 26.878 13.0368 30.302 17.2038 31.3702C18.3492 31.6638 19.0377 31.7493 20.2274 31.7456C22.1379 31.7396 23.682 31.386 25.3433 30.574C28.0262 29.2626 30.0631 27.0801 31.1727 24.3276C31.3448 23.9008 31.6551 22.9173 31.7067 22.6351C31.7234 22.5435 31.5661 22.5373 28.9189 22.5251L26.1134 22.5122L25.8831 22.9375C24.5077 25.4777 21.7228 26.8063 18.9475 26.2462C15.3558 25.5213 13.0805 21.9181 13.9839 18.3858C14.2908 17.186 14.8448 16.2375 15.7532 15.3563C16.9879 14.1589 18.4626 13.5621 20.1999 13.5567C22.0969 13.5508 23.7869 14.3193 25.0509 15.7626C25.3571 16.1123 25.7491 16.6836 25.8982 16.9974L25.9963 17.2037H28.81C30.3574 17.2037 31.6371 17.1902 31.6535 17.1738C31.6906 17.1367 31.4402 16.2725 31.2318 15.7184C31.1465 15.4915 30.9314 15.0187 30.754 14.6677C28.99 11.1788 25.6805 8.80004 21.8502 8.2681C21.2456 8.18415 19.9636 8.12414 19.5398 8.16001Z" fill="black"/>
</svg>
