<svg width="54" height="39" viewBox="0 0 54 39" fill="none" xmlns="http://www.w3.org/2000/svg">
<path fill-rule="evenodd" clip-rule="evenodd" d="M19.4175 0.0457126C16.0843 0.41147 12.1742 1.93783 8.876 4.1607C8.51629 4.4031 8.18136 4.6337 8.13169 4.67307C7.80025 4.93572 6.54048 7.29467 5.73284 9.16469C3.15712 15.1288 1.54335 22.1221 0.956766 29.8619C0.894188 30.6876 0.894478 30.8792 0.958511 30.9837C1.11699 31.2421 2.59892 32.6625 3.2874 33.2157C5.60652 35.0792 8.23254 36.3875 11.3916 37.2532C12.8272 37.6466 14.7336 37.9654 15.8367 37.9965L16.3561 38.0112L17.3015 36.7608C17.8215 36.0731 18.2485 35.4962 18.2506 35.479C18.2526 35.4618 17.8683 35.2956 17.3965 35.1098C15.0692 34.1933 12.9722 32.9786 11.016 31.414C10.3143 30.8527 8.62854 29.2544 8.29767 28.8366C8.13774 28.6347 8.19229 28.6629 8.81011 29.101C12.5277 31.7374 16.5159 33.3124 21.3548 34.0551C24.8162 34.5863 29.046 34.5958 32.5612 34.0803C37.1148 33.4126 41.0372 31.9398 44.5709 29.5709C45.0187 29.2707 45.516 28.9271 45.6759 28.8073L45.9667 28.5895L45.7812 28.8261C45.4547 29.2425 43.775 30.8391 43.0564 31.4161C41.1445 32.9514 39.0035 34.1916 36.6905 35.1039C36.2267 35.2868 35.8385 35.4443 35.8279 35.4539C35.8173 35.4635 36.2377 36.0428 36.7621 36.7412L37.7155 38.0112L38.2353 37.9965C39.3449 37.9652 41.2423 37.6471 42.7036 37.2473C45.8546 36.3851 48.4517 35.0847 50.8291 33.1785C51.4745 32.661 52.9662 31.2263 53.1185 30.9765C53.1996 30.8435 53.1768 30.4177 52.9718 28.2406C52.3069 21.1779 50.7414 14.7305 48.3399 9.16469C47.6082 7.46886 46.3157 5.02987 45.9794 4.71053C45.9085 4.64306 45.484 4.34436 45.0362 4.04671C41.7827 1.88415 37.9567 0.430604 34.4802 0.0362908L34.1601 0L33.8811 0.561634C33.7277 0.870512 33.6134 1.13443 33.627 1.1481C33.6407 1.16177 34.0411 1.275 34.5169 1.39969C37.636 2.21722 40.2985 3.51043 42.8131 5.42913C43.4804 5.93836 44.7258 6.99364 44.6954 7.02412C44.6833 7.03616 44.0484 6.73438 43.2845 6.35344C37.3134 3.37597 32.6282 2.28713 26.3092 2.40845C20.4598 2.52081 16.3233 3.57888 10.6713 6.40846C9.97135 6.75892 9.38872 7.03575 9.37663 7.02371C9.3497 6.99673 10.2195 6.24428 11.0427 5.58232C12.7059 4.24503 14.5322 3.18637 16.4904 2.42438C17.4605 2.04694 18.9344 1.56597 19.7382 1.36451C20.0619 1.28344 20.3593 1.19684 20.3994 1.17212C20.4535 1.13868 20.4006 0.983165 20.1934 0.565938C19.8906 -0.0435022 19.9385 -0.011457 19.4175 0.0457126ZM20.4561 16.8468C22.7959 17.6322 24.0444 20.4807 23.1868 23.0772C22.2195 26.0064 19.0697 27.0704 16.8483 25.2185C15.8502 24.3864 15.2586 23.1275 15.1883 21.686C15.1509 20.9193 15.2236 20.3379 15.4346 19.7177C15.8567 18.4765 16.6502 17.5399 17.7109 17.0309C18.583 16.6123 19.5622 16.5467 20.4561 16.8468ZM35.4334 16.7238C36.5998 16.9317 37.6859 17.7664 38.294 18.9223C38.7601 19.8083 38.9356 20.6304 38.8841 21.686C38.7963 23.487 37.8531 25.0453 36.4288 25.7423C35.8724 26.0146 35.4192 26.1216 34.8003 26.1267C32.6683 26.144 30.9109 24.3887 30.646 21.9772C30.3721 19.4842 31.8444 17.2084 34.0443 16.7241C34.5002 16.6237 34.8713 16.6237 35.4334 16.7238Z" fill="#5FFECD"/>
</svg>
