<svg width="32" height="25" viewBox="0 0 32 25" fill="none" xmlns="http://www.w3.org/2000/svg">
<path fillRule="evenodd" clipRule="evenodd" d="M11.4537 0.362495C11.2369 0.400805 10.4867 0.555167 10.2284 0.614661C8.61409 0.986395 7.03515 1.52007 5.52114 2.20568C5.38615 2.26681 5.25661 2.32657 5.23326 2.33849C5.19868 2.35613 5.1619 2.40479 5.03513 2.60055C2.67881 6.23942 1.24623 10.0093 0.72093 13.9535C0.624079 14.6807 0.559642 15.3909 0.515286 16.22C0.49487 16.6016 0.494916 18.4762 0.515355 18.8565C0.544209 19.3935 0.603213 20.2231 0.616519 20.2788C0.619547 20.2915 0.646702 20.32 0.676839 20.3421C0.991751 20.5727 1.11586 20.662 1.34434 20.8223C2.76776 21.8214 4.26922 22.6662 5.82392 23.3428C6.55208 23.6597 7.27702 23.9351 8.05884 24.1917C8.25484 24.256 8.4191 24.3087 8.42384 24.3087C8.43305 24.3087 8.73113 23.8855 8.88399 23.6554C9.26858 23.0764 9.65109 22.4254 9.95828 21.8271L10.1014 21.5484L9.86553 21.4541C9.25799 21.2113 8.63947 20.9195 8.0666 20.6053C7.82507 20.4728 7.47703 20.2698 7.47703 20.2614C7.47703 20.2574 7.52485 20.2181 7.5833 20.174C7.68875 20.0944 7.95283 19.8837 8.05761 19.7955L8.11221 19.7496L8.33506 19.8513C10.3018 20.7488 12.3988 21.3022 14.4883 21.4751C14.9702 21.515 15.1671 21.5236 15.7484 21.5301C16.4942 21.5384 17.0081 21.5165 17.71 21.4463C19.658 21.2514 21.5983 20.722 23.443 19.8819C23.5535 19.8315 23.663 19.7811 23.6862 19.7699L23.7285 19.7494L23.877 19.8705C23.9586 19.9372 24.1009 20.0503 24.1931 20.122C24.2853 20.1936 24.362 20.2557 24.3637 20.2599C24.3653 20.2642 24.2717 20.323 24.1556 20.3905C23.4483 20.8023 22.7574 21.1402 21.9909 21.4491C21.8573 21.503 21.7458 21.5493 21.743 21.552C21.7266 21.5683 22.1903 22.4219 22.4742 22.8979C22.7795 23.4098 23.3793 24.3076 23.4165 24.3084C23.4369 24.3088 24.0804 24.096 24.378 23.9905C26.5564 23.218 28.571 22.1752 30.5003 20.8216C30.7091 20.6751 31.1967 20.3226 31.2202 20.3011C31.2272 20.2947 31.2427 20.123 31.2728 19.7163C31.3204 19.0726 31.3487 18.4674 31.3488 18.0904C31.3488 17.9497 31.3531 17.8678 31.3604 17.8678C31.3679 17.8678 31.372 17.7483 31.372 17.5324C31.372 17.3166 31.3679 17.1971 31.3604 17.1971C31.3531 17.1971 31.3488 17.1209 31.3488 16.9919C31.3487 16.7557 31.3334 16.3518 31.3081 15.9193C31.0984 12.3285 30.1734 8.88945 28.5371 5.61674C28.03 4.60239 27.503 3.68457 26.8424 2.66517L26.6386 2.35063L26.5632 2.31661C26.0749 2.09636 25.8519 1.99846 25.5989 1.89333C24.3473 1.37321 23.0033 0.940222 21.6845 0.632238C21.1696 0.511989 20.3021 0.340061 20.2714 0.352169C20.2265 0.369826 19.6739 1.50629 19.4647 2.01126C19.4516 2.04291 19.4472 2.04298 19.2546 2.0147C17.1005 1.69838 14.7818 1.69639 12.6261 2.009C12.5141 2.02524 12.415 2.03694 12.4059 2.03501C12.3968 2.03308 12.3603 1.96385 12.3249 1.88117C12.1708 1.52146 11.7985 0.758605 11.6196 0.435727C11.5695 0.345392 11.5641 0.342999 11.4537 0.362495ZM11.1879 10.3798C12.231 10.5573 13.086 11.3564 13.4231 12.4688C13.4726 12.6321 13.5147 12.8303 13.5419 13.0284C13.5708 13.2391 13.5707 13.752 13.5417 13.9651C13.4584 14.5769 13.2455 15.119 12.9143 15.5627C12.4554 16.1775 11.8458 16.5537 11.1358 16.6604C10.9639 16.6862 10.6245 16.6861 10.4538 16.6602C9.5967 16.5299 8.84804 15.9685 8.4088 15.1267C8.06454 14.467 7.94501 13.6979 8.06743 12.9302C8.14203 12.4623 8.3204 12.0015 8.58003 11.6061C8.8072 11.2601 9.12752 10.9441 9.46538 10.7327C9.58877 10.6555 9.83195 10.5383 9.96825 10.4905C10.106 10.4421 10.3135 10.392 10.4422 10.3759C10.4994 10.3688 10.5593 10.3608 10.5752 10.3581C10.6434 10.3464 11.0837 10.3621 11.1879 10.3798ZM21.4417 10.3798C22.3097 10.5275 23.0481 11.0983 23.4695 11.9473C23.6394 12.2895 23.742 12.6233 23.7964 13.0111C23.8252 13.2159 23.8252 13.7659 23.7964 13.9709C23.7043 14.6278 23.4675 15.1956 23.0877 15.6707C22.9043 15.9 22.6013 16.1661 22.3519 16.3167C21.1753 17.0272 19.7164 16.6778 18.8821 15.4857C18.1813 14.4843 18.0787 13.1137 18.6202 11.9877C18.8622 11.4844 19.2182 11.0679 19.6532 10.7789C20.0101 10.5418 20.3667 10.4131 20.8175 10.3586C20.9104 10.3474 21.3362 10.3618 21.4417 10.3798Z" fill="white"/>
</svg>
