<svg width="28" height="22" viewBox="0 0 28 22" fill="none" xmlns="http://www.w3.org/2000/svg">
<path fillRule="evenodd" clipRule="evenodd" d="M10.3645 0.730366C10.1777 0.76337 9.53144 0.896356 9.30886 0.947611C7.91815 1.26787 6.55787 1.72763 5.25353 2.3183C5.13723 2.37096 5.02563 2.42244 5.00551 2.43271C4.97572 2.44792 4.94403 2.48984 4.83482 2.65849C2.80482 5.79343 1.57062 9.04125 1.11807 12.4393C1.03463 13.0658 0.979117 13.6776 0.940903 14.3918C0.923315 14.7206 0.923355 16.3356 0.940963 16.6632C0.965821 17.1259 1.01665 17.8406 1.02812 17.8886C1.03073 17.8995 1.05412 17.9241 1.08008 17.9431C1.35139 18.1417 1.45831 18.2187 1.65514 18.3568C2.88144 19.2176 4.17498 19.9454 5.51437 20.5283C6.1417 20.8013 6.76625 21.0385 7.43979 21.2596C7.60865 21.315 7.75016 21.3604 7.75425 21.3604C7.76218 21.3604 8.01899 20.9958 8.15068 20.7975C8.482 20.2988 8.81155 19.7379 9.07619 19.2225L9.19948 18.9824L8.99628 18.9011C8.47288 18.692 7.94002 18.4405 7.44648 18.1698C7.2384 18.0557 6.93855 17.8808 6.93855 17.8736C6.93855 17.8702 6.97975 17.8363 7.03011 17.7983C7.12096 17.7297 7.34847 17.5482 7.43874 17.4722L7.48578 17.4326L7.67776 17.5202C9.37213 18.2935 11.1787 18.7703 12.9789 18.9192C13.394 18.9536 13.5637 18.961 14.0644 18.9666C14.707 18.9738 15.1497 18.9548 15.7544 18.8944C17.4326 18.7265 19.1042 18.2704 20.6935 17.5466C20.7887 17.5033 20.883 17.4598 20.903 17.4501L20.9394 17.4325L21.0674 17.5369C21.1377 17.5942 21.2603 17.6917 21.3397 17.7535C21.4191 17.8152 21.4853 17.8687 21.4867 17.8723C21.4881 17.876 21.4074 17.9266 21.3074 17.9848C20.698 18.3396 20.1029 18.6306 19.4424 18.8968C19.3274 18.9432 19.2313 18.9831 19.229 18.9855C19.2148 18.9995 19.6143 19.7349 19.8589 20.145C20.1219 20.5859 20.6386 21.3595 20.6706 21.3601C20.6882 21.3605 21.2426 21.1772 21.499 21.0863C23.3757 20.4207 25.1114 19.5224 26.7734 18.3562C26.9534 18.23 27.3734 17.9263 27.3937 17.9078C27.3997 17.9023 27.413 17.7543 27.4389 17.404C27.48 16.8495 27.5043 16.3281 27.5044 16.0032C27.5045 15.8821 27.5082 15.8115 27.5145 15.8115C27.5209 15.8115 27.5244 15.7085 27.5244 15.5226C27.5244 15.3366 27.5209 15.2336 27.5145 15.2336C27.5082 15.2336 27.5045 15.168 27.5044 15.0568C27.5044 14.8534 27.4912 14.5054 27.4694 14.1328C27.2887 11.0393 26.4919 8.07647 25.0822 5.25699C24.6452 4.3831 24.1912 3.59238 23.6222 2.71416L23.4466 2.44317L23.3816 2.41387C22.9609 2.22412 22.7688 2.13978 22.5508 2.0492C21.4725 1.60111 20.3147 1.22809 19.1785 0.962754C18.7349 0.859157 17.9876 0.711039 17.9611 0.721469C17.9224 0.736682 17.4464 1.71577 17.2661 2.1508C17.2548 2.17807 17.2511 2.17813 17.0851 2.15376C15.2293 1.88125 13.2318 1.87953 11.3746 2.14885C11.2781 2.16285 11.1927 2.17293 11.1849 2.17127C11.177 2.1696 11.1456 2.10996 11.1151 2.03873C10.9823 1.72884 10.6616 1.07162 10.5074 0.793456C10.4643 0.715632 10.4597 0.713569 10.3645 0.730366ZM10.1355 9.36042C11.0342 9.51338 11.7708 10.2018 12.0612 11.1602C12.1038 11.3008 12.1401 11.4716 12.1635 11.6423C12.1884 11.8238 12.1884 12.2656 12.1634 12.4492C12.0916 12.9763 11.9082 13.4433 11.6228 13.8256C11.2275 14.3552 10.7024 14.6793 10.0907 14.7713C9.94255 14.7935 9.65014 14.7934 9.50307 14.7711C8.76469 14.6588 8.1197 14.1752 7.74129 13.45C7.4447 12.8816 7.34172 12.219 7.44719 11.5576C7.51146 11.1545 7.66513 10.7576 7.88881 10.4169C8.08452 10.1189 8.36048 9.84661 8.65155 9.66445C8.75786 9.59791 8.96736 9.49701 9.08478 9.4558C9.20345 9.41414 9.38218 9.37095 9.49311 9.35711C9.54241 9.35097 9.59395 9.34403 9.60764 9.3417C9.6664 9.33169 10.0457 9.34515 10.1355 9.36042ZM18.9694 9.36042C19.7171 9.48769 20.3533 9.97943 20.7163 10.7108C20.8627 11.0056 20.951 11.2933 20.9979 11.6273C21.0227 11.8038 21.0227 12.2776 20.998 12.4542C20.9186 13.0202 20.7146 13.5093 20.3874 13.9186C20.2294 14.1162 19.9683 14.3454 19.7535 14.4752C18.7399 15.0873 17.483 14.7863 16.7642 13.7592C16.1605 12.8965 16.072 11.7158 16.5386 10.7457C16.7471 10.3121 17.0538 9.9532 17.4285 9.70426C17.736 9.50001 18.0432 9.3891 18.4316 9.34216C18.5116 9.33249 18.8784 9.34494 18.9694 9.36042Z" fill="black"/>
</svg>
