<svg width="31" height="31" viewBox="0 0 31 31" fill="none" xmlns="http://www.w3.org/2000/svg">
<circle cx="15.6451" cy="15.4479" r="15.0943" fill="#00FFFF"/>
<path d="M15.6445 8.02244C18.0627 8.02244 18.3492 8.03168 19.3041 8.07525C20.1871 8.11551 20.6667 8.26305 20.9858 8.38708C21.4086 8.55137 21.7103 8.74762 22.0272 9.06452C22.3441 9.38146 22.5403 9.68315 22.7046 10.1059C22.8287 10.425 22.9762 10.9046 23.0165 11.7876C23.06 12.7425 23.0693 13.029 23.0693 15.4472C23.0693 17.8654 23.06 18.1519 23.0165 19.1068C22.9762 19.9898 22.8287 20.4694 22.7046 20.7885C22.5403 21.2112 22.3441 21.5129 22.0272 21.8298C21.7103 22.1468 21.4086 22.343 20.9858 22.5073C20.6667 22.6313 20.1871 22.7789 19.3041 22.8191C18.3493 22.8627 18.0629 22.872 15.6445 22.872C13.2261 22.872 12.9397 22.8627 11.9848 22.8191C11.1018 22.7789 10.6223 22.6313 10.3032 22.5073C9.88043 22.343 9.57874 22.1468 9.26183 21.8298C8.94493 21.5129 8.74864 21.2112 8.58435 20.7885C8.46032 20.4694 8.31278 19.9898 8.27252 19.1068C8.22895 18.1519 8.21971 17.8654 8.21971 15.4472C8.21971 13.029 8.22895 12.7425 8.27252 11.7876C8.31278 10.9046 8.46032 10.425 8.58435 10.1059C8.74864 9.68315 8.9449 9.38146 9.26183 9.06456C9.57874 8.74762 9.88043 8.55137 10.3032 8.38708C10.6223 8.26305 11.1018 8.11551 11.9848 8.07525C12.9398 8.03168 13.2263 8.02244 15.6445 8.02244ZM15.6445 6.39062C13.1849 6.39062 12.8765 6.40105 11.9105 6.44513C10.9465 6.48909 10.2881 6.6422 9.71207 6.86607C9.11652 7.09751 8.61146 7.40719 8.10794 7.91067C7.60446 8.41419 7.29478 8.91925 7.06337 9.5148C6.83947 10.0909 6.68636 10.7492 6.64239 11.7132C6.59832 12.6792 6.58789 12.9876 6.58789 15.4472C6.58789 17.9068 6.59832 18.2152 6.64239 19.1812C6.68636 20.1452 6.83947 20.8035 7.06337 21.3796C7.29478 21.9751 7.60446 22.4802 8.10794 22.9837C8.61146 23.4872 9.11652 23.7969 9.71207 24.0283C10.2881 24.2522 10.9465 24.4053 11.9105 24.4493C12.8765 24.4933 13.1849 24.5038 15.6445 24.5038C18.1041 24.5038 18.4125 24.4933 19.3785 24.4493C20.3425 24.4053 21.0008 24.2522 21.5769 24.0283C22.1725 23.7969 22.6775 23.4872 23.181 22.9837C23.6845 22.4802 23.9942 21.9751 24.2257 21.3796C24.4495 20.8035 24.6026 20.1452 24.6466 19.1812C24.6907 18.2152 24.7011 17.9068 24.7011 15.4472C24.7011 12.9876 24.6907 12.6792 24.6466 11.7132C24.6026 10.7492 24.4495 10.0909 24.2257 9.5148C23.9942 8.91925 23.6845 8.41419 23.181 7.91067C22.6775 7.40719 22.1725 7.09751 21.5769 6.86607C21.0008 6.6422 20.3425 6.48909 19.3785 6.44513C18.4125 6.40105 18.1041 6.39062 15.6445 6.39062Z" fill="black"/>
<path d="M15.6488 10.8008C13.0802 10.8008 10.998 12.8829 10.998 15.4514C10.998 18.02 13.0802 20.1021 15.6488 20.1021C18.2173 20.1021 20.2994 18.02 20.2994 15.4514C20.2994 12.8829 18.2173 10.8008 15.6488 10.8008ZM15.6488 18.4703C13.9814 18.4703 12.6299 17.1187 12.6299 15.4514C12.6299 13.7842 13.9814 12.4326 15.6488 12.4326C17.316 12.4326 18.6676 13.7842 18.6676 15.4514C18.6676 17.1187 17.316 18.4703 15.6488 18.4703Z" fill="black"/>
<path d="M21.5701 10.6142C21.5701 11.2143 21.0835 11.7009 20.4833 11.7009C19.8831 11.7009 19.3965 11.2143 19.3965 10.6142C19.3965 10.0139 19.8831 9.52734 20.4833 9.52734C21.0835 9.52734 21.5701 10.0139 21.5701 10.6142Z" fill="black"/>
</svg>
