<svg width="25" height="25" viewBox="0 0 25 25" fill="none" xmlns="http://www.w3.org/2000/svg">
<path fillRule="evenodd" clipRule="evenodd" d="M9.16539 0.36209C7.89072 0.404124 7.32607 0.437775 6.82428 0.501611C5.45063 0.6764 4.24179 1.15538 3.32431 1.88837C3.03919 2.11618 2.56429 2.59121 2.33655 2.87641C1.60376 3.79412 1.12512 5.00274 0.950144 6.37733C0.824169 7.36688 0.807617 8.0588 0.807617 12.3371C0.807617 16.6154 0.824169 17.3073 0.950144 18.2969C1.12507 19.671 1.60249 20.8769 2.33615 21.7978C2.56338 22.083 3.03919 22.5589 3.32431 22.7862C4.37294 23.6221 5.7152 24.0985 7.39785 24.232C8.31477 24.3048 8.98772 24.3152 12.7824 24.3152C16.5771 24.3152 17.25 24.3048 18.167 24.232C19.8496 24.0985 21.1919 23.6221 22.2405 22.7862C22.5256 22.5589 23.0014 22.083 23.2287 21.7978C24.0643 20.7489 24.5406 19.4062 24.6741 17.7231C24.7468 16.806 24.7572 16.1328 24.7572 12.3371C24.7572 8.06712 24.7405 7.36555 24.6156 6.37988C24.4417 5.00827 23.96 3.79201 23.2281 2.87641C22.9971 2.58753 22.5221 2.11197 22.2405 1.88777C21.3183 1.15349 20.1164 0.67743 18.7405 0.501424C17.7982 0.380894 17.1612 0.364876 13.1102 0.359818C11.0564 0.357242 9.28127 0.358273 9.16539 0.36209ZM17.2071 2.54528C18.1338 2.59259 18.5423 2.63565 19.0443 2.73904C19.6167 2.8569 20.3139 3.14761 20.7301 3.44192C21.0054 3.63663 21.4648 4.09538 21.6646 4.37513C22.0237 4.878 22.2962 5.57874 22.4283 6.33881C22.5799 7.21097 22.6034 8.01609 22.6034 12.3371C22.6034 16.6581 22.5799 17.4632 22.4283 18.3354C22.2962 19.0954 22.0237 19.7962 21.6646 20.2991C21.4648 20.5788 21.0054 21.0375 20.7301 21.2323C20.2031 21.6049 19.4427 21.8873 18.6425 22.0073C17.7448 22.142 17.028 22.1607 12.7824 22.1607C8.53682 22.1607 7.82004 22.142 6.92235 22.0073C6.12213 21.8873 5.36167 21.6049 4.83473 21.2323C4.55937 21.0375 4.09999 20.5788 3.90023 20.2991C3.54115 19.7962 3.26859 19.0954 3.13651 18.3354C2.98495 17.4632 2.96144 16.6581 2.96144 12.3371C2.96144 8.01609 2.98495 7.21097 3.13651 6.33881C3.26859 5.57874 3.54115 4.878 3.90023 4.37513C4.09999 4.09538 4.55937 3.63663 4.83473 3.44192C5.07467 3.27221 5.55434 3.03049 5.86442 2.92301C6.64673 2.65186 7.28608 2.57732 9.35268 2.51641C9.99637 2.49742 16.7563 2.52229 17.2071 2.54528ZM18.7874 4.55994C18.0678 4.76981 17.6263 5.46566 17.7533 6.18973C17.9075 7.0685 18.8112 7.60043 19.6494 7.30576C20.082 7.15367 20.4489 6.75201 20.5646 6.3037C20.6075 6.13732 20.6131 5.81456 20.5762 5.63497C20.4946 5.23816 20.1791 4.83959 19.8057 4.66157C19.6963 4.60938 19.5509 4.55521 19.4827 4.54116C19.297 4.50297 18.9507 4.51231 18.7874 4.55994ZM12.3376 6.19196C12.2925 6.1972 12.1556 6.21275 12.0333 6.22652C10.922 6.35157 9.71604 6.87233 8.84934 7.60143C8.57992 7.82807 8.16304 8.25324 7.96011 8.50832C7.29259 9.34737 6.84261 10.4013 6.68025 11.5058C6.62266 11.8976 6.62266 12.7766 6.68025 13.1684C6.77942 13.8431 6.96804 14.4559 7.25687 15.0418C7.86916 16.2839 8.83969 17.2549 10.0784 17.8645C10.665 18.1532 11.278 18.3419 11.9513 18.4409C12.3431 18.4985 13.2218 18.4985 13.6135 18.4409C14.7652 18.2715 15.8694 17.7845 16.7155 17.0728C16.9849 16.8461 17.4018 16.4209 17.6047 16.1659C18.2721 15.327 18.7212 14.2754 18.8848 13.1684C18.9428 12.7761 18.9428 11.8981 18.8848 11.5058C18.7848 10.8291 18.5965 10.2178 18.3079 9.63237C17.6955 8.3899 16.7225 7.41674 15.4865 6.81025C14.6407 6.39524 13.8567 6.20753 12.8995 6.19083C12.6355 6.18622 12.3827 6.18673 12.3376 6.19196ZM13.5012 8.40217C14.0431 8.5009 14.6524 8.75774 15.1001 9.07611C15.3872 9.28026 15.8425 9.7354 16.0431 10.0188C16.363 10.4705 16.6155 11.0718 16.72 11.6304C16.7927 12.019 16.7927 12.6552 16.72 13.0438C16.6155 13.6023 16.363 14.2037 16.0431 14.6554C15.8425 14.9388 15.3872 15.3939 15.1001 15.5981C14.6506 15.9178 14.0483 16.1711 13.489 16.2758C13.1004 16.3485 12.4644 16.3485 12.0759 16.2758C11.5165 16.1711 10.9142 15.9178 10.4647 15.5981C10.1776 15.3939 9.72231 14.9388 9.52168 14.6554C9.20184 14.2037 8.94928 13.6023 8.84482 13.0438C8.77213 12.6552 8.77213 12.019 8.84482 11.6304C8.94928 11.0718 9.20184 10.4705 9.52168 10.0188C9.72231 9.7354 10.1776 9.28026 10.4647 9.07611C10.7444 8.8772 11.2195 8.63871 11.5491 8.53177C11.7859 8.45496 12.1894 8.3707 12.4312 8.34756C12.6606 8.32562 13.2447 8.35543 13.5012 8.40217Z" fill="white"/>
</svg>
