<svg width="33" height="19" viewBox="0 0 33 19" fill="none" xmlns="http://www.w3.org/2000/svg">
<g clip-path="url(#clip0_1187_5031)">
<path d="M18.6589 9.81994C18.6589 14.8727 14.5817 18.9687 9.55241 18.9687C4.52308 18.9687 0.445557 14.8721 0.445557 9.81994C0.445557 4.76779 4.52277 0.670898 9.55241 0.670898C14.582 0.670898 18.6589 4.76717 18.6589 9.81994Z" fill="black"/>
<path d="M28.6488 9.8192C28.6488 14.5755 26.6103 18.4314 24.0954 18.4314C21.5804 18.4314 19.5422 14.5755 19.5422 9.8192C19.5422 5.06295 21.5807 1.20703 24.0954 1.20703C26.61 1.20703 28.6488 5.06387 28.6488 9.8192Z" fill="black"/>
<path d="M32.7359 9.81966C32.7359 14.081 32.0188 17.5358 31.1344 17.5358C30.25 17.5358 29.5332 14.0801 29.5332 9.81966C29.5332 5.55924 30.25 2.10352 31.1344 2.10352C32.0188 2.10352 32.7359 5.55924 32.7359 9.81966Z" fill="black"/>
</g>
<defs>
<clipPath id="clip0_1187_5031">
<rect width="32.2902" height="18.2978" fill="white" transform="translate(0.445557 0.670898)"/>
</clipPath>
</defs>
</svg>
