<svg width="33" height="20" viewBox="0 0 33 20" fill="none" xmlns="http://www.w3.org/2000/svg">
<g clip-path="url(#clip0_1187_4753)">
<path d="M18.9231 9.92834C18.9231 14.9811 14.8459 19.0771 9.81657 19.0771C4.78724 19.0771 0.709717 14.9805 0.709717 9.92834C0.709717 4.87619 4.78693 0.779297 9.81657 0.779297C14.8462 0.779297 18.9231 4.87557 18.9231 9.92834Z" fill="white"/>
<path d="M28.9129 9.92662C28.9129 14.6829 26.8745 18.5388 24.3595 18.5388C21.8445 18.5388 19.8064 14.6829 19.8064 9.92662C19.8064 5.17037 21.8448 1.31445 24.3595 1.31445C26.8742 1.31445 28.9129 5.17129 28.9129 9.92662Z" fill="white"/>
<path d="M33.0001 9.92904C33.0001 14.1904 32.283 17.6452 31.3986 17.6452C30.5142 17.6452 29.7974 14.1895 29.7974 9.92904C29.7974 5.66862 30.5142 2.21289 31.3986 2.21289C32.283 2.21289 33.0001 5.66862 33.0001 9.92904Z" fill="white"/>
</g>
<defs>
<clipPath id="clip0_1187_4753">
<rect width="32.2902" height="18.2978" fill="white" transform="translate(0.709717 0.779297)"/>
</clipPath>
</defs>
</svg>
