<svg width="23" height="23" viewBox="0 0 23 23" fill="none" xmlns="http://www.w3.org/2000/svg">
<path fillRule="evenodd" clipRule="evenodd" d="M10.2296 0.930444C6.30097 1.57053 2.97045 4.25298 1.63267 7.85454C0.666242 10.4564 0.763172 13.4488 1.89977 16.0972C3.06638 18.8155 5.97859 21.2809 8.96778 22.0806C10.4436 22.4754 12.9849 22.506 14.3139 22.1451C18.5054 21.0069 21.5943 17.7012 22.3643 13.5297C22.7191 11.607 22.4121 9.13931 21.575 7.18917C20.4104 4.47554 17.4583 1.97397 14.5389 1.22685C13.2709 0.902427 11.2536 0.763635 10.2296 0.930444ZM12.6026 5.61806C12.6796 5.82079 12.7426 6.16332 12.7426 6.37912C12.7426 6.67265 12.9596 6.97667 13.6029 7.58414C15.751 9.61243 15.9437 11.0159 14.3167 12.782C13.8276 13.3127 13.6181 13.4391 13.227 13.4391C12.7486 13.4391 12.7426 13.4472 12.7426 14.0857V14.7322H13.4286C14.1091 14.7322 14.456 14.5768 15.1838 13.9459C15.3813 13.7748 16.1567 13.458 16.907 13.2422C17.6573 13.0262 18.3842 12.8163 18.5225 12.7755C18.7231 12.7163 18.7738 12.7897 18.7738 13.1391C18.7738 13.5058 18.6798 13.6249 18.1952 13.8723C17.7858 14.0812 17.4355 14.4503 16.997 15.135C16.2018 16.3762 15.604 16.9686 15.0309 17.0832C14.2678 17.236 9.07347 17.1855 8.29185 17.0179C7.88402 16.9304 7.29627 16.6591 6.96269 16.4046C6.22946 15.8452 5.56258 14.6278 5.56258 13.849V13.286L7.17809 13.3266L8.79359 13.3673L8.83868 13.7592C8.91335 14.4072 9.48029 14.7322 10.5362 14.7322H11.4502V14.0857V13.4391H10.6604C10.226 13.4391 9.87059 13.4091 9.87059 13.3723C9.87059 13.3355 10.0624 13.0029 10.2968 12.6331C10.9581 11.5897 11.2102 10.6792 11.0945 9.75252C10.9831 8.85928 10.6312 7.75857 10.1655 6.84507C9.99222 6.50541 9.8828 6.19521 9.92229 6.1557C9.96163 6.11633 10.3215 6.18013 10.722 6.29765L11.4502 6.51116V6.05268C11.4502 5.50987 11.67 5.24953 12.1287 5.24953C12.3549 5.24953 12.5077 5.36835 12.6026 5.61806ZM9.7458 8.88859C10.1031 10.0446 10.0558 10.8782 9.59057 11.6314L9.27278 12.146H7.77661C6.95378 12.146 6.28058 12.1179 6.28058 12.0833C6.28058 12.0107 8.8269 7.99966 9.04977 7.72121C9.25268 7.46776 9.36526 7.65656 9.7458 8.88859Z" fill="black"/>
</svg>
