<svg width="26" height="26" viewBox="0 0 26 26" fill="none" xmlns="http://www.w3.org/2000/svg">
<path fillRule="evenodd" clipRule="evenodd" d="M11.2461 0.433914C6.68595 1.17689 2.82006 4.29053 1.26724 8.47103C0.145464 11.4911 0.257976 14.9645 1.57727 18.0386C2.93141 21.194 6.31175 24.0556 9.78143 24.9839C11.4944 25.4422 14.4442 25.4777 15.9869 25.0587C20.8522 23.7376 24.4376 19.9005 25.3313 15.0584C25.7432 12.8266 25.3868 9.96231 24.4152 7.6987C23.0634 4.54886 19.6367 1.64518 16.2481 0.777966C14.7763 0.401394 12.4347 0.240291 11.2461 0.433914ZM14.0005 5.87504C14.0899 6.11036 14.163 6.50794 14.163 6.75844C14.163 7.09915 14.4149 7.45204 15.1616 8.15716C17.655 10.5115 17.8787 12.1405 15.9902 14.1905C15.4225 14.8066 15.1793 14.9533 14.7253 14.9533C14.17 14.9533 14.163 14.9627 14.163 15.7038V16.4543H14.9593C15.7492 16.4543 16.1519 16.2738 16.9966 15.5415C17.2258 15.3429 18.1259 14.9752 18.9968 14.7247C19.8678 14.474 20.7115 14.2304 20.872 14.183C21.1049 14.1143 21.1637 14.1995 21.1637 14.6051C21.1637 15.0307 21.0546 15.169 20.4922 15.4561C20.0169 15.6986 19.6102 16.1271 19.1014 16.9217C18.1783 18.3625 17.4844 19.0501 16.8191 19.1832C15.9334 19.3605 9.90411 19.3019 8.99685 19.1073C8.52347 19.0057 7.84123 18.6909 7.45403 18.3955C6.60294 17.7461 5.82887 16.333 5.82887 15.4291V14.7755L7.70405 14.8227L9.57924 14.8699L9.63158 15.3249C9.71826 16.077 10.3763 16.4543 11.6019 16.4543H12.6629V15.7038V14.9533H11.7461C11.2419 14.9533 10.8294 14.9185 10.8294 14.8758C10.8294 14.8331 11.0521 14.447 11.3241 14.0177C12.0917 12.8066 12.3844 11.7498 12.25 10.6741C12.1207 9.63727 11.7123 8.35962 11.1717 7.29928C10.9705 6.90503 10.8435 6.54497 10.8894 6.4991C10.935 6.45341 11.3528 6.52746 11.8176 6.66388L12.6629 6.9117V6.37953C12.6629 5.74946 12.9181 5.44727 13.4505 5.44727C13.713 5.44727 13.8903 5.58519 14.0005 5.87504ZM10.6845 9.67129C11.0992 11.0131 11.0444 11.9808 10.5043 12.855L10.1355 13.4524H8.39879C7.44369 13.4524 6.66228 13.4197 6.66228 13.3795C6.66228 13.2953 9.61791 8.63947 9.8766 8.31626C10.1121 8.02207 10.2428 8.24121 10.6845 9.67129Z" fill="white"/>
</svg>
