<svg width="29" height="25" viewBox="0 0 29 25" fill="none" xmlns="http://www.w3.org/2000/svg">
<path fillRule="evenodd" clipRule="evenodd" d="M19.328 0.372224C18.3022 0.502533 17.4039 0.865136 16.5953 1.47532C15.3003 2.45251 14.471 3.89471 14.2371 5.57641C14.1913 5.90592 14.1807 6.65054 14.2165 7.02326C14.2425 7.29359 14.282 7.574 14.3129 7.70773L14.3232 7.75224L14.1042 7.73946C13.3011 7.69252 12.2912 7.53967 11.4518 7.33796C8.0466 6.51975 4.9268 4.52613 2.66555 1.72332C2.40436 1.39958 2.44315 1.40503 2.30835 1.67318C1.72518 2.83339 1.51739 4.17645 1.72039 5.47338C1.962 7.01693 2.77541 8.41676 3.96575 9.33751C4.08067 9.42641 4.17177 9.50211 4.16818 9.50571C4.1557 9.5182 3.68489 9.46921 3.47269 9.43337C2.88768 9.33452 2.27594 9.12423 1.78168 8.85203L1.59448 8.74896L1.60486 9.08717C1.6253 9.75322 1.74329 10.3614 1.98083 11.0252C2.09118 11.3336 2.37424 11.9081 2.55431 12.1892C3.3748 13.4702 4.57259 14.3544 5.98269 14.7201C6.09338 14.7488 6.17683 14.7765 6.16814 14.7817C6.14104 14.7977 5.84456 14.8666 5.67946 14.8953C5.10212 14.9954 4.38131 14.9999 3.83464 14.9067C3.72263 14.8877 3.62854 14.8745 3.62553 14.8775C3.61546 14.8876 3.77342 15.3218 3.86555 15.5374C4.31881 16.5979 5.0889 17.5247 6.0437 18.1585C6.6733 18.5765 7.3095 18.8388 8.05312 18.9871C8.2949 19.0353 8.4285 19.0526 8.85956 19.0912L8.98913 19.1028L8.93373 19.1481C8.74914 19.2993 8.31842 19.613 8.07167 19.776C6.38822 20.8881 4.587 21.5005 2.58431 21.6419C2.19314 21.6695 1.12492 21.6528 0.793049 21.6139C0.428673 21.5712 0.43431 21.5676 0.644843 21.7085C1.27362 22.1293 2.16974 22.6198 2.91637 22.9518C4.38934 23.6068 5.97214 24.0389 7.55243 24.2174C8.1446 24.2843 8.35274 24.296 9.123 24.3059C10.1015 24.3184 10.7293 24.2841 11.5858 24.1714C15.6752 23.6329 19.1858 21.6373 21.816 18.3558C23.88 15.7807 25.2624 12.4375 25.6504 9.08223C25.7305 8.39014 25.7478 8.08316 25.7576 7.18766L25.7673 6.30404L26.0015 6.11829C26.6702 5.58802 27.3653 4.8899 27.9171 4.19448C28.1704 3.87523 28.6372 3.21582 28.6372 3.17724C28.6372 3.1723 28.5044 3.22545 28.3421 3.29532C27.6915 3.57527 27.0214 3.79142 26.3321 3.94369C26.0796 3.99945 25.4567 4.11101 25.3978 4.11101C25.3812 4.11101 25.4419 4.05959 25.5328 3.99673C26.0975 3.6061 26.6666 3.02988 27.0593 2.45084C27.3821 1.97509 27.6875 1.34623 27.8282 0.868011L27.8573 0.769124L27.7883 0.811157C26.766 1.43419 25.7615 1.85819 24.6511 2.1353C24.1419 2.26238 24.2275 2.27674 23.9711 2.02119C23.0721 1.12503 22.0206 0.591793 20.7559 0.390736C20.4922 0.348796 19.6032 0.337277 19.328 0.372224Z" fill="white"/>
</svg>
