<svg width="31" height="31" viewBox="0 0 31 31" fill="none" xmlns="http://www.w3.org/2000/svg">
<circle cx="15.4557" cy="15.4479" r="15.0943" fill="#5FFECD"/>
<path fillRule="evenodd" clipRule="evenodd" d="M25.2675 10.3976C24.6016 10.6935 23.885 10.8927 23.1333 10.9827C23.9007 10.5226 24.4899 9.79452 24.767 8.92695C24.0498 9.35319 23.2535 9.6617 22.4076 9.82893C21.7296 9.10687 20.763 8.65527 19.695 8.65527C17.643 8.65527 15.9791 10.3192 15.9791 12.3713C15.9791 12.6623 16.0123 12.946 16.0757 13.2183C12.987 13.0637 10.249 11.584 8.4161 9.33568C8.09612 9.88447 7.91319 10.5226 7.91319 11.2036C7.91319 12.4926 8.56824 13.63 9.56621 14.2966C8.95644 14.2772 8.3841 14.11 7.8824 13.8317V13.8782C7.8824 15.6791 9.16412 17.1806 10.863 17.5229C10.5515 17.6074 10.2231 17.6533 9.88438 17.6533C9.6447 17.6533 9.41166 17.6298 9.18465 17.5863C9.65737 19.0624 11.0303 20.1371 12.6561 20.1673C11.3847 21.1634 9.78235 21.7581 8.04118 21.7581C7.74052 21.7581 7.44469 21.7406 7.1543 21.7056C8.79887 22.7597 10.7519 23.3755 12.8505 23.3755C19.6854 23.3755 23.4231 17.7131 23.4231 12.8029C23.4231 12.6417 23.4201 12.4811 23.4122 12.3224C24.1391 11.7971 24.7694 11.1427 25.2675 10.3976Z" fill="black"/>
</svg>
