<svg width="25" height="22" viewBox="0 0 25 22" fill="none" xmlns="http://www.w3.org/2000/svg">
<path fillRule="evenodd" clipRule="evenodd" d="M16.3935 0.738748C15.5097 0.851011 14.7358 1.1634 14.0392 1.68908C12.9235 2.53095 12.2091 3.77342 12.0076 5.22223C11.9681 5.50611 11.959 6.14762 11.9899 6.46872C12.0123 6.70162 12.0463 6.94319 12.0729 7.0584L12.0817 7.09675L11.8931 7.08574C11.2012 7.04529 10.3312 6.91362 9.60802 6.73984C6.67436 6.03494 3.98661 4.3174 2.03851 1.90274C1.81349 1.62383 1.84691 1.62853 1.73078 1.85954C1.22836 2.85908 1.04935 4.01615 1.22424 5.13348C1.43239 6.46327 2.13315 7.66924 3.15865 8.46248C3.25765 8.53908 3.33614 8.60429 3.33304 8.60739C3.32229 8.61815 2.91669 8.57594 2.73387 8.54507C2.22987 8.45991 1.70285 8.27874 1.27704 8.04424L1.11576 7.95543L1.12471 8.24681C1.14231 8.82062 1.24397 9.34461 1.44861 9.91647C1.54368 10.1821 1.78754 10.6771 1.94267 10.9193C2.64954 12.0228 3.68145 12.7846 4.89628 13.0997C4.99164 13.1244 5.06353 13.1483 5.05604 13.1527C5.0327 13.1665 4.77727 13.2259 4.63504 13.2506C4.13765 13.3369 3.51666 13.3407 3.0457 13.2605C2.9492 13.244 2.86814 13.2327 2.86555 13.2353C2.85687 13.2439 2.99296 13.618 3.07233 13.8038C3.46282 14.7175 4.12626 15.5158 4.94884 16.0619C5.49125 16.422 6.03934 16.648 6.67999 16.7758C6.88828 16.8173 7.00338 16.8321 7.37474 16.8654L7.48637 16.8754L7.43865 16.9145C7.27962 17.0447 6.90854 17.315 6.69596 17.4554C5.24565 18.4135 3.69387 18.9411 1.96852 19.0629C1.63152 19.0867 0.711227 19.0723 0.425318 19.0388C0.111402 19.002 0.116259 18.9989 0.297636 19.1203C0.83934 19.4828 1.61136 19.9054 2.25459 20.1914C3.52358 20.7557 4.88719 21.128 6.24863 21.2817C6.7588 21.3394 6.93811 21.3495 7.6017 21.358C8.44473 21.3688 8.98552 21.3392 9.72344 21.2421C13.2465 20.7782 16.2709 19.059 18.5369 16.2319C20.3151 14.0134 21.506 11.1332 21.8403 8.24256C21.9093 7.64631 21.9242 7.38185 21.9327 6.61035L21.941 5.8491L22.1428 5.68907C22.7189 5.23224 23.3177 4.63079 23.7931 4.03168C24.0114 3.75664 24.4135 3.18855 24.4135 3.15531C24.4135 3.15106 24.2991 3.19684 24.1592 3.25704C23.5988 3.49822 23.0215 3.68444 22.4276 3.81563C22.2101 3.86366 21.6735 3.95977 21.6227 3.95977C21.6084 3.95977 21.6607 3.91547 21.739 3.86131C22.2255 3.52478 22.7158 3.02836 23.0541 2.52951C23.3322 2.11964 23.5953 1.57787 23.7165 1.16588L23.7416 1.08068L23.6821 1.1169C22.8014 1.65365 21.936 2.01893 20.9794 2.25767C20.5407 2.36715 20.6144 2.37952 20.3936 2.15935C19.6191 1.3873 18.7132 0.927909 17.6237 0.754696C17.3964 0.718564 16.6305 0.70864 16.3935 0.738748Z" fill="black"/>
</svg>
