<svg width="57" height="57" viewBox="0 0 57 57" fill="none" xmlns="http://www.w3.org/2000/svg">
<g clip-path="url(#clip0_745_15721)">
<path d="M28.8745 0.935547V8.19383C17.4134 8.19383 8.12192 17.4853 8.12192 28.9464H0.875V0.935547H28.8745Z" fill="#FDFF2D"/>
<path d="M56.8853 28.9349V56.9344H28.8745V49.6761C40.3356 49.6761 49.6271 40.3846 49.6271 28.9236H56.8853V28.9349Z" fill="#FDFF2D"/>
<path d="M38.0289 29.5938C38.3883 24.5376 34.5807 20.1475 29.5246 19.7882C24.4684 19.4288 20.0783 23.2364 19.719 28.2925C19.3596 33.3487 23.1672 37.7388 28.2233 38.0981C33.2795 38.4574 37.6696 34.6499 38.0289 29.5938Z" fill="#FDFF2D"/>
<path d="M38.0289 29.5938C38.3883 24.5376 34.5807 20.1475 29.5246 19.7882C24.4684 19.4288 20.0783 23.2364 19.719 28.2925C19.3596 33.3487 23.1672 37.7388 28.2233 38.0981C33.2795 38.4574 37.6696 34.6499 38.0289 29.5938Z" fill="#FDFF2D"/>
</g>
<defs>
<clipPath id="clip0_745_15721">
<rect width="56.0103" height="56.0103" fill="white" transform="translate(0.875 0.935547)"/>
</clipPath>
</defs>
</svg>
