<svg width="160" height="32" viewBox="0 0 160 32" fill="none" xmlns="http://www.w3.org/2000/svg">
<path d="M45.8702 16.8428C46.722 16.8428 47.5607 16.8428 48.4169 16.8428C48.4372 16.9376 48.4605 17.0324 48.4751 17.1272C48.6877 18.4335 49.4434 19.2864 50.681 19.6976C52.0104 20.1394 53.3573 20.1452 54.6983 19.7326C55.007 19.6378 55.2894 19.4862 55.5515 19.2952C56.2068 18.8199 56.447 18.1594 56.4193 17.375C56.3931 16.6533 56.0815 16.0963 55.4511 15.7362C55.2399 15.6152 55.0142 15.5146 54.7871 15.4286C54.212 15.2099 53.6077 15.1151 53.0049 15.0058C52.1021 14.8425 51.1965 14.6923 50.301 14.4955C49.5074 14.3205 48.7488 14.0274 48.0587 13.5842C46.9826 12.8917 46.4046 11.8959 46.2866 10.6259C46.2269 9.98004 46.259 9.33998 46.4657 8.72033C46.7904 7.74639 47.4253 7.02906 48.2989 6.50855C49.1361 6.00992 50.0535 5.7606 51.0101 5.6425C51.9405 5.52878 52.8738 5.52878 53.8043 5.63521C54.7856 5.74748 55.7263 5.99679 56.5897 6.49543C57.8827 7.24338 58.6573 8.35 58.9107 9.82112C58.9645 10.1361 59.0024 10.4539 58.9776 10.7921C58.1186 10.7921 57.274 10.7921 56.4135 10.7921C56.3917 10.6318 56.3727 10.4743 56.3509 10.3183C56.1747 9.10379 55.4525 8.36167 54.3153 7.98988C53.5567 7.74202 52.7734 7.68516 51.9798 7.73327C51.3785 7.76972 50.796 7.87907 50.2442 8.12693C49.8249 8.31501 49.4579 8.57162 49.2148 8.97403C48.6178 9.96255 48.9352 11.18 49.9399 11.753C50.3621 11.995 50.8208 12.1481 51.2926 12.2443C52.057 12.3989 52.8258 12.533 53.5931 12.6628C54.6284 12.8392 55.6505 13.0593 56.6159 13.4894C57.3265 13.8058 57.9438 14.2432 58.4069 14.8804C58.7563 15.3615 58.9572 15.9039 59.0432 16.4871C59.1422 17.1651 59.1334 17.843 58.9791 18.5166C58.7636 19.4556 58.2729 20.221 57.5303 20.8246C56.8212 21.4005 55.9985 21.7417 55.1147 21.94C54.0387 22.1806 52.9496 22.2214 51.8517 22.1427C50.9839 22.0814 50.1365 21.9254 49.324 21.6163C48.2407 21.2052 47.3146 20.5782 46.6565 19.6028C46.1381 18.8359 45.8877 17.9801 45.8586 17.0557C45.8571 16.9901 45.8658 16.923 45.8702 16.8428Z" fill="black"/>
<path d="M115.105 17.7322C114.629 19.1275 114.156 20.5155 113.679 21.9137C112.776 21.9137 111.885 21.9137 110.988 21.9137C110.951 21.7344 110.969 21.574 111.027 21.4107C112.455 17.461 113.881 13.5113 115.308 9.56156C115.732 8.38933 116.155 7.2171 116.579 6.04341C116.605 5.97197 116.634 5.90345 116.665 5.82617C117.834 5.82617 118.995 5.82617 120.167 5.82617C120.196 5.89907 120.226 5.9676 120.251 6.03904C122.1 11.161 123.95 16.2844 125.802 21.4063C125.861 21.5696 125.877 21.73 125.847 21.9268C125.768 21.9268 125.692 21.9268 125.618 21.9268C124.852 21.9268 124.086 21.9268 123.322 21.9268C123.092 21.9268 123.092 21.9254 123.018 21.7111C122.59 20.4586 122.162 19.2062 121.735 17.9553C121.71 17.8838 121.685 17.8124 121.656 17.7322C119.479 17.7322 117.307 17.7322 115.105 17.7322ZM120.858 15.3877C120.065 13.0666 119.283 10.7761 118.5 8.48556C118.406 8.48556 118.334 8.48556 118.248 8.48556C117.466 10.7834 116.685 13.0724 115.898 15.3877C117.56 15.3877 119.193 15.3877 120.858 15.3877Z" fill="black"/>
<path d="M106.854 11.6261C106.854 9.69718 106.854 7.77116 106.854 5.83057C107.737 5.83057 108.599 5.83057 109.477 5.83057C109.477 11.1858 109.477 16.5396 109.477 21.9108C108.632 21.9108 107.793 21.9108 106.923 21.9108C106.921 21.4691 106.92 21.0317 106.918 20.5972C106.767 20.5607 106.726 20.6599 106.671 20.724C106.292 21.1672 105.844 21.5186 105.308 21.7504C104.849 21.9487 104.364 22.0625 103.869 22.1222C103.172 22.2068 102.479 22.1922 101.793 22.0348C100.44 21.7242 99.3746 21.0069 98.6436 19.8084C98.1413 18.9861 97.8996 18.085 97.8064 17.1388C97.7015 16.073 97.7394 15.0101 98.0233 13.972C98.4572 12.3886 99.3585 11.1829 100.906 10.5312C101.554 10.2585 102.236 10.1331 102.94 10.1273C103.76 10.12 104.555 10.2366 105.315 10.5589C105.825 10.7746 106.257 11.0939 106.621 11.5095C106.672 11.5692 106.704 11.6698 106.854 11.6261ZM106.978 16.1561C106.931 15.7391 106.908 15.3163 106.834 14.9051C106.717 14.2636 106.47 13.6746 106.02 13.1862C105.395 12.5067 104.605 12.2166 103.699 12.2151C103.092 12.2137 102.514 12.3434 101.993 12.67C101.286 13.1118 100.886 13.7737 100.644 14.5479C100.491 15.0422 100.442 15.5525 100.435 16.0672C100.424 16.7597 100.5 17.4435 100.758 18.0952C101.046 18.8272 101.521 19.3958 102.233 19.753C102.926 20.1014 103.658 20.151 104.404 20.0111C105.372 19.8288 106.068 19.2718 106.499 18.3912C106.841 17.687 106.955 16.9347 106.978 16.1561Z" fill="black"/>
<path d="M60.1729 16.2029C60.1787 15.3047 60.2762 14.481 60.566 13.6864C61.0931 12.2429 62.0541 11.2092 63.4752 10.6158C64.5643 10.1609 65.7059 10.0472 66.8736 10.1259C67.839 10.1915 68.7621 10.4219 69.6125 10.8943C70.7584 11.5314 71.5388 12.482 71.9742 13.7155C72.2654 14.5407 72.3586 15.3966 72.3455 16.2685C72.3368 16.9144 72.2727 17.5515 72.0951 18.1741C71.5665 20.017 70.4031 21.2592 68.5729 21.8541C67.5376 22.1909 66.4747 22.2463 65.3957 22.1427C64.6502 22.0713 63.9353 21.8978 63.2553 21.58C61.9085 20.9486 61.0086 19.9164 60.5238 18.5167C60.2602 17.7483 60.1801 16.9508 60.1729 16.2029ZM62.8578 16.1956C62.8636 16.8313 62.9335 17.4917 63.1898 18.1172C63.5509 19.0008 64.1683 19.6219 65.0812 19.928C65.6811 20.1292 66.2956 20.1613 66.9159 20.0578C67.9409 19.8872 68.7083 19.3507 69.1859 18.419C69.4509 17.9014 69.5848 17.3488 69.6358 16.77C69.7042 15.9856 69.6693 15.21 69.4348 14.4533C69.1116 13.4122 68.4418 12.6949 67.4007 12.3465C66.9071 12.1817 66.396 12.1525 65.8806 12.2007C64.5789 12.3217 63.6732 12.9865 63.1854 14.2025C62.9335 14.8323 62.8593 15.4914 62.8578 16.1956Z" fill="black"/>
<path d="M84.2059 21.9123C83.3701 21.9123 82.5329 21.9123 81.6694 21.9123C81.6694 21.4822 81.6694 21.0652 81.6694 20.6599C81.5267 20.587 81.4845 20.6861 81.4233 20.7473C81.2457 20.9252 81.0783 21.1177 80.8846 21.2766C80.3692 21.698 79.7649 21.9283 79.1169 22.0523C78.172 22.233 77.227 22.2272 76.2951 21.9794C74.7575 21.5697 73.8402 20.5782 73.5752 19.005C73.514 18.6449 73.4849 18.2746 73.4835 17.9086C73.4762 15.4738 73.4791 13.0389 73.4791 10.6041C73.4791 10.537 73.4791 10.4685 73.4791 10.3854C74.3658 10.3854 75.2336 10.3854 76.132 10.3854C76.132 10.4772 76.132 10.5661 76.132 10.6565C76.132 12.9543 76.1291 15.2507 76.1364 17.5485C76.1379 17.8678 76.1655 18.1915 76.2281 18.5049C76.3679 19.2135 76.8062 19.6859 77.4891 19.8915C78.4035 20.1656 79.3077 20.1044 80.1639 19.6626C80.8773 19.2937 81.2705 18.6726 81.4627 17.9115C81.5646 17.5077 81.5748 17.0936 81.5748 16.6795C81.5748 14.6733 81.5748 12.6671 81.5748 10.6609C81.5748 10.572 81.5748 10.4816 81.5748 10.381C82.4659 10.381 83.3279 10.381 84.1898 10.381C84.2364 10.5384 84.2539 21.5624 84.2059 21.9123Z" fill="black"/>
<path d="M88.3828 21.9182C87.4902 21.9182 86.6355 21.9182 85.7823 21.9182C85.7342 21.7476 85.7167 10.7324 85.7648 10.384C86.6006 10.384 87.4378 10.384 88.3012 10.384C88.3012 10.8097 88.3012 11.2282 88.3012 11.632C88.4337 11.6976 88.4774 11.6145 88.5357 11.5562C88.7133 11.3769 88.8793 11.1844 89.073 11.0255C89.5869 10.6012 90.197 10.3738 90.8406 10.2498C91.8074 10.0632 92.7757 10.072 93.7309 10.3242C94.6773 10.575 95.4476 11.0794 95.9572 11.9367C96.279 12.4806 96.4377 13.0769 96.4945 13.7009C96.5251 14.0363 96.5367 14.3731 96.5367 14.7099C96.5396 17.015 96.5382 19.3186 96.5382 21.6237C96.5382 21.7141 96.5382 21.8059 96.5382 21.9124C95.6514 21.9124 94.7836 21.9124 93.8823 21.9124C93.8823 21.8191 93.8823 21.7301 93.8823 21.6412C93.8823 19.3361 93.8852 17.0324 93.8794 14.7274C93.8779 14.4387 93.8517 14.1456 93.8008 13.8613C93.6683 13.1236 93.2271 12.6278 92.5194 12.4091C91.5992 12.1263 90.6834 12.1831 89.8228 12.6322C89.0424 13.039 88.6201 13.7243 88.4701 14.5757C88.4104 14.9198 88.3886 15.2756 88.3872 15.6269C88.3799 17.6259 88.3828 19.6233 88.3828 21.6222C88.3828 21.7126 88.3828 21.803 88.3828 21.9182Z" fill="black"/>
<path d="M145.063 18.2877C145.894 18.2877 146.702 18.2877 147.5 18.2877C147.558 18.4991 147.599 18.7032 147.672 18.8942C147.829 19.3068 148.131 19.5926 148.521 19.788C149.173 20.1146 149.871 20.2181 150.591 20.2093C151.092 20.2035 151.587 20.1656 152.053 19.9702C152.221 19.9003 152.384 19.8069 152.528 19.6976C152.959 19.3725 153.122 18.8432 152.975 18.3242C152.892 18.034 152.711 17.8284 152.454 17.6826C152.042 17.4494 151.59 17.3371 151.127 17.2598C150.238 17.1082 149.345 16.9711 148.46 16.7991C147.774 16.665 147.114 16.4419 146.526 16.0468C145.733 15.5131 145.328 14.7594 145.28 13.8102C145.255 13.3072 145.312 12.8188 145.51 12.3493C145.747 11.788 146.134 11.3564 146.628 11.0123C147.25 10.5793 147.95 10.3475 148.69 10.2294C149.711 10.0661 150.734 10.0661 151.753 10.2337C152.762 10.3999 153.681 10.7644 154.422 11.5022C155.011 12.0883 155.324 12.8027 155.418 13.6192C155.426 13.679 155.421 13.7417 155.418 13.8029C155.417 13.8321 155.411 13.8612 155.405 13.905C154.593 13.905 153.786 13.905 152.975 13.905C152.95 13.7665 152.93 13.6396 152.904 13.5128C152.803 13.0316 152.524 12.6875 152.09 12.463C151.732 12.2778 151.347 12.1743 150.951 12.1262C150.309 12.0489 149.668 12.0562 149.035 12.2064C148.712 12.2837 148.42 12.4207 148.155 12.6307C147.665 13.0214 147.609 14.1295 148.387 14.4721C148.77 14.6398 149.163 14.7521 149.571 14.8206C150.401 14.9606 151.232 15.0859 152.059 15.2434C152.821 15.3877 153.56 15.6167 154.22 16.0395C155.012 16.5454 155.458 17.2657 155.533 18.2119C155.605 19.1129 155.398 19.9294 154.824 20.638C154.393 21.1687 153.828 21.5128 153.198 21.7577C152.528 22.0173 151.826 22.1324 151.113 22.1674C150.262 22.2097 149.414 22.1747 148.578 21.991C147.799 21.819 147.074 21.5245 146.437 21.0346C145.648 20.4266 145.179 19.6291 145.06 18.6347C145.051 18.5297 145.063 18.4218 145.063 18.2877Z" fill="black"/>
<path d="M140.721 10.3679C141.823 10.3679 142.886 10.3679 143.945 10.3679C143.997 10.5342 144.012 12.0694 143.965 12.4062C142.901 12.4062 141.832 12.4062 140.752 12.4062C140.741 12.4777 140.727 12.5287 140.727 12.5797C140.725 14.8528 140.725 17.1272 140.727 19.4002C140.727 19.6335 140.827 19.7327 141.06 19.7341C141.925 19.7356 142.79 19.7341 143.655 19.7341C143.738 19.7341 143.821 19.7341 143.92 19.7341C143.92 20.4675 143.92 21.1819 143.92 21.908C143.866 21.9153 143.822 21.9255 143.779 21.9255C142.808 21.9197 141.835 21.9226 140.864 21.9007C140.313 21.8876 139.792 21.7418 139.314 21.456C138.747 21.1163 138.388 20.622 138.208 19.9922C138.096 19.5985 138.068 19.1961 138.068 18.7879C138.07 16.7671 138.068 14.7463 138.068 12.7255C138.068 12.6351 138.068 12.5447 138.068 12.4266C137.208 12.3975 136.362 12.4339 135.507 12.4062C135.507 11.7239 135.507 11.062 135.507 10.3796C136.351 10.3796 137.19 10.3796 138.061 10.3796C138.078 9.3561 138.058 8.35154 138.072 7.3324C138.959 7.3324 139.827 7.3324 140.718 7.3324C140.721 8.34279 140.721 9.34152 140.721 10.3679Z" fill="black"/>
<path d="M129.764 21.8889C129.58 21.937 127.411 21.9473 127.124 21.9035C127.124 18.0704 127.124 14.233 127.124 10.3839C127.96 10.3839 128.788 10.3839 129.64 10.3839C129.64 10.8169 129.64 11.2426 129.64 11.6625C129.786 11.7486 129.847 11.6771 129.907 11.5721C130.172 11.0997 130.563 10.7702 131.058 10.5632C131.408 10.4174 131.779 10.3503 132.155 10.3416C132.819 10.327 133.484 10.3372 134.183 10.3372C134.19 11.056 134.184 11.7763 134.186 12.5213C134.077 12.5213 133.994 12.5213 133.912 12.5213C133.376 12.5242 132.841 12.5198 132.305 12.5315C131.912 12.5402 131.532 12.619 131.169 12.7779C130.534 13.0549 130.164 13.5565 129.966 14.2024C129.838 14.6208 129.77 15.0524 129.768 15.4912C129.765 17.5353 129.765 19.578 129.764 21.6221C129.764 21.7125 129.764 21.8029 129.764 21.8889Z" fill="black"/>
<g clip-path="url(#clip0_690_10962)">
<path d="M0.836111 31.4415H0.960015C1.01789 31.4415 1.06468 31.4006 1.06468 31.35V10.4165C1.06468 10.3659 1.01789 10.325 0.960015 10.325H0.836111C0.778235 10.325 0.731445 10.3659 0.731445 10.4165V31.35C0.731445 31.4006 0.778235 31.4415 0.836111 31.4415Z" fill="black"/>
<path d="M1.0229 29.9967H1.1055C1.14409 29.9967 1.17528 29.9553 1.17528 29.9042V8.75031C1.17528 8.69917 1.14409 8.65784 1.1055 8.65784H1.0229C0.984318 8.65784 0.953125 8.69917 0.953125 8.75031V29.9042C0.953125 29.9553 0.984318 29.9967 1.0229 29.9967Z" fill="black"/>
<path d="M2.73324 8.61549H2.63315C2.57636 8.61549 2.53027 8.66046 2.53027 8.71587V31.3412C2.53027 31.3966 2.57636 31.4416 2.63315 31.4416H2.74457C2.80136 31.4416 2.84745 31.3966 2.84745 31.3412V29.9736C2.84745 29.9182 2.89354 29.8732 2.95033 29.8732H3.05042C3.10721 29.8732 3.1533 29.8283 3.1533 29.7728V7.25016C3.1533 7.19475 3.10721 7.14978 3.05042 7.14978H2.939C2.88221 7.14978 2.83612 7.19475 2.83612 7.25016V8.51511C2.83612 8.57053 2.79004 8.61549 2.73324 8.61549Z" fill="black"/>
<path d="M28.8096 2.2537H28.9103C28.967 2.2537 29.013 2.20889 29.0129 2.15348V0.888069C29.0129 0.832656 29.0588 0.787842 29.1155 0.787842H29.2273C29.284 0.787842 29.3299 0.832808 29.3299 0.888069V23.4114C29.3299 23.4666 29.284 23.5114 29.2273 23.5114H29.1266H28.9215H28.8096C28.753 23.5114 28.707 23.4666 28.707 23.4114V2.35378C28.707 2.29852 28.753 2.2537 28.8096 2.2537Z" fill="black"/>
<path d="M28.9103 2.2537H28.8096C28.753 2.2537 28.707 2.29852 28.707 2.35378V24.9796C28.707 25.0348 28.753 25.0796 28.8096 25.0796H28.9215C28.9781 25.0796 29.0241 25.0348 29.0241 24.9796V23.6115C29.0241 23.5563 29.07 23.5114 29.1266 23.5114H29.2273C29.284 23.5114 29.3299 23.4666 29.3299 23.4114V0.888069C29.3299 0.832808 29.284 0.787842 29.2273 0.787842H29.1155C29.0588 0.787842 29.0129 0.832656 29.0129 0.888069V2.15348C29.013 2.20889 28.967 2.2537 28.9103 2.2537Z" fill="black"/>
<path d="M30.7028 2.2367H30.7926C30.8431 2.2367 30.8842 2.19177 30.884 2.13621V0.86746C30.884 0.811901 30.925 0.766968 30.9755 0.766968H31.0753C31.1258 0.766968 31.1667 0.812053 31.1667 0.86746V23.4503C31.1667 23.5057 31.1258 23.5506 31.0753 23.5506H30.9855H30.8025H30.7028C30.6523 23.5506 30.6113 23.5057 30.6113 23.4503V2.33704C30.6113 2.28164 30.6523 2.2367 30.7028 2.2367Z" fill="black"/>
<path d="M4.89807 7.14976H4.78666C4.72987 7.14976 4.68378 7.19473 4.68378 7.25014V8.5151C4.68378 8.57051 4.63769 8.61548 4.5809 8.61548H4.48081C4.42402 8.61548 4.37793 8.66044 4.37793 8.71585V31.3412C4.37793 31.3966 4.42402 31.4416 4.48081 31.4416H4.59223C4.64902 31.4416 4.69511 31.3966 4.69511 31.3412V29.9736C4.69511 29.9182 4.74119 29.8732 4.79799 29.8732H4.89807C4.95487 29.8732 5.00096 29.8282 5.00096 29.7728V28.34C5.00096 28.2846 5.04704 28.2396 5.10384 28.2396H5.21525C5.27205 28.2396 5.31813 28.1946 5.31813 28.1392V5.69132C5.31813 5.63591 5.27205 5.59094 5.21525 5.59094H5.10384C5.04704 5.59094 5.00096 5.63591 5.00096 5.69132V7.04923C5.00111 7.1048 4.95502 7.14976 4.89807 7.14976Z" fill="black"/>
<path d="M27.0783 2.34297H26.9678C26.9107 2.34297 26.8644 2.38809 26.8644 2.44381V3.70785C26.8644 3.76357 26.8182 3.80868 26.7611 3.80868H26.6619C26.6048 3.80868 26.5586 3.8538 26.5586 3.90952V26.5339C26.5586 26.5897 26.6048 26.6348 26.6619 26.6348H26.7724C26.8295 26.6348 26.8758 26.5897 26.8758 26.5339V25.1672C26.8758 25.1115 26.922 25.0664 26.9791 25.0664H27.0783C27.1354 25.0664 27.1816 25.0213 27.1816 24.9656V23.5335C27.1816 23.4778 27.2279 23.4326 27.285 23.4326H27.3954C27.4526 23.4326 27.4988 23.3875 27.4988 23.3318V0.885135C27.4988 0.829419 27.4526 0.784302 27.3954 0.784302H27.285C27.2279 0.784302 27.1816 0.829419 27.1816 0.885135V2.24214C27.1816 2.29786 27.1354 2.34297 27.0783 2.34297Z" fill="black"/>
<path d="M7.12834 5.61498H7.01692C6.96013 5.61498 6.91404 5.65995 6.91404 5.71536V7.07327C6.91404 7.12868 6.86795 7.17365 6.81116 7.17365H6.69975C6.64295 7.17365 6.59686 7.21862 6.59686 7.27403V8.53898C6.59686 8.5944 6.55078 8.63936 6.49398 8.63936H6.3939C6.3371 8.63936 6.29102 8.68433 6.29102 8.73974V31.3651C6.29102 31.4205 6.3371 31.4655 6.3939 31.4655H6.50531C6.56211 31.4655 6.60819 31.4205 6.60819 31.3651V29.9975C6.60819 29.9421 6.65428 29.8971 6.71107 29.8971H6.81116C6.86795 29.8971 6.91404 29.8521 6.91404 29.7967V28.3639C6.91404 28.3084 6.96013 28.2635 7.01692 28.2635H7.12834C7.18513 28.2635 7.23122 28.2185 7.23122 28.1631V26.8879C7.23122 26.8324 7.2773 26.7875 7.3341 26.7875H7.44551C7.50231 26.7875 7.54839 26.7425 7.54839 26.6871V4.09098C7.54839 4.03557 7.50231 3.9906 7.44551 3.9906H7.3341C7.2773 3.9906 7.23122 4.03557 7.23122 4.09098V5.5146C7.23122 5.57001 7.18513 5.61498 7.12834 5.61498Z" fill="black"/>
<path d="M25.1171 2.39135H25.0066C24.9495 2.39135 24.9033 2.43646 24.9033 2.49218V3.84919C24.9033 3.9049 24.8571 3.95002 24.8 3.95002H24.6895C24.6324 3.95002 24.5861 3.99514 24.5861 4.05085V5.3149C24.5861 5.37061 24.5399 5.41573 24.4828 5.41573H24.3836C24.3265 5.41573 24.2803 5.46085 24.2803 5.51656V28.141C24.2803 28.1967 24.3265 28.2418 24.3836 28.2418H24.4941C24.5512 28.2418 24.5975 28.1967 24.5975 28.141V26.7743C24.5975 26.7186 24.6437 26.6735 24.7008 26.6735H24.8C24.8571 26.6735 24.9033 26.6283 24.9033 26.5726V25.1405C24.9033 25.0848 24.9495 25.0397 25.0066 25.0397H25.1171C25.1742 25.0397 25.2205 24.9946 25.2205 24.9389V23.6645C25.2205 23.6088 25.2667 23.5637 25.3238 23.5637H25.4343C25.4914 23.5637 25.5377 23.5186 25.5377 23.4629V0.867801C25.5377 0.812085 25.4914 0.766968 25.4343 0.766968H25.3238C25.2667 0.766968 25.2205 0.812085 25.2205 0.867801V2.29051C25.2206 2.34623 25.1742 2.39135 25.1171 2.39135Z" fill="black"/>
<path d="M9.43868 3.99063H9.32726C9.27047 3.99063 9.22438 4.0356 9.22438 4.09101V5.51463C9.22438 5.57005 9.1783 5.61501 9.1215 5.61501H9.01009C8.95329 5.61501 8.90721 5.65998 8.90721 5.71539V7.07331C8.90721 7.12872 8.86112 7.17368 8.80432 7.17368H8.69291C8.63612 7.17368 8.59003 7.21865 8.59003 7.27406V8.53902C8.59003 8.59443 8.54394 8.6394 8.48715 8.6394H8.38706C8.33027 8.6394 8.28418 8.68436 8.28418 8.73977V31.3651C8.28418 31.4205 8.33027 31.4655 8.38706 31.4655H8.49848C8.55527 31.4655 8.60136 31.4205 8.60136 31.3651V29.9975C8.60136 29.9421 8.64744 29.8971 8.70424 29.8971H8.80432C8.86112 29.8971 8.90721 29.8522 8.90721 29.7967V28.3639C8.90721 28.3085 8.95329 28.2635 9.01009 28.2635H9.1215C9.1783 28.2635 9.22438 28.2185 9.22438 28.1631V26.8879C9.22438 26.8325 9.27047 26.7875 9.32726 26.7875H9.43868C9.49547 26.7875 9.54156 26.7425 9.54156 26.6871V25.2417C9.54156 25.1863 9.58765 25.1413 9.64444 25.1413H9.75585C9.81265 25.1413 9.85874 25.0964 9.85874 25.0409V2.53446C9.85874 2.47905 9.81265 2.43408 9.75585 2.43408H9.64444C9.58765 2.43408 9.54156 2.47905 9.54156 2.53446V3.89025C9.54156 3.94567 9.49547 3.99063 9.43868 3.99063Z" fill="black"/>
<path d="M23.1017 2.323H23.0018C22.9502 2.323 22.9084 2.3681 22.9084 2.4238V3.84603C22.9084 3.90173 22.8666 3.94683 22.815 3.94683H22.7152C22.6635 3.94683 22.6217 3.99194 22.6217 4.04763V5.40418C22.6217 5.45988 22.5799 5.50498 22.5283 5.50498H22.4285C22.3768 5.50498 22.335 5.55009 22.335 5.60578V6.8694C22.335 6.9251 22.2932 6.9702 22.2416 6.9702H22.152C22.1004 6.9702 22.0586 7.01531 22.0586 7.071V29.688C22.0586 29.7437 22.1004 29.7888 22.152 29.7888H22.2519C22.3035 29.7888 22.3453 29.7437 22.3453 29.688V28.3218C22.3453 28.2661 22.3871 28.221 22.4387 28.221H22.5283C22.5799 28.221 22.6217 28.1759 22.6217 28.1202V26.6886C22.6217 26.6329 22.6635 26.5878 22.7152 26.5878H22.815C22.8666 26.5878 22.9084 26.5427 22.9084 26.487V25.213C22.9084 25.1573 22.9502 25.1122 23.0018 25.1122H23.1017C23.1533 25.1122 23.1951 25.0671 23.1951 25.0114V23.5674C23.1951 23.5117 23.2369 23.4666 23.2885 23.4666H23.3884C23.44 23.4666 23.4818 23.4215 23.4818 23.3658V0.867767C23.4818 0.81207 23.44 0.766968 23.3884 0.766968H23.2885C23.2369 0.766968 23.1951 0.81207 23.1951 0.867767V2.2222C23.1951 2.2779 23.1533 2.323 23.1017 2.323Z" fill="black"/>
<path d="M11.8318 2.39002H11.7637C11.7126 2.39002 11.6711 2.43426 11.6711 2.4888V3.849C11.6711 3.90354 11.6297 3.94778 11.5786 3.94778H11.4978C11.4467 3.94778 11.4053 3.99202 11.4053 4.04656V5.47448C11.4053 5.52902 11.3639 5.57326 11.3128 5.57326H11.232C11.1809 5.57326 11.1395 5.6175 11.1395 5.67204V7.03435C11.1395 7.08889 11.098 7.13313 11.0469 7.13313H10.9662C10.9151 7.13313 10.8736 7.17737 10.8736 7.23191V8.50121C10.8736 8.55575 10.8322 8.59999 10.7811 8.59999H10.7097C10.6586 8.59999 10.6172 8.64423 10.6172 8.69877V31.3427C10.6172 31.3973 10.6586 31.4415 10.7097 31.4415H10.7905C10.8416 31.4415 10.883 31.3973 10.883 31.3427V29.9707C10.883 29.9162 10.9245 29.872 10.9755 29.872H11.0469C11.098 29.872 11.1395 29.8277 11.1395 29.7732V28.3359C11.1395 28.2813 11.1809 28.2371 11.232 28.2371H11.3128C11.3639 28.2371 11.4053 28.1928 11.4053 28.1383V26.8587C11.4053 26.8042 11.4467 26.7599 11.4978 26.7599H11.5786C11.6297 26.7599 11.6711 26.7157 11.6711 26.6611V25.2113C11.6711 25.1567 11.7126 25.1125 11.7637 25.1125H11.8444C11.8955 25.1125 11.937 25.0682 11.937 25.0137V23.5214C11.937 23.4669 11.9784 23.4226 12.0295 23.4226H12.0834C12.1345 23.4226 12.176 23.3784 12.176 23.3238V0.865748C12.176 0.811207 12.1345 0.766968 12.0834 0.766968H12.0169C11.9658 0.766968 11.9243 0.811207 11.9243 0.865748V2.29124C11.9243 2.34578 11.8829 2.39002 11.8318 2.39002Z" fill="black"/>
<path d="M14.1538 2.39002H14.0863C14.0357 2.39002 13.9946 2.43426 13.9946 2.4888V3.849C13.9946 3.90354 13.9536 3.94778 13.9029 3.94778H13.8229C13.7723 3.94778 13.7312 3.99202 13.7312 4.04656V5.47448C13.7312 5.52902 13.6901 5.57326 13.6395 5.57326H13.5595C13.5088 5.57326 13.4678 5.6175 13.4678 5.67204V7.03435C13.4678 7.08889 13.4267 7.13313 13.3761 7.13313H13.296C13.2454 7.13313 13.2043 7.17737 13.2043 7.23191V8.50121C13.2043 8.55575 13.1633 8.59999 13.1126 8.59999H13.0419C12.9913 8.59999 12.9502 8.64423 12.9502 8.69877V31.3427C12.9502 31.3973 12.9913 31.4415 13.0419 31.4415H13.1219C13.1726 31.4415 13.2136 31.3973 13.2136 31.3427V29.9707C13.2136 29.9162 13.2547 29.872 13.3053 29.872H13.3761C13.4267 29.872 13.4678 29.8277 13.4678 29.7732V28.3359C13.4678 28.2813 13.5088 28.2371 13.5595 28.2371H13.6395C13.6901 28.2371 13.7312 28.1928 13.7312 28.1383V26.8587C13.7312 26.8042 13.7723 26.7599 13.8229 26.7599H13.9029C13.9536 26.7599 13.9946 26.7157 13.9946 26.6611V25.2113C13.9946 25.1567 14.0357 25.1125 14.0863 25.1125H14.1664C14.217 25.1125 14.2581 25.0682 14.2581 25.0137V23.5214C14.2581 23.4669 14.2991 23.4226 14.3498 23.4226H14.4173C14.4679 23.4226 14.509 23.3784 14.509 23.3238V0.865748C14.509 0.811207 14.4679 0.766968 14.4173 0.766968H14.3372C14.2866 0.766968 14.2455 0.811207 14.2455 0.865748V2.29124C14.2455 2.34578 14.2045 2.39002 14.1538 2.39002Z" fill="black"/>
<path d="M16.3754 2.39002H16.3255C16.2762 2.39002 16.2362 2.43426 16.2362 2.4888V3.849C16.2362 3.90354 16.1963 3.94778 16.147 3.94778H16.0849C16.0356 3.94778 15.9956 3.99202 15.9956 4.04656V5.47448C15.9956 5.52902 15.9557 5.57326 15.9064 5.57326H15.8442C15.795 5.57326 15.755 5.6175 15.755 5.67204V7.03435C15.755 7.08889 15.715 7.13313 15.6658 7.13313H15.6036C15.5543 7.13313 15.5144 7.17737 15.5144 7.23191V8.50121C15.5144 8.55575 15.4744 8.59999 15.4251 8.59999H15.3715C15.3222 8.59999 15.2822 8.64423 15.2822 8.69877V31.3427C15.2822 31.3973 15.3222 31.4415 15.3715 31.4415H15.4336C15.4829 31.4415 15.5229 31.3973 15.5229 31.3427V29.9707C15.5229 29.9162 15.5628 29.872 15.6121 29.872H15.6658C15.715 29.872 15.755 29.8277 15.755 29.7732V28.3359C15.755 28.2813 15.795 28.2371 15.8442 28.2371H15.9064C15.9557 28.2371 15.9956 28.1928 15.9956 28.1383V26.8587C15.9956 26.8042 16.0356 26.7599 16.0849 26.7599H16.1471C16.1964 26.7599 16.2364 26.7157 16.2364 26.6611V25.2113C16.2364 25.1567 16.2764 25.1125 16.3256 25.1125H16.3878C16.437 25.1125 16.477 25.0682 16.477 25.0137V23.5214C16.477 23.4669 16.517 23.4226 16.5663 23.4226H16.6162C16.6655 23.4226 16.7055 23.3784 16.7055 23.3238V0.865748C16.7055 0.811207 16.6655 0.766968 16.6162 0.766968H16.5541C16.5048 0.766968 16.4648 0.811207 16.4648 0.865748V2.29124C16.4647 2.34578 16.4247 2.39002 16.3754 2.39002Z" fill="black"/>
<path d="M18.6482 2.39005H18.6C18.5472 2.39005 18.5045 2.43519 18.5045 2.49095V3.84677C18.5045 3.90253 18.4617 3.94767 18.4089 3.94767H18.3478C18.2951 3.94767 18.2523 3.99282 18.2523 4.04858V5.47227C18.2523 5.52803 18.2096 5.57318 18.1568 5.57318H18.0957C18.0429 5.57318 18.0002 5.61832 18.0002 5.67408V7.03202C18.0002 7.08778 17.9574 7.13293 17.9046 7.13293H17.8435C17.7907 7.13293 17.748 7.17807 17.748 7.23383V8.49875C17.748 8.5545 17.7053 8.59965 17.6525 8.59965H17.6004C17.5476 8.59965 17.5049 8.6448 17.5049 8.70055V31.3406C17.5049 31.3964 17.5476 31.4415 17.6004 31.4415H17.6615C17.7143 31.4415 17.757 31.3964 17.757 31.3406V29.973C17.757 29.9172 17.7998 29.8721 17.8526 29.8721H17.9046C17.9574 29.8721 18.0002 29.8269 18.0002 29.7712V28.3381C18.0002 28.2823 18.0429 28.2372 18.0957 28.2372H18.1568C18.2096 28.2372 18.2523 28.192 18.2523 28.1363V26.8611C18.2523 26.8053 18.2951 26.7602 18.3478 26.7602H18.4089C18.4617 26.7602 18.5045 26.715 18.5045 26.6593V25.2137C18.5045 25.158 18.5472 25.1128 18.6 25.1128H18.6611C18.7139 25.1128 18.7566 25.0677 18.7566 25.0119V23.5238C18.7566 23.4681 18.7994 23.4229 18.8522 23.4229H18.9004C18.9531 23.4229 18.9959 23.3778 18.9959 23.322V0.86787C18.9959 0.812116 18.9531 0.766968 18.9004 0.766968H18.8393C18.7865 0.766968 18.7437 0.812116 18.7437 0.86787V2.28899C18.7437 2.34475 18.701 2.39005 18.6482 2.39005Z" fill="black"/>
<path d="M20.9283 2.39005H20.8823C20.8319 2.39005 20.7911 2.43519 20.7911 2.49095V3.84677C20.7911 3.90253 20.7503 3.94767 20.6999 3.94767H20.6416C20.5912 3.94767 20.5504 3.99282 20.5504 4.04858V5.47227C20.5504 5.52803 20.5096 5.57318 20.4592 5.57318H20.4009C20.3505 5.57318 20.3097 5.61832 20.3097 5.67408V7.03202C20.3097 7.08778 20.2689 7.13293 20.2185 7.13293H20.1602C20.1098 7.13293 20.069 7.17807 20.069 7.23383V8.49875C20.069 8.5545 20.0282 8.59965 19.9778 8.59965H19.9281C19.8777 8.59965 19.8369 8.6448 19.8369 8.70055V31.3406C19.8369 31.3964 19.8777 31.4415 19.9281 31.4415H19.9864C20.0368 31.4415 20.0776 31.3964 20.0776 31.3406V29.973C20.0776 29.9172 20.1184 29.8721 20.1688 29.8721H20.2185C20.2689 29.8721 20.3097 29.8269 20.3097 29.7712V28.3381C20.3097 28.2823 20.3505 28.2372 20.4009 28.2372H20.4592C20.5096 28.2372 20.5504 28.192 20.5504 28.1363V26.8611C20.5504 26.8053 20.5912 26.7602 20.6416 26.7602H20.6999C20.7503 26.7602 20.7911 26.715 20.7911 26.6593V25.2137C20.7911 25.158 20.8319 25.1128 20.8823 25.1128H20.9406C20.991 25.1128 21.0318 25.0677 21.0318 25.0119V23.5238C21.0318 23.4681 21.0726 23.4229 21.1229 23.4229H21.169C21.2193 23.4229 21.2601 23.3778 21.2601 23.322V0.86787C21.2601 0.812116 21.2193 0.766968 21.169 0.766968H21.1106C21.0602 0.766968 21.0194 0.812116 21.0194 0.86787V2.28899C21.0194 2.34475 20.9786 2.39005 20.9283 2.39005Z" fill="black"/>
</g>
<defs>
<clipPath id="clip0_690_10962">
<rect width="30.7688" height="31.4525" fill="white" transform="translate(0.509766 0.433594)"/>
</clipPath>
</defs>
</svg>
