<svg width="233" height="47" viewBox="0 0 233 47" fill="none" xmlns="http://www.w3.org/2000/svg">
<path d="M66.8395 24.1945C68.0853 24.1945 69.3119 24.1945 70.5641 24.1945C70.5939 24.3331 70.6279 24.4717 70.6492 24.6103C70.9601 26.5209 72.0654 27.7683 73.8755 28.3696C75.8197 29.0157 77.7895 29.0242 79.7508 28.4208C80.2022 28.2822 80.6154 28.0604 80.9987 27.7811C81.957 27.0859 82.3083 26.12 82.2679 24.9728C82.2295 23.9173 81.7738 23.1027 80.8517 22.576C80.543 22.399 80.2129 22.2519 79.8807 22.1261C79.0395 21.8062 78.1558 21.6676 77.2742 21.5077C75.9539 21.2689 74.6293 21.0492 73.3196 20.7614C72.1591 20.5055 71.0496 20.0769 70.0402 19.4287C68.4665 18.4158 67.6211 16.9594 67.4486 15.1021C67.3613 14.1575 67.4081 13.2214 67.7105 12.3151C68.1854 10.8907 69.1139 9.8416 70.3916 9.08035C71.616 8.35108 72.9576 7.98645 74.3567 7.81373C75.7175 7.64741 77.0825 7.64741 78.4433 7.80307C79.8785 7.96726 81.2542 8.33189 82.517 9.06116C84.408 10.1551 85.5409 11.7735 85.9115 13.9251C85.9903 14.3856 86.0456 14.8505 86.0094 15.3452C84.753 15.3452 83.5179 15.3452 82.2593 15.3452C82.2274 15.1106 82.1997 14.8803 82.1678 14.6522C81.9101 12.8759 80.8539 11.7906 79.1907 11.2468C78.0812 10.8843 76.9356 10.8012 75.775 10.8715C74.8955 10.9248 74.0437 11.0848 73.2366 11.4473C72.6233 11.7223 72.0867 12.0976 71.731 12.6862C70.8579 14.1319 71.3222 15.9124 72.7915 16.7504C73.4091 17.1044 74.0799 17.3283 74.7698 17.469C75.8878 17.6951 77.0122 17.8912 78.1345 18.081C79.6486 18.339 81.1435 18.661 82.5553 19.2901C83.5946 19.7528 84.4975 20.3925 85.1747 21.3243C85.6857 22.028 85.9796 22.8212 86.1052 23.6742C86.2501 24.6657 86.2373 25.6573 86.0115 26.6424C85.6964 28.0156 84.9787 29.1351 83.8927 30.0179C82.8556 30.8602 81.6524 31.3592 80.3598 31.6492C78.7861 32.001 77.1932 32.0607 75.5876 31.9456C74.3184 31.856 73.079 31.6278 71.8907 31.1758C70.3064 30.5745 68.952 29.6576 67.9895 28.231C67.2314 27.1094 66.8651 25.8577 66.8225 24.5058C66.8204 24.4098 66.8331 24.3117 66.8395 24.1945Z" fill="white"/>
<path d="M168.098 25.4952C167.402 27.5359 166.709 29.5659 166.011 31.6108C164.691 31.6108 163.387 31.6108 162.076 31.6108C162.022 31.3485 162.048 31.1139 162.133 30.8751C164.222 25.0986 166.307 19.322 168.394 13.5455C169.014 11.8311 169.633 10.1167 170.253 8.40012C170.291 8.29563 170.334 8.19541 170.379 8.0824C172.089 8.0824 173.786 8.0824 175.5 8.0824C175.543 8.18902 175.587 8.28924 175.624 8.39372C178.328 15.8847 181.033 23.3778 183.741 30.8687C183.829 31.1075 183.852 31.3421 183.807 31.63C183.692 31.63 183.582 31.63 183.473 31.63C182.353 31.63 181.233 31.63 180.115 31.63C179.778 31.63 179.778 31.6278 179.67 31.3144C179.044 29.4827 178.418 27.651 177.794 25.8214C177.757 25.717 177.721 25.6125 177.679 25.4952C174.495 25.4952 171.318 25.4952 168.098 25.4952ZM176.512 22.0664C175.351 18.6717 174.207 15.3217 173.062 11.9718C172.926 11.9718 172.819 11.9718 172.693 11.9718C171.55 15.3324 170.408 18.6802 169.256 22.0664C171.688 22.0664 174.075 22.0664 176.512 22.0664Z" fill="white"/>
<path d="M156.03 16.5648C156.03 13.7437 156.03 10.9269 156.03 8.08875C157.32 8.08875 158.581 8.08875 159.865 8.08875C159.865 15.9209 159.865 23.7509 159.865 31.6065C158.63 31.6065 157.403 31.6065 156.13 31.6065C156.128 30.9604 156.126 30.3207 156.123 29.6852C155.902 29.6319 155.842 29.7769 155.761 29.8707C155.208 30.519 154.552 31.0329 153.768 31.3719C153.097 31.6619 152.388 31.8282 151.664 31.9157C150.644 32.0393 149.631 32.018 148.628 31.7877C146.649 31.3335 145.09 30.2844 144.021 28.5316C143.287 27.329 142.933 26.0112 142.797 24.6273C142.644 23.0685 142.699 21.514 143.114 19.9958C143.749 17.6801 145.067 15.9166 147.331 14.9635C148.278 14.5647 149.275 14.3813 150.306 14.3728C151.505 14.3621 152.667 14.5327 153.779 15.004C154.524 15.3196 155.157 15.7865 155.689 16.3943C155.764 16.4817 155.81 16.6288 156.03 16.5648ZM156.211 23.1901C156.143 22.5802 156.109 21.9618 156 21.3605C155.83 20.4223 155.468 19.5608 154.81 18.8465C153.896 17.8528 152.74 17.4285 151.415 17.4263C150.527 17.4242 149.682 17.614 148.919 18.0916C147.886 18.7377 147.301 19.7058 146.947 20.8381C146.724 21.561 146.651 22.3073 146.641 23.06C146.626 24.0729 146.737 25.0729 147.113 26.0261C147.535 27.0965 148.229 27.9282 149.271 28.4506C150.284 28.9602 151.355 29.0327 152.446 28.828C153.862 28.5615 154.88 27.7469 155.51 26.459C156.011 25.429 156.177 24.3287 156.211 23.1901Z" fill="white"/>
<path d="M87.7578 23.2583C87.7663 21.9448 87.909 20.74 88.3328 19.5779C89.1037 17.4669 90.5091 15.955 92.5876 15.0872C94.1804 14.4219 95.85 14.2555 97.5578 14.3707C98.9697 14.4667 100.32 14.8036 101.563 15.4944C103.239 16.4263 104.381 17.8166 105.018 19.6205C105.443 20.8275 105.58 22.0792 105.561 23.3543C105.548 24.2989 105.454 25.2308 105.194 26.1413C104.421 28.8366 102.72 30.6533 100.043 31.5233C98.5289 32.0159 96.9744 32.0969 95.3964 31.9455C94.3061 31.8411 93.2605 31.5873 92.266 31.1225C90.2962 30.1992 88.9802 28.6894 88.271 26.6424C87.8856 25.5186 87.7685 24.3522 87.7578 23.2583ZM91.6846 23.2477C91.6932 24.1774 91.7954 25.1433 92.1702 26.0581C92.6983 27.3503 93.6012 28.2587 94.9364 28.7065C95.8138 29.0008 96.7124 29.0477 97.6196 28.8963C99.1188 28.6468 100.241 27.8621 100.94 26.4995C101.327 25.7425 101.523 24.9344 101.598 24.0878C101.698 22.9406 101.647 21.8062 101.304 20.6995C100.831 19.177 99.8513 18.1279 98.3287 17.6183C97.6068 17.3773 96.8594 17.3347 96.1055 17.405C94.2017 17.582 92.8772 18.5544 92.1638 20.3328C91.7954 21.2539 91.6868 22.2178 91.6846 23.2477Z" fill="white"/>
<path d="M122.906 31.6087C121.683 31.6087 120.459 31.6087 119.196 31.6087C119.196 30.9796 119.196 30.3698 119.196 29.777C118.987 29.6704 118.926 29.8154 118.836 29.9049C118.576 30.1651 118.332 30.4465 118.048 30.679C117.295 31.2952 116.411 31.6321 115.463 31.8134C114.081 32.0778 112.699 32.0693 111.336 31.7068C109.087 31.1076 107.746 29.6576 107.358 27.3568C107.269 26.8301 107.226 26.2885 107.224 25.7532C107.213 22.1922 107.218 18.6312 107.218 15.0701C107.218 14.9721 107.218 14.8718 107.218 14.7503C108.515 14.7503 109.784 14.7503 111.098 14.7503C111.098 14.8846 111.098 15.0147 111.098 15.1469C111.098 18.5075 111.093 21.866 111.104 25.2265C111.106 25.6935 111.147 26.1669 111.238 26.6254C111.443 27.6617 112.084 28.3526 113.082 28.6532C114.42 29.0541 115.742 28.9646 116.994 28.3185C118.038 27.779 118.613 26.8706 118.894 25.7575C119.043 25.1668 119.058 24.5612 119.058 23.9557C119.058 21.0215 119.058 18.0874 119.058 15.1533C119.058 15.0232 119.058 14.891 119.058 14.7439C120.361 14.7439 121.622 14.7439 122.882 14.7439C122.95 14.9742 122.976 31.0969 122.906 31.6087Z" fill="white"/>
<path d="M129.015 31.6172C127.71 31.6172 126.46 31.6172 125.212 31.6172C125.141 31.3677 125.116 15.2578 125.186 14.7482C126.409 14.7482 127.633 14.7482 128.896 14.7482C128.896 15.3708 128.896 15.9828 128.896 16.5735C129.09 16.6694 129.153 16.5479 129.239 16.4626C129.498 16.2003 129.741 15.9188 130.024 15.6864C130.776 15.0659 131.668 14.7333 132.61 14.552C134.024 14.2791 135.44 14.2919 136.837 14.6608C138.221 15.0275 139.347 15.7653 140.093 17.0191C140.563 17.8145 140.796 18.6866 140.879 19.5993C140.923 20.0897 140.94 20.5823 140.94 21.0749C140.945 24.4461 140.942 27.8152 140.942 31.1865C140.942 31.3187 140.942 31.453 140.942 31.6087C139.646 31.6087 138.376 31.6087 137.058 31.6087C137.058 31.4722 137.058 31.3422 137.058 31.2121C137.058 27.8408 137.062 24.4717 137.054 21.1005C137.052 20.6783 137.013 20.2497 136.939 19.8338C136.745 18.7549 136.1 18.0299 135.065 17.71C133.719 17.2963 132.38 17.3795 131.121 18.0363C129.98 18.6312 129.362 19.6334 129.143 20.8787C129.055 21.3819 129.024 21.9022 129.021 22.4161C129.011 25.3396 129.015 28.2609 129.015 31.1844C129.015 31.3166 129.015 31.4488 129.015 31.6172Z" fill="white"/>
<path d="M211.91 26.3077C213.126 26.3077 214.308 26.3077 215.475 26.3077C215.56 26.6169 215.62 26.9154 215.726 27.1948C215.956 27.7982 216.397 28.2162 216.968 28.5019C217.922 28.9796 218.942 29.1309 219.996 29.1182C220.729 29.1096 221.453 29.0542 222.134 28.7684C222.379 28.6661 222.618 28.5296 222.828 28.3697C223.459 27.8942 223.697 27.1201 223.482 26.361C223.361 25.9367 223.097 25.636 222.72 25.4228C222.117 25.0816 221.457 24.9174 220.78 24.8044C219.479 24.5826 218.173 24.3822 216.879 24.1306C215.876 23.9344 214.911 23.6082 214.051 23.0303C212.89 22.2498 212.298 21.1474 212.228 19.7593C212.191 19.0236 212.275 18.3093 212.564 17.6226C212.911 16.8017 213.478 16.1705 214.2 15.6673C215.109 15.034 216.133 14.6949 217.215 14.5222C218.708 14.2834 220.205 14.2834 221.695 14.5286C223.171 14.7717 224.515 15.3048 225.599 16.3837C226.459 17.2409 226.917 18.2858 227.055 19.4799C227.066 19.5673 227.06 19.659 227.055 19.7486C227.053 19.7912 227.045 19.8339 227.036 19.8979C225.848 19.8979 224.668 19.8979 223.482 19.8979C223.446 19.6953 223.416 19.5098 223.378 19.3243C223.231 18.6206 222.822 18.1173 222.187 17.789C221.664 17.5182 221.101 17.3668 220.522 17.2964C219.583 17.1834 218.646 17.194 217.72 17.4137C217.247 17.5267 216.821 17.7271 216.433 18.0342C215.716 18.6057 215.635 20.2262 216.772 20.7273C217.332 20.9726 217.907 21.1368 218.503 21.237C219.717 21.4417 220.933 21.6251 222.143 21.8554C223.256 22.0665 224.338 22.4012 225.303 23.0196C226.461 23.7596 227.113 24.8129 227.224 26.1968C227.328 27.5146 227.026 28.7087 226.187 29.7451C225.556 30.5212 224.73 31.0245 223.808 31.3827C222.828 31.7623 221.802 31.9307 220.759 31.9819C219.515 32.0437 218.273 31.9926 217.051 31.7239C215.912 31.4723 214.851 31.0415 213.921 30.3251C212.766 29.4359 212.081 28.2695 211.906 26.8152C211.893 26.6617 211.91 26.5039 211.91 26.3077Z" fill="white"/>
<path d="M205.56 14.7247C207.172 14.7247 208.727 14.7247 210.275 14.7247C210.352 14.9678 210.373 17.2132 210.305 17.7057C208.748 17.7057 207.185 17.7057 205.605 17.7057C205.59 17.8102 205.569 17.8849 205.569 17.9595C205.567 21.2838 205.567 24.6103 205.569 27.9346C205.569 28.2758 205.716 28.4208 206.057 28.423C207.321 28.4251 208.586 28.423 209.851 28.423C209.973 28.423 210.094 28.423 210.239 28.423C210.239 29.4955 210.239 30.5404 210.239 31.6023C210.16 31.613 210.096 31.6279 210.032 31.6279C208.612 31.6193 207.189 31.6236 205.769 31.5916C204.964 31.5724 204.202 31.3592 203.503 30.9413C202.673 30.4444 202.149 29.7216 201.885 28.8004C201.721 28.2246 201.68 27.6361 201.68 27.0391C201.683 24.0836 201.68 21.1282 201.68 18.1727C201.68 18.0405 201.68 17.9083 201.68 17.7356C200.422 17.693 199.185 17.7463 197.935 17.7057C197.935 16.7078 197.935 15.7397 197.935 14.7418C199.17 14.7418 200.396 14.7418 201.67 14.7418C201.695 13.2449 201.665 11.7757 201.687 10.2852C202.984 10.2852 204.253 10.2852 205.556 10.2852C205.56 11.7629 205.56 13.2235 205.56 14.7247Z" fill="white"/>
<path d="M189.536 31.5745C189.267 31.6449 186.094 31.6598 185.675 31.5958C185.675 25.9899 185.675 20.3775 185.675 14.7481C186.897 14.7481 188.109 14.7481 189.355 14.7481C189.355 15.3814 189.355 16.0041 189.355 16.6182C189.568 16.744 189.657 16.6395 189.744 16.486C190.132 15.7951 190.705 15.3132 191.429 15.0104C191.94 14.7972 192.483 14.6991 193.032 14.6863C194.003 14.665 194.977 14.6799 195.999 14.6799C196.009 15.7311 196.001 16.7845 196.003 17.8741C195.843 17.8741 195.722 17.8741 195.603 17.8741C194.819 17.8784 194.035 17.872 193.252 17.8891C192.677 17.9019 192.121 18.017 191.591 18.2494C190.662 18.6546 190.121 19.3881 189.832 20.3328C189.644 20.9447 189.544 21.5759 189.542 22.2178C189.538 25.2073 189.538 28.1947 189.536 31.1843C189.536 31.3165 189.536 31.4487 189.536 31.5745Z" fill="white"/>
<g clip-path="url(#clip0_589_33639)">
<path d="M0.977295 45.5451H1.15851C1.24315 45.5451 1.31158 45.4853 1.31158 45.4113V14.7956C1.31158 14.7216 1.24315 14.6617 1.15851 14.6617H0.977295C0.89265 14.6617 0.824219 14.7216 0.824219 14.7956V45.4113C0.824219 45.4853 0.89265 45.5451 0.977295 45.5451Z" fill="white"/>
<path d="M1.25146 43.4321H1.37227C1.4287 43.4321 1.47432 43.3717 1.47432 43.2969V12.3589C1.47432 12.2841 1.4287 12.2236 1.37227 12.2236H1.25146C1.19503 12.2236 1.14941 12.2841 1.14941 12.3589V43.2969C1.14941 43.3717 1.19503 43.4321 1.25146 43.4321Z" fill="white"/>
<path d="M3.75095 12.1616H3.60457C3.5215 12.1616 3.4541 12.2273 3.4541 12.3084V45.3984C3.4541 45.4795 3.5215 45.5452 3.60457 45.5452H3.76751C3.85058 45.5452 3.91798 45.4795 3.91798 45.3984V43.3983C3.91798 43.3172 3.98538 43.2515 4.06844 43.2515H4.21482C4.29789 43.2515 4.36529 43.1857 4.36529 43.1046V10.1648C4.36529 10.0837 4.29789 10.0179 4.21482 10.0179H4.05188C3.96882 10.0179 3.90141 10.0837 3.90141 10.1648V12.0148C3.90141 12.0958 3.83401 12.1616 3.75095 12.1616Z" fill="white"/>
<path d="M41.8893 2.85748H42.0366C42.1194 2.85748 42.1868 2.79194 42.1866 2.71089V0.860208C42.1866 0.779165 42.2537 0.713623 42.3366 0.713623H42.5002C42.583 0.713623 42.6502 0.779387 42.6502 0.860208V33.801C42.6502 33.8818 42.583 33.9474 42.5002 33.9474H42.3529H42.0529H41.8893C41.8064 33.9474 41.7393 33.8818 41.7393 33.801V3.00384C41.7393 2.92302 41.8064 2.85748 41.8893 2.85748Z" fill="white"/>
<path d="M42.0366 2.85748H41.8893C41.8064 2.85748 41.7393 2.92302 41.7393 3.00384V36.0945C41.7393 36.1754 41.8064 36.2409 41.8893 36.2409H42.0529C42.1357 36.2409 42.2029 36.1754 42.2029 36.0945V34.0937C42.2029 34.0129 42.2701 33.9474 42.3529 33.9474H42.5002C42.583 33.9474 42.6502 33.8818 42.6502 33.801V0.860208C42.6502 0.779387 42.583 0.713623 42.5002 0.713623H42.3366C42.2537 0.713623 42.1866 0.779165 42.1866 0.860208V2.71089C42.1868 2.79194 42.1194 2.85748 42.0366 2.85748Z" fill="white"/>
<path d="M44.6582 2.8325H44.7895C44.8634 2.8325 44.9235 2.76679 44.9233 2.68553V0.829955C44.9233 0.748699 44.9832 0.682983 45.057 0.682983H45.2029C45.2768 0.682983 45.3367 0.748921 45.3367 0.829955V33.8578C45.3367 33.9388 45.2768 34.0045 45.2029 34.0045H45.0716H44.8041H44.6582C44.5843 34.0045 44.5244 33.9388 44.5244 33.8578V2.97925C44.5244 2.89822 44.5843 2.8325 44.6582 2.8325Z" fill="white"/>
<path d="M6.91795 10.0178H6.755C6.67194 10.0178 6.60454 10.0836 6.60454 10.1647V12.0147C6.60454 12.0957 6.53713 12.1615 6.45407 12.1615H6.30769C6.22463 12.1615 6.15723 12.2272 6.15723 12.3083V45.3983C6.15723 45.4794 6.22463 45.5451 6.30769 45.5451H6.47064C6.5537 45.5451 6.6211 45.4794 6.6211 45.3983V43.3982C6.6211 43.3171 6.68851 43.2514 6.77157 43.2514H6.91795C7.00101 43.2514 7.06841 43.1856 7.06841 43.1046V41.009C7.06841 40.9279 7.13582 40.8622 7.21888 40.8622H7.38183C7.46489 40.8622 7.53229 40.7964 7.53229 40.7154V7.88484C7.53229 7.8038 7.46489 7.73804 7.38183 7.73804H7.21888C7.13582 7.73804 7.06841 7.8038 7.06841 7.88484V9.87082C7.06864 9.95208 7.00124 10.0178 6.91795 10.0178Z" fill="white"/>
<path d="M39.3567 2.98796H39.1951C39.1116 2.98796 39.044 3.05395 39.044 3.13543V4.98413C39.044 5.06561 38.9764 5.1316 38.8928 5.1316H38.7478C38.6643 5.1316 38.5967 5.19758 38.5967 5.27907V38.3678C38.5967 38.4493 38.6643 38.5152 38.7478 38.5152H38.9094C38.9929 38.5152 39.0606 38.4493 39.0606 38.3678V36.3689C39.0606 36.2875 39.1282 36.2215 39.2117 36.2215H39.3567C39.4402 36.2215 39.5079 36.1555 39.5079 36.074V33.9795C39.5079 33.898 39.5755 33.8321 39.659 33.8321H39.8206C39.9041 33.8321 39.9717 33.7661 39.9717 33.6846V0.855844C39.9717 0.774359 39.9041 0.708374 39.8206 0.708374H39.659C39.5755 0.708374 39.5079 0.774359 39.5079 0.855844V2.84049C39.5079 2.92198 39.4402 2.98796 39.3567 2.98796Z" fill="white"/>
<path d="M10.1797 7.77327H10.0167C9.93367 7.77327 9.86627 7.83904 9.86627 7.92008V9.90606C9.86627 9.9871 9.79886 10.0529 9.7158 10.0529H9.55285C9.46979 10.0529 9.40239 10.1186 9.40239 10.1997V12.0497C9.40239 12.1307 9.33499 12.1965 9.25192 12.1965H9.10554C9.02248 12.1965 8.95508 12.2623 8.95508 12.3433V45.4333C8.95508 45.5144 9.02248 45.5801 9.10554 45.5801H9.26849C9.35155 45.5801 9.41896 45.5144 9.41896 45.4333V43.4332C9.41896 43.3521 9.48636 43.2864 9.56942 43.2864H9.7158C9.79886 43.2864 9.86627 43.2206 9.86627 43.1396V41.044C9.86627 40.9629 9.93367 40.8972 10.0167 40.8972H10.1797C10.2627 40.8972 10.3301 40.8314 10.3301 40.7504V38.8853C10.3301 38.8043 10.3975 38.7385 10.4806 38.7385H10.6436C10.7266 38.7385 10.794 38.6727 10.794 38.5917V5.54439C10.794 5.46335 10.7266 5.39758 10.6436 5.39758H10.4806C10.3975 5.39758 10.3301 5.46335 10.3301 5.54439V7.62647C10.3301 7.70751 10.2627 7.77327 10.1797 7.77327Z" fill="white"/>
<path d="M36.4886 3.05867H36.327C36.2435 3.05867 36.1758 3.12466 36.1758 3.20614V5.19079C36.1758 5.27228 36.1082 5.33826 36.0247 5.33826H35.8631C35.7796 5.33826 35.712 5.40425 35.712 5.48573V7.33443C35.712 7.41591 35.6443 7.4819 35.5608 7.4819H35.4158C35.3323 7.4819 35.2646 7.54788 35.2646 7.62937V40.7181C35.2646 40.7996 35.3323 40.8655 35.4158 40.8655H35.5774C35.6609 40.8655 35.7285 40.7996 35.7285 40.7181V38.7192C35.7285 38.6378 35.7962 38.5718 35.8797 38.5718H36.0247C36.1082 38.5718 36.1758 38.5058 36.1758 38.4243V36.3298C36.1758 36.2483 36.2435 36.1824 36.327 36.1824H36.4886C36.5721 36.1824 36.6397 36.1164 36.6397 36.0349V34.1711C36.6397 34.0897 36.7073 34.0237 36.7909 34.0237H36.9524C37.036 34.0237 37.1036 33.9577 37.1036 33.8762V0.830454C37.1036 0.748969 37.036 0.682983 36.9524 0.682983H36.7909C36.7073 0.682983 36.6397 0.748969 36.6397 0.830454V2.9112C36.6399 2.99269 36.5721 3.05867 36.4886 3.05867Z" fill="white"/>
<path d="M13.5596 5.39758H13.3966C13.3136 5.39758 13.2462 5.46335 13.2462 5.54439V7.62647C13.2462 7.70751 13.1788 7.77327 13.0957 7.77327H12.9327C12.8497 7.77327 12.7823 7.83904 12.7823 7.92008V9.90606C12.7823 9.9871 12.7149 10.0529 12.6318 10.0529H12.4689C12.3858 10.0529 12.3184 10.1186 12.3184 10.1997V12.0497C12.3184 12.1307 12.251 12.1965 12.1679 12.1965H12.0216C11.9385 12.1965 11.8711 12.2623 11.8711 12.3433V45.4333C11.8711 45.5144 11.9385 45.5801 12.0216 45.5801H12.1845C12.2676 45.5801 12.335 45.5144 12.335 45.4333V43.4332C12.335 43.3521 12.4024 43.2864 12.4854 43.2864H12.6318C12.7149 43.2864 12.7823 43.2206 12.7823 43.1396V41.044C12.7823 40.9629 12.8497 40.8972 12.9327 40.8972H13.0957C13.1788 40.8972 13.2462 40.8314 13.2462 40.7504V38.8853C13.2462 38.8043 13.3136 38.7385 13.3966 38.7385H13.5596C13.6426 38.7385 13.71 38.6727 13.71 38.5917V36.4777C13.71 36.3967 13.7774 36.3309 13.8605 36.3309H14.0234C14.1065 36.3309 14.1739 36.2652 14.1739 36.1841V3.2679C14.1739 3.18686 14.1065 3.12109 14.0234 3.12109H13.8605C13.7774 3.12109 13.71 3.18686 13.71 3.2679V5.25078C13.71 5.33182 13.6426 5.39758 13.5596 5.39758Z" fill="white"/>
<path d="M33.5412 2.95871H33.3952C33.3197 2.95871 33.2585 3.02467 33.2585 3.10613V5.18618C33.2585 5.26764 33.1974 5.33361 33.1219 5.33361H32.9759C32.9004 5.33361 32.8392 5.39957 32.8392 5.48103V7.46501C32.8392 7.54647 32.7781 7.61243 32.7026 7.61243H32.5566C32.4811 7.61243 32.4199 7.6784 32.4199 7.75985V9.60793C32.4199 9.68938 32.3588 9.75535 32.2833 9.75535H32.1522C32.0768 9.75535 32.0156 9.82131 32.0156 9.90277V42.9806C32.0156 43.0621 32.0768 43.128 32.1522 43.128H32.2983C32.3738 43.128 32.4349 43.0621 32.4349 42.9806V40.9825C32.4349 40.901 32.496 40.835 32.5715 40.835H32.7026C32.7781 40.835 32.8392 40.7691 32.8392 40.6876V38.5938C32.8392 38.5124 32.9004 38.4464 32.9759 38.4464H33.1219C33.1974 38.4464 33.2585 38.3805 33.2585 38.299V36.4359C33.2585 36.3544 33.3197 36.2885 33.3952 36.2885H33.5412C33.6167 36.2885 33.6778 36.2225 33.6778 36.141V34.0291C33.6778 33.9477 33.739 33.8817 33.8144 33.8817H33.9605C34.036 33.8817 34.0971 33.8157 34.0971 33.7343V0.830404C34.0971 0.748947 34.036 0.682983 33.9605 0.682983H33.8144C33.739 0.682983 33.6778 0.748947 33.6778 0.830404V2.81129C33.6778 2.89275 33.6167 2.95871 33.5412 2.95871Z" fill="white"/>
<path d="M17.0586 3.05673H16.959C16.8842 3.05673 16.8236 3.12144 16.8236 3.2012V5.19052C16.8236 5.27029 16.763 5.33499 16.6883 5.33499H16.5702C16.4955 5.33499 16.4349 5.39969 16.4349 5.47945V7.56781C16.4349 7.64758 16.3742 7.71228 16.2995 7.71228H16.1814C16.1067 7.71228 16.0461 7.77698 16.0461 7.85675V9.84917C16.0461 9.92894 15.9855 9.99364 15.9107 9.99364H15.7926C15.7179 9.99364 15.6573 10.0583 15.6573 10.1381V11.9945C15.6573 12.0742 15.5967 12.1389 15.522 12.1389H15.4176C15.3428 12.1389 15.2822 12.2036 15.2822 12.2834V45.4007C15.2822 45.4805 15.3428 45.5452 15.4176 45.5452H15.5357C15.6104 45.5452 15.671 45.4805 15.671 45.4007V43.3941C15.671 43.3143 15.7316 43.2496 15.8063 43.2496H15.9107C15.9855 43.2496 16.0461 43.1849 16.0461 43.1052V41.0031C16.0461 40.9233 16.1067 40.8586 16.1814 40.8586H16.2995C16.3742 40.8586 16.4349 40.7939 16.4349 40.7141V38.8427C16.4349 38.7629 16.4955 38.6982 16.5702 38.6982H16.6883C16.763 38.6982 16.8236 38.6335 16.8236 38.5538V36.4333C16.8236 36.3535 16.8842 36.2888 16.959 36.2888H17.0771C17.1518 36.2888 17.2124 36.2241 17.2124 36.1443V33.9618C17.2124 33.882 17.273 33.8173 17.3477 33.8173H17.4266C17.5013 33.8173 17.562 33.7526 17.562 33.6729V0.827451C17.562 0.747684 17.5013 0.682983 17.4266 0.682983H17.3293C17.2545 0.682983 17.1939 0.747684 17.1939 0.827451V2.91227C17.1939 2.99203 17.1333 3.05673 17.0586 3.05673Z" fill="white"/>
<path d="M20.4547 3.05673H20.356C20.2819 3.05673 20.2218 3.12144 20.2218 3.2012V5.19052C20.2218 5.27029 20.1618 5.33499 20.0877 5.33499H19.9707C19.8966 5.33499 19.8366 5.39969 19.8366 5.47945V7.56781C19.8366 7.64758 19.7765 7.71228 19.7025 7.71228H19.5854C19.5114 7.71228 19.4513 7.77698 19.4513 7.85675V9.84917C19.4513 9.92894 19.3912 9.99364 19.3172 9.99364H19.2001C19.1261 9.99364 19.066 10.0583 19.066 10.1381V11.9945C19.066 12.0742 19.006 12.1389 18.9319 12.1389H18.8285C18.7544 12.1389 18.6943 12.2036 18.6943 12.2834V45.4007C18.6943 45.4805 18.7544 45.5452 18.8285 45.5452H18.9455C19.0195 45.5452 19.0796 45.4805 19.0796 45.4007V43.3941C19.0796 43.3143 19.1397 43.2496 19.2137 43.2496H19.3172C19.3912 43.2496 19.4513 43.1849 19.4513 43.1052V41.0031C19.4513 40.9233 19.5114 40.8586 19.5854 40.8586H19.7025C19.7765 40.8586 19.8366 40.7939 19.8366 40.7141V38.8427C19.8366 38.7629 19.8966 38.6982 19.9707 38.6982H20.0877C20.1618 38.6982 20.2218 38.6335 20.2218 38.5538V36.4333C20.2218 36.3535 20.2819 36.2888 20.356 36.2888H20.473C20.547 36.2888 20.6071 36.2241 20.6071 36.1443V33.9618C20.6071 33.882 20.6672 33.8173 20.7412 33.8173H20.84C20.914 33.8173 20.9741 33.7526 20.9741 33.6729V0.827451C20.9741 0.747684 20.914 0.682983 20.84 0.682983H20.7229C20.6489 0.682983 20.5888 0.747684 20.5888 0.827451V2.91227C20.5888 2.99203 20.5287 3.05673 20.4547 3.05673Z" fill="white"/>
<path d="M23.7043 3.05673H23.6313C23.5592 3.05673 23.5007 3.12144 23.5007 3.2012V5.19052C23.5007 5.27029 23.4423 5.33499 23.3702 5.33499H23.2793C23.2073 5.33499 23.1488 5.39969 23.1488 5.47945V7.56781C23.1488 7.64758 23.0904 7.71228 23.0183 7.71228H22.9274C22.8554 7.71228 22.7969 7.77698 22.7969 7.85675V9.84917C22.7969 9.92894 22.7384 9.99364 22.6664 9.99364H22.5755C22.5034 9.99364 22.445 10.0583 22.445 10.1381V11.9945C22.445 12.0742 22.3865 12.1389 22.3145 12.1389H22.236C22.1639 12.1389 22.1055 12.2036 22.1055 12.2834V45.4007C22.1055 45.4805 22.1639 45.5452 22.236 45.5452H22.3269C22.3989 45.5452 22.4574 45.4805 22.4574 45.4007V43.3941C22.4574 43.3143 22.5158 43.2496 22.5879 43.2496H22.6664C22.7384 43.2496 22.7969 43.1849 22.7969 43.1052V41.0031C22.7969 40.9233 22.8554 40.8586 22.9274 40.8586H23.0183C23.0904 40.8586 23.1488 40.7939 23.1488 40.7141V38.8427C23.1488 38.7629 23.2073 38.6982 23.2793 38.6982H23.3704C23.4425 38.6982 23.5009 38.6335 23.5009 38.5538V36.4333C23.5009 36.3535 23.5594 36.2888 23.6315 36.2888H23.7223C23.7944 36.2888 23.8529 36.2241 23.8529 36.1443V33.9618C23.8529 33.882 23.9113 33.8173 23.9834 33.8173H24.0564C24.1285 33.8173 24.187 33.7526 24.187 33.6729V0.827451C24.187 0.747684 24.1285 0.682983 24.0564 0.682983H23.9656C23.8935 0.682983 23.835 0.747684 23.835 0.827451V2.91227C23.8348 2.99203 23.7764 3.05673 23.7043 3.05673Z" fill="white"/>
<path d="M27.0276 3.05677H26.9571C26.8799 3.05677 26.8174 3.1228 26.8174 3.20434V5.18726C26.8174 5.2688 26.7549 5.33483 26.6777 5.33483H26.5883C26.5111 5.33483 26.4486 5.40086 26.4486 5.48241V7.56459C26.4486 7.64613 26.3861 7.71216 26.3089 7.71216H26.2195C26.1423 7.71216 26.0798 7.7782 26.0798 7.85974V9.84576C26.0798 9.9273 26.0173 9.99333 25.9401 9.99333H25.8507C25.7736 9.99333 25.711 10.0594 25.711 10.1409V11.9909C25.711 12.0724 25.6485 12.1384 25.5713 12.1384H25.4952C25.418 12.1384 25.3555 12.2045 25.3555 12.286V45.3976C25.3555 45.4791 25.418 45.5452 25.4952 45.5452H25.5845C25.6617 45.5452 25.7243 45.4791 25.7243 45.3976V43.3974C25.7243 43.3159 25.7868 43.2498 25.864 43.2498H25.9401C26.0173 43.2498 26.0798 43.1838 26.0798 43.1023V41.0063C26.0798 40.9248 26.1423 40.8588 26.2195 40.8588H26.3089C26.3861 40.8588 26.4486 40.7927 26.4486 40.7112V38.8461C26.4486 38.7646 26.5111 38.6986 26.5883 38.6986H26.6777C26.7549 38.6986 26.8174 38.6325 26.8174 38.551V36.4369C26.8174 36.3554 26.8799 36.2893 26.9571 36.2893H27.0465C27.1237 36.2893 27.1862 36.2233 27.1862 36.1418V33.9654C27.1862 33.8839 27.2487 33.8178 27.3259 33.8178H27.3964C27.4736 33.8178 27.5361 33.7518 27.5361 33.6703V0.830556C27.5361 0.749014 27.4736 0.682983 27.3964 0.682983H27.307C27.2298 0.682983 27.1673 0.749014 27.1673 0.830556V2.90898C27.1673 2.99052 27.1048 3.05677 27.0276 3.05677Z" fill="white"/>
<path d="M30.3627 3.05677H30.2954C30.2217 3.05677 30.1621 3.1228 30.1621 3.20434V5.18726C30.1621 5.2688 30.1024 5.33483 30.0287 5.33483H29.9434C29.8697 5.33483 29.8101 5.40086 29.8101 5.48241V7.56459C29.8101 7.64613 29.7504 7.71216 29.6767 7.71216H29.5914C29.5177 7.71216 29.458 7.7782 29.458 7.85974V9.84576C29.458 9.9273 29.3984 9.99333 29.3247 9.99333H29.2394C29.1657 9.99333 29.106 10.0594 29.106 10.1409V11.9909C29.106 12.0724 29.0463 12.1384 28.9726 12.1384H28.9C28.8263 12.1384 28.7666 12.2045 28.7666 12.286V45.3976C28.7666 45.4791 28.8263 45.5452 28.9 45.5452H28.9853C29.059 45.5452 29.1186 45.4791 29.1186 45.3976V43.3974C29.1186 43.3159 29.1783 43.2498 29.252 43.2498H29.3247C29.3984 43.2498 29.458 43.1838 29.458 43.1023V41.0063C29.458 40.9248 29.5177 40.8588 29.5914 40.8588H29.6767C29.7504 40.8588 29.8101 40.7927 29.8101 40.7112V38.8461C29.8101 38.7646 29.8697 38.6986 29.9434 38.6986H30.0287C30.1024 38.6986 30.1621 38.6325 30.1621 38.551V36.4369C30.1621 36.3554 30.2217 36.2893 30.2954 36.2893H30.3807C30.4544 36.2893 30.5141 36.2233 30.5141 36.1418V33.9654C30.5141 33.8839 30.5738 33.8178 30.6475 33.8178H30.7147C30.7884 33.8178 30.8481 33.7518 30.8481 33.6703V0.830556C30.8481 0.749014 30.7884 0.682983 30.7147 0.682983H30.6294C30.5557 0.682983 30.4961 0.749014 30.4961 0.830556V2.90898C30.4961 2.99052 30.4364 3.05677 30.3627 3.05677Z" fill="white"/>
</g>
<defs>
<clipPath id="clip0_589_33639">
<rect width="45" height="46" fill="white" transform="translate(0.499023 0.195312)"/>
</clipPath>
</defs>
</svg>
