<svg width="222" height="49" viewBox="0 0 222 49" fill="none" xmlns="http://www.w3.org/2000/svg">
<path d="M162.819 14.4588V14.9872C162.819 20.8592 162.819 26.7312 162.819 32.6031C162.819 33.0325 162.728 33.1903 162.269 33.1775C161.142 33.1445 160.012 33.1665 158.847 33.1665V8.57765C158.99 8.56664 159.12 8.54645 159.252 8.54645C161.058 8.54645 162.862 8.54646 164.665 8.53728C165.003 8.53728 165.139 8.65288 165.242 8.96666C167.126 14.7285 169.017 20.4885 170.915 26.2467C170.967 26.4045 171.029 26.5569 171.13 26.8284C171.229 26.6064 171.292 26.4945 171.332 26.3734C173.221 20.6298 175.105 14.8839 176.984 9.13547C177.13 8.68223 177.319 8.52076 177.809 8.53177C179.507 8.56847 181.204 8.54461 182.902 8.54461H183.452V9.0951C183.452 16.9366 183.452 24.7769 183.452 32.616C183.452 33.0197 183.371 33.1775 182.929 33.1665C181.755 33.1335 180.58 33.1555 179.342 33.1555V14.4386L179.237 14.4166C179.18 14.5104 179.13 14.6086 179.088 14.7102C177.055 20.6176 175.023 26.5244 172.993 32.4307C172.693 33.2986 172.916 33.1426 171.994 33.1647C171.26 33.1647 170.526 33.1536 169.792 33.1647C169.674 33.1841 169.552 33.1566 169.454 33.0881C169.355 33.0196 169.287 32.9155 169.264 32.7977C167.666 28.1209 166.062 23.4459 164.453 18.7728L163.12 14.8973C163.065 14.7414 162.999 14.5891 162.937 14.4349L162.819 14.4588Z" fill="white"/>
<path d="M79.6594 15.4033C78.3199 15.5116 77.0262 15.6235 75.7326 15.7061C75.6262 15.7061 75.439 15.5226 75.4023 15.4052C75.083 14.2932 74.5582 13.317 73.6278 12.5903C72.8486 11.9896 71.918 11.6168 70.9396 11.5132C69.5377 11.3443 68.1541 11.4049 66.8806 12.1022C65.6071 12.7995 64.9832 13.8307 65.1117 15.2914C65.133 15.6579 65.2447 16.0134 65.4368 16.3262C65.6289 16.639 65.8954 16.8994 66.2127 17.0842C67.154 17.6604 68.211 17.9026 69.2679 18.1503C71.6314 18.7008 74.015 19.1761 76.2922 20.0514C78.7952 21.0147 80.1255 22.8369 80.2705 25.4939C80.4815 29.3125 78.8264 31.7641 75.1215 32.9091C71.7176 33.9624 68.2935 33.9202 64.9942 32.4724C62.183 31.2393 60.5811 29.0006 60.0012 26.0151C59.9737 25.8701 59.9664 25.7196 59.9443 25.5178L64.152 25.0774C64.2492 25.5178 64.319 25.905 64.4217 26.2848C64.8493 27.8427 65.809 28.9621 67.3137 29.5511C69.5377 30.419 71.7892 30.5328 73.9857 29.4777C75.5491 28.7272 76.1785 27.373 75.8555 25.6994C75.6518 24.637 74.9509 23.9526 73.9783 23.6296C72.5305 23.1507 71.0424 22.7873 69.5744 22.3635C67.8898 21.8772 66.1686 21.4826 64.5336 20.8606C61.8252 19.8312 60.5077 17.5099 60.7462 14.6345C60.9481 12.2068 62.1959 10.4562 64.3024 9.39374C67.7577 7.65417 71.347 7.55875 74.8866 9.11299C77.4887 10.2525 78.8961 12.4472 79.6191 15.1207C79.6392 15.2139 79.6527 15.3083 79.6594 15.4033Z" fill="white"/>
<path d="M151.523 17.3471V8.53915H153.292C153.889 8.53915 154.485 8.56117 155.08 8.53915C155.46 8.5208 155.544 8.66395 155.538 9.01259C155.52 10.1246 155.538 11.2384 155.538 12.3504V33.2051H151.714V30.8765C151.622 30.9418 151.536 31.0155 151.457 31.0967C150.356 32.717 148.742 33.4088 146.87 33.5831C141.864 34.0473 138.901 30.6086 138.165 26.7624C137.614 23.8356 137.833 20.9786 139.449 18.3765C141.934 14.3616 146.696 14.1102 149.501 15.602C150.131 15.9378 150.635 16.5049 151.193 16.9709C151.31 17.0899 151.421 17.2155 151.523 17.3471ZM141.943 24.2118C141.996 24.8027 142.02 25.399 142.112 25.9844C142.187 26.4352 142.304 26.8781 142.46 27.3074C143.139 29.2342 144.628 30.3792 146.53 30.4691C148.681 30.57 150.265 29.7002 151.081 27.7625C152.092 25.366 152.092 22.909 151.01 20.5308C150.204 18.7656 148.731 17.916 146.789 17.9508C144.848 17.9857 143.486 18.9215 142.668 20.6483C142.125 21.7713 141.965 22.9768 141.943 24.2118Z" fill="white"/>
<path d="M99.8496 24.2279C99.8165 26.0886 99.4826 27.8686 98.5486 29.4999C97.2641 31.7533 95.286 33.0487 92.7482 33.4708C90.9462 33.7717 89.1479 33.6892 87.4157 33.0396C84.8981 32.0982 83.2613 30.2871 82.4741 27.7585C81.7036 25.3719 81.7345 22.7988 82.5621 20.4314C83.7622 16.9908 86.289 15.1833 89.8764 14.8291C91.86 14.6328 93.7886 14.8989 95.5502 15.9044C98.0036 17.3064 99.2202 19.5249 99.6679 22.2278C99.7762 22.8866 99.7909 23.56 99.8496 24.2279ZM95.7814 24.2169C95.7355 23.6665 95.7135 23.1159 95.6346 22.582C95.5678 22.1303 95.4647 21.6848 95.3263 21.2498C94.7079 19.3028 93.1941 18.0422 91.3774 17.9468C89.1571 17.8165 87.524 18.7065 86.7037 20.6717C85.7055 23.0866 85.7018 25.5602 86.7826 27.9548C87.5405 29.632 88.9351 30.4577 90.7994 30.4889C92.6638 30.5201 94.0657 29.7311 94.9465 28.0796C95.5887 26.8759 95.7557 25.5602 95.7814 24.2169Z" fill="white"/>
<path d="M197.771 33.1973H193.774V15.2145H197.558V17.5174L197.675 17.5614C197.765 17.4568 197.859 17.3559 197.945 17.2458C200.29 14.1135 205.189 14.2015 207.56 16.1338C208.865 17.1962 209.492 18.5743 209.665 20.2001C209.711 20.655 209.733 21.1119 209.731 21.569C209.731 25.2745 209.731 28.9787 209.731 32.6817V33.1882H205.725V32.6377C205.725 29.2222 205.725 25.8078 205.725 22.3948C205.725 21.536 205.65 20.6901 205.299 19.8882C205.171 19.5684 204.979 19.2774 204.737 19.0323C204.494 18.7872 204.205 18.5929 203.887 18.4606C201.648 17.5321 198.956 18.2312 198.048 21.3452C197.866 22.0218 197.775 22.7199 197.78 23.4205C197.752 26.4831 197.769 29.5476 197.767 32.612L197.771 33.1973Z" fill="white"/>
<path d="M119.94 15.2166H123.722V17.5177L123.823 17.5672C123.924 17.4535 124.034 17.347 124.124 17.2259C126.438 14.1321 131.478 14.1395 133.919 16.3084C134.522 16.8304 135.006 17.4759 135.337 18.2013C135.669 18.9267 135.84 19.7148 135.84 20.5124C135.906 24.6888 135.871 28.8652 135.875 33.0398C135.867 33.0916 135.853 33.1422 135.833 33.1903H131.899V32.6398C131.899 29.2726 131.919 25.9036 131.884 22.5364C131.866 21.7305 131.752 20.9296 131.544 20.1509C131.3 19.2004 130.609 18.6021 129.671 18.3159C126.928 17.4479 124.415 19.1288 124.032 22.096C123.967 22.6097 123.935 23.1269 123.935 23.6447C123.935 26.6302 123.935 29.6176 123.935 32.6049V33.183H119.94V15.2166Z" fill="white"/>
<path d="M117.426 33.1995H113.656V30.9131L113.537 30.8728C113.455 30.9645 113.365 31.0563 113.289 31.1462C112.08 32.7041 110.473 33.4821 108.518 33.6032C107.28 33.6785 106.074 33.5629 104.933 33.0417C102.522 31.9407 101.514 29.9553 101.492 27.4211C101.459 23.4888 101.481 19.5546 101.481 15.6222C101.481 15.5029 101.498 15.3836 101.509 15.2313H105.52V15.7598C105.52 19.1313 105.52 22.5009 105.52 25.8688C105.522 26.3559 105.553 26.8424 105.614 27.3257C105.905 29.6378 107.496 30.5223 109.596 30.3296C111.535 30.1461 112.954 28.702 113.31 26.6596C113.415 26.029 113.468 25.3907 113.467 24.7513C113.483 21.748 113.483 18.7447 113.467 15.7414C113.467 15.3433 113.546 15.1799 113.992 15.1909C115.121 15.2258 116.251 15.202 117.426 15.202V33.1995Z" fill="white"/>
<path d="M213.689 18.0535C212.823 18.0535 212.142 18.0535 211.239 18.0535C210.872 18.0645 210.729 17.9618 210.744 17.5709C210.771 16.7984 210.744 16.024 210.744 15.1854H213.68V10.1777H217.678V15.1818H218.909C219.658 15.1818 220.407 15.1946 221.155 15.1818C221.466 15.1818 221.592 15.2606 221.583 15.5891C221.562 16.2754 221.562 16.9611 221.583 17.6461C221.583 17.9709 221.475 18.0663 221.161 18.0608C220.183 18.0443 219.205 18.0608 218.225 18.0608H217.674V18.5655C217.674 21.7192 217.674 24.8735 217.674 28.0285C217.674 29.5626 218.025 29.9149 219.555 29.9424C220.135 29.9424 220.713 29.9424 221.328 29.9424V33.2674C220.117 33.2674 218.915 33.2802 217.715 33.2674C217.303 33.2491 216.893 33.2025 216.487 33.1279C214.816 32.8618 213.918 31.937 213.735 30.247C213.69 29.7921 213.67 29.3352 213.674 28.8781C213.674 25.4797 213.674 22.0813 213.674 18.6829L213.689 18.0535Z" fill="white"/>
<path d="M186.972 15.187C188.245 15.187 189.465 15.187 190.688 15.1998C190.779 15.1998 190.871 15.3154 190.935 15.42C190.96 15.5077 190.969 15.5991 190.961 15.6898V33.1791H186.972V15.187Z" fill="white"/>
<path d="M186.96 12.4598V8.53662H187.918C188.803 8.53662 189.689 8.53662 190.574 8.53662C190.876 8.53662 190.97 8.63569 190.966 8.93113C190.952 9.98074 190.966 11.0304 190.95 12.08C190.95 12.2103 190.796 12.447 190.709 12.447C189.476 12.4672 188.241 12.4598 186.96 12.4598Z" fill="white"/>
<g clip-path="url(#clip0_882_255)">
<path d="M0.501215 47.5185H0.69109C0.779782 47.5185 0.851485 47.4559 0.851485 47.3783V15.2989C0.851485 15.2214 0.779782 15.1587 0.69109 15.1587H0.501215C0.412523 15.1587 0.34082 15.2214 0.34082 15.2989V47.3783C0.34082 47.4559 0.412523 47.5185 0.501215 47.5185Z" fill="white"/>
<path d="M0.78857 45.3045H0.915154C0.974282 45.3045 1.02208 45.2411 1.02208 45.1628V12.7457C1.02208 12.6674 0.974282 12.604 0.915154 12.604H0.78857C0.729443 12.604 0.681641 12.6674 0.681641 12.7457V45.1628C0.681641 45.2411 0.729443 45.3045 0.78857 45.3045Z" fill="white"/>
<path d="M3.40772 12.5391H3.25434C3.1673 12.5391 3.09668 12.608 3.09668 12.6929V47.3649C3.09668 47.4498 3.1673 47.5187 3.25434 47.5187H3.42508C3.51211 47.5187 3.58273 47.4498 3.58273 47.3649V45.2691C3.58273 45.1842 3.65336 45.1153 3.74039 45.1153H3.89377C3.9808 45.1153 4.05143 45.0464 4.05143 44.9615V10.4468C4.05143 10.3619 3.9808 10.293 3.89377 10.293H3.72303C3.636 10.293 3.56538 10.3619 3.56538 10.4468V12.3853C3.56538 12.4702 3.49475 12.5391 3.40772 12.5391Z" fill="white"/>
<path d="M43.3681 2.78981H43.5225C43.6092 2.78981 43.6799 2.72113 43.6796 2.63621V0.69705C43.6796 0.612133 43.75 0.543457 43.8368 0.543457H44.0083C44.0951 0.543457 44.1655 0.612365 44.1655 0.69705V35.2127C44.1655 35.2974 44.0951 35.366 44.0083 35.366H43.8539H43.5396H43.3681C43.2813 35.366 43.2109 35.2974 43.2109 35.2127V2.94317C43.2109 2.85848 43.2813 2.78981 43.3681 2.78981Z" fill="white"/>
<path d="M43.5225 2.7898H43.3681C43.2813 2.7898 43.2109 2.85848 43.2109 2.94317V37.6158C43.2109 37.7005 43.2813 37.7692 43.3681 37.7692H43.5396C43.6264 37.7692 43.6968 37.7005 43.6968 37.6158V35.5194C43.6968 35.4347 43.7671 35.366 43.8539 35.366H44.0083C44.0951 35.366 44.1655 35.2973 44.1655 35.2127V0.697049C44.1655 0.612365 44.0951 0.543457 44.0083 0.543457H43.8368C43.75 0.543457 43.6796 0.612133 43.6796 0.697049V2.63621C43.6799 2.72113 43.6092 2.7898 43.5225 2.7898Z" fill="white"/>
<path d="M46.2705 2.764H46.4081C46.4855 2.764 46.5485 2.69514 46.5483 2.61V0.665717C46.5483 0.580576 46.6111 0.511719 46.6884 0.511719H46.8413C46.9187 0.511719 46.9815 0.580809 46.9815 0.665717V35.2725C46.9815 35.3574 46.9187 35.4263 46.8413 35.4263H46.7037H46.4234H46.2705C46.1931 35.4263 46.1304 35.3574 46.1304 35.2725V2.91777C46.1304 2.83286 46.1931 2.764 46.2705 2.764Z" fill="white"/>
<path d="M6.72629 10.2931H6.55555C6.46852 10.2931 6.3979 10.362 6.3979 10.4469V12.3854C6.3979 12.4703 6.32727 12.5392 6.24024 12.5392H6.08686C5.99982 12.5392 5.9292 12.6081 5.9292 12.693V47.365C5.9292 47.4499 5.99982 47.5189 6.08686 47.5189H6.2576C6.34463 47.5189 6.41525 47.4499 6.41525 47.365V45.2693C6.41525 45.1843 6.48588 45.1154 6.57291 45.1154H6.72629C6.81332 45.1154 6.88395 45.0465 6.88395 44.9616V42.7658C6.88395 42.6809 6.95458 42.612 7.04161 42.612H7.21235C7.29938 42.612 7.37001 42.5431 7.37001 42.4582V8.05812C7.37001 7.9732 7.29938 7.9043 7.21235 7.9043H7.04161C6.95458 7.9043 6.88395 7.9732 6.88395 8.05812V10.139C6.88419 10.2242 6.81356 10.2931 6.72629 10.2931Z" fill="white"/>
<path d="M40.7148 2.92715H40.5455C40.458 2.92715 40.3872 2.99629 40.3872 3.08167V5.01874C40.3872 5.10412 40.3163 5.17326 40.2288 5.17326H40.0768C39.9893 5.17326 39.9185 5.2424 39.9185 5.32778V39.9984C39.9185 40.0838 39.9893 40.1529 40.0768 40.1529H40.2461C40.3336 40.1529 40.4045 40.0838 40.4045 39.9984V37.904C40.4045 37.8186 40.4754 37.7495 40.5629 37.7495H40.7148C40.8023 37.7495 40.8732 37.6803 40.8732 37.595V35.4003C40.8732 35.315 40.9441 35.2458 41.0316 35.2458H41.2009C41.2884 35.2458 41.3593 35.1767 41.3593 35.0913V0.693095C41.3593 0.607714 41.2884 0.538574 41.2009 0.538574H41.0316C40.9441 0.538574 40.8732 0.607714 40.8732 0.693095V2.77262C40.8732 2.85801 40.8023 2.92715 40.7148 2.92715Z" fill="white"/>
<path d="M10.144 7.94093H9.97325C9.88622 7.94093 9.81559 8.00983 9.81559 8.09475V10.1757C9.81559 10.2606 9.74496 10.3295 9.65793 10.3295H9.48719C9.40016 10.3295 9.32954 10.3984 9.32954 10.4833V12.4218C9.32954 12.5067 9.25891 12.5756 9.17188 12.5756H9.0185C8.93147 12.5756 8.86084 12.6445 8.86084 12.7294V47.4014C8.86084 47.4863 8.93147 47.5553 9.0185 47.5553H9.18924C9.27627 47.5553 9.34689 47.4863 9.34689 47.4014V45.3057C9.34689 45.2207 9.41752 45.1518 9.50455 45.1518H9.65793C9.74496 45.1518 9.81559 45.0829 9.81559 44.998V42.8022C9.81559 42.7173 9.88622 42.6484 9.97325 42.6484H10.144C10.231 42.6484 10.3016 42.5795 10.3016 42.4946V40.5403C10.3016 40.4554 10.3723 40.3865 10.4593 40.3865H10.63C10.7171 40.3865 10.7877 40.3176 10.7877 40.2327V5.60548C10.7877 5.52057 10.7171 5.45166 10.63 5.45166H10.4593C10.3723 5.45166 10.3016 5.52057 10.3016 5.60548V7.7871C10.3016 7.87202 10.231 7.94093 10.144 7.94093Z" fill="white"/>
<path d="M37.7102 3.00098H37.5409C37.4533 3.00098 37.3825 3.07012 37.3825 3.1555V5.23504C37.3825 5.32042 37.3116 5.38956 37.2241 5.38956H37.0548C36.9673 5.38956 36.8964 5.4587 36.8964 5.54408V7.48115C36.8964 7.56653 36.8256 7.63567 36.7381 7.63567H36.5861C36.4986 7.63567 36.4277 7.70481 36.4277 7.79019V42.4608C36.4277 42.5462 36.4986 42.6153 36.5861 42.6153H36.7554C36.8429 42.6153 36.9138 42.5462 36.9138 42.4608V40.3664C36.9138 40.281 36.9847 40.2119 37.0722 40.2119H37.2241C37.3116 40.2119 37.3825 40.1427 37.3825 40.0574V37.8628C37.3825 37.7774 37.4533 37.7082 37.5409 37.7082H37.7102C37.7977 37.7082 37.8685 37.6391 37.8685 37.5537V35.6009C37.8685 35.5155 37.9394 35.4464 38.0269 35.4464H38.1962C38.2837 35.4464 38.3546 35.3772 38.3546 35.2918V0.666239C38.3546 0.580859 38.2837 0.511719 38.1962 0.511719H38.0269C37.9394 0.511719 37.8685 0.580859 37.8685 0.666239V2.84646C37.8688 2.93184 37.7977 3.00098 37.7102 3.00098Z" fill="white"/>
<path d="M13.6852 5.45173H13.5145C13.4274 5.45173 13.3568 5.52064 13.3568 5.60555V7.78717C13.3568 7.87209 13.2862 7.94099 13.1992 7.94099H13.0284C12.9414 7.94099 12.8708 8.0099 12.8708 8.09482V10.1757C12.8708 10.2607 12.8001 10.3296 12.7131 10.3296H12.5424C12.4553 10.3296 12.3847 10.3985 12.3847 10.4834V12.4219C12.3847 12.5068 12.3141 12.5757 12.2271 12.5757H12.0737C11.9866 12.5757 11.916 12.6446 11.916 12.7295V47.4015C11.916 47.4864 11.9866 47.5553 12.0737 47.5553H12.2444C12.3314 47.5553 12.4021 47.4864 12.4021 47.4015V45.3057C12.4021 45.2208 12.4727 45.1519 12.5597 45.1519H12.7131C12.8001 45.1519 12.8708 45.083 12.8708 44.9981V42.8023C12.8708 42.7174 12.9414 42.6485 13.0284 42.6485H13.1992C13.2862 42.6485 13.3568 42.5796 13.3568 42.4947V40.5404C13.3568 40.4555 13.4274 40.3866 13.5145 40.3866H13.6852C13.7723 40.3866 13.8429 40.3177 13.8429 40.2328V38.0177C13.8429 37.9328 13.9135 37.8639 14.0005 37.8639H14.1713C14.2583 37.8639 14.3289 37.795 14.3289 37.7101V3.22023C14.3289 3.13531 14.2583 3.06641 14.1713 3.06641H14.0005C13.9135 3.06641 13.8429 3.13531 13.8429 3.22023V5.29791C13.8429 5.38282 13.7723 5.45173 13.6852 5.45173Z" fill="white"/>
<path d="M34.622 2.89624H34.4689C34.3898 2.89624 34.3258 2.96536 34.3258 3.05071V5.23021C34.3258 5.31556 34.2617 5.38468 34.1826 5.38468H34.0296C33.9505 5.38468 33.8864 5.45379 33.8864 5.53914V7.61798C33.8864 7.70333 33.8224 7.77245 33.7433 7.77245H33.5902C33.5111 7.77245 33.4471 7.84156 33.4471 7.92692V9.86334C33.4471 9.9487 33.383 10.0178 33.3039 10.0178H33.1666C33.0875 10.0178 33.0234 10.0869 33.0234 10.1723V44.8315C33.0234 44.9169 33.0875 44.986 33.1666 44.986H33.3196C33.3987 44.986 33.4628 44.9169 33.4628 44.8315V42.7378C33.4628 42.6525 33.5268 42.5834 33.6059 42.5834H33.7433C33.8224 42.5834 33.8864 42.5142 33.8864 42.4289V40.235C33.8864 40.1497 33.9505 40.0805 34.0296 40.0805H34.1826C34.2617 40.0805 34.3258 40.0114 34.3258 39.9261V37.9739C34.3258 37.8885 34.3898 37.8194 34.4689 37.8194H34.622C34.7011 37.8194 34.7651 37.7503 34.7651 37.6649V35.452C34.7651 35.3667 34.8292 35.2976 34.9083 35.2976H35.0613C35.1404 35.2976 35.2044 35.2285 35.2044 35.1431V0.666188C35.2044 0.580835 35.1404 0.511719 35.0613 0.511719H34.9083C34.8292 0.511719 34.7651 0.580835 34.7651 0.666188V2.74178C34.7651 2.82713 34.7011 2.89624 34.622 2.89624Z" fill="white"/>
<path d="M17.3515 2.99895H17.2471C17.1688 2.99895 17.1053 3.06675 17.1053 3.15033V5.23475C17.1053 5.31833 17.0418 5.38612 16.9635 5.38612H16.8398C16.7615 5.38612 16.698 5.45392 16.698 5.5375V7.7257C16.698 7.80928 16.6345 7.87707 16.5562 7.87707H16.4324C16.3541 7.87707 16.2906 7.94487 16.2906 8.02845V10.1161C16.2906 10.1997 16.2271 10.2675 16.1488 10.2675H16.025C15.9468 10.2675 15.8832 10.3353 15.8832 10.4189V12.364C15.8832 12.4476 15.8197 12.5154 15.7414 12.5154H15.632C15.5537 12.5154 15.4902 12.5832 15.4902 12.6667V47.3673C15.4902 47.4509 15.5537 47.5187 15.632 47.5187H15.7558C15.8341 47.5187 15.8976 47.4509 15.8976 47.3673V45.2648C15.8976 45.1812 15.9611 45.1134 16.0394 45.1134H16.1488C16.2271 45.1134 16.2906 45.0456 16.2906 44.962V42.7594C16.2906 42.6758 16.3541 42.608 16.4324 42.608H16.5562C16.6345 42.608 16.698 42.5403 16.698 42.4567V40.4958C16.698 40.4122 16.7615 40.3444 16.8398 40.3444H16.9635C17.0418 40.3444 17.1053 40.2766 17.1053 40.193V37.9711C17.1053 37.8876 17.1688 37.8198 17.2471 37.8198H17.3709C17.4492 37.8198 17.5127 37.752 17.5127 37.6684V35.3815C17.5127 35.298 17.5762 35.2302 17.6545 35.2302H17.7372C17.8154 35.2302 17.879 35.1624 17.879 35.0788V0.663093C17.879 0.579512 17.8154 0.511719 17.7372 0.511719H17.6351C17.5568 0.511719 17.4933 0.579512 17.4933 0.663093V2.84758C17.4933 2.93116 17.4298 2.99895 17.3515 2.99895Z" fill="white"/>
<path d="M20.9099 2.99895H20.8065C20.7289 2.99895 20.666 3.06675 20.666 3.15033V5.23475C20.666 5.31833 20.603 5.38612 20.5254 5.38612H20.4028C20.3252 5.38612 20.2623 5.45392 20.2623 5.5375V7.7257C20.2623 7.80928 20.1993 7.87707 20.1217 7.87707H19.9991C19.9215 7.87707 19.8586 7.94487 19.8586 8.02845V10.1161C19.8586 10.1997 19.7956 10.2675 19.7181 10.2675H19.5954C19.5178 10.2675 19.4549 10.3353 19.4549 10.4189V12.364C19.4549 12.4476 19.392 12.5154 19.3144 12.5154H19.206C19.1284 12.5154 19.0654 12.5832 19.0654 12.6667V47.3673C19.0654 47.4509 19.1284 47.5187 19.206 47.5187H19.3286C19.4062 47.5187 19.4691 47.4509 19.4691 47.3673V45.2648C19.4691 45.1812 19.5321 45.1134 19.6096 45.1134H19.7181C19.7956 45.1134 19.8586 45.0456 19.8586 44.962V42.7594C19.8586 42.6758 19.9215 42.608 19.9991 42.608H20.1217C20.1993 42.608 20.2623 42.5403 20.2623 42.4567V40.4958C20.2623 40.4122 20.3252 40.3444 20.4028 40.3444H20.5254C20.603 40.3444 20.666 40.2766 20.666 40.193V37.9711C20.666 37.8876 20.7289 37.8198 20.8065 37.8198H20.9291C21.0067 37.8198 21.0696 37.752 21.0696 37.6684V35.3815C21.0696 35.298 21.1326 35.2302 21.2102 35.2302H21.3136C21.3912 35.2302 21.4542 35.1624 21.4542 35.0788V0.663093C21.4542 0.579512 21.3912 0.511719 21.3136 0.511719H21.191C21.1134 0.511719 21.0505 0.579512 21.0505 0.663093V2.84758C21.0505 2.93116 20.9875 2.99895 20.9099 2.99895Z" fill="white"/>
<path d="M24.3154 2.99895H24.2389C24.1634 2.99895 24.1021 3.06675 24.1021 3.15033V5.23475C24.1021 5.31833 24.0409 5.38612 23.9654 5.38612H23.8701C23.7946 5.38612 23.7334 5.45392 23.7334 5.5375V7.7257C23.7334 7.80928 23.6721 7.87707 23.5966 7.87707H23.5014C23.4259 7.87707 23.3646 7.94487 23.3646 8.02845V10.1161C23.3646 10.1997 23.3034 10.2675 23.2279 10.2675H23.1326C23.0571 10.2675 22.9959 10.3353 22.9959 10.4189V12.364C22.9959 12.4476 22.9346 12.5154 22.8591 12.5154H22.7769C22.7014 12.5154 22.6401 12.5832 22.6401 12.6667V47.3673C22.6401 47.4509 22.7014 47.5187 22.7769 47.5187H22.8721C22.9476 47.5187 23.0089 47.4509 23.0089 47.3673V45.2648C23.0089 45.1812 23.0701 45.1134 23.1456 45.1134H23.2279C23.3034 45.1134 23.3646 45.0456 23.3646 44.962V42.7594C23.3646 42.6758 23.4259 42.608 23.5014 42.608H23.5966C23.6721 42.608 23.7334 42.5403 23.7334 42.4567V40.4958C23.7334 40.4122 23.7946 40.3444 23.8701 40.3444H23.9656C24.0411 40.3444 24.1023 40.2766 24.1023 40.193V37.9711C24.1023 37.8876 24.1636 37.8198 24.2391 37.8198H24.3343C24.4098 37.8198 24.4711 37.752 24.4711 37.6684V35.3815C24.4711 35.298 24.5323 35.2302 24.6078 35.2302H24.6844C24.7599 35.2302 24.8211 35.1624 24.8211 35.0788V0.663093C24.8211 0.579512 24.7599 0.511719 24.6844 0.511719H24.5892C24.5137 0.511719 24.4524 0.579512 24.4524 0.663093V2.84758C24.4522 2.93116 24.3909 2.99895 24.3154 2.99895Z" fill="white"/>
<path d="M27.7965 2.99899H27.7226C27.6418 2.99899 27.5763 3.06818 27.5763 3.15362V5.23134C27.5763 5.31678 27.5108 5.38596 27.4299 5.38596H27.3362C27.2553 5.38596 27.1898 5.45515 27.1898 5.54059V7.72232C27.1898 7.80776 27.1243 7.87695 27.0434 7.87695H26.9498C26.8689 7.87695 26.8034 7.94614 26.8034 8.03158V10.1125C26.8034 10.198 26.7379 10.2672 26.657 10.2672H26.5634C26.4825 10.2672 26.417 10.3364 26.417 10.4218V12.3602C26.417 12.4457 26.3515 12.5148 26.2706 12.5148H26.1908C26.1099 12.5148 26.0444 12.584 26.0444 12.6695V47.364C26.0444 47.4495 26.1099 47.5187 26.1908 47.5187H26.2845C26.3653 47.5187 26.4308 47.4495 26.4308 47.364V45.2682C26.4308 45.1828 26.4964 45.1136 26.5772 45.1136H26.657C26.7379 45.1136 26.8034 45.0444 26.8034 44.959V42.7628C26.8034 42.6774 26.8689 42.6082 26.9498 42.6082H27.0434C27.1243 42.6082 27.1898 42.539 27.1898 42.4536V40.4994C27.1898 40.4139 27.2553 40.3447 27.3362 40.3447H27.4299C27.5108 40.3447 27.5763 40.2756 27.5763 40.1901V37.975C27.5763 37.8895 27.6418 37.8203 27.7226 37.8203H27.8163C27.8972 37.8203 27.9627 37.7511 27.9627 37.6657V35.3853C27.9627 35.2999 28.0282 35.2307 28.1091 35.2307H28.1829C28.2638 35.2307 28.3293 35.1615 28.3293 35.076V0.666346C28.3293 0.580906 28.2638 0.511719 28.1829 0.511719H28.0893C28.0084 0.511719 27.9429 0.580906 27.9429 0.666346V2.84413C27.9429 2.92957 27.8774 2.99899 27.7965 2.99899Z" fill="white"/>
<path d="M31.2911 2.99899H31.2206C31.1434 2.99899 31.0808 3.06818 31.0808 3.15362V5.23134C31.0808 5.31678 31.0183 5.38596 30.9411 5.38596H30.8517C30.7745 5.38596 30.712 5.45515 30.712 5.54059V7.72232C30.712 7.80776 30.6495 7.87695 30.5723 7.87695H30.4829C30.4057 7.87695 30.3431 7.94614 30.3431 8.03158V10.1125C30.3431 10.198 30.2806 10.2672 30.2034 10.2672H30.114C30.0368 10.2672 29.9743 10.3364 29.9743 10.4218V12.3602C29.9743 12.4457 29.9118 12.5148 29.8346 12.5148H29.7584C29.6812 12.5148 29.6187 12.584 29.6187 12.6695V47.364C29.6187 47.4495 29.6812 47.5187 29.7584 47.5187H29.8478C29.925 47.5187 29.9875 47.4495 29.9875 47.364V45.2682C29.9875 45.1828 30.05 45.1136 30.1272 45.1136H30.2034C30.2806 45.1136 30.3431 45.0444 30.3431 44.959V42.7628C30.3431 42.6774 30.4057 42.6082 30.4829 42.6082H30.5723C30.6495 42.6082 30.712 42.539 30.712 42.4536V40.4994C30.712 40.4139 30.7745 40.3447 30.8517 40.3447H30.9411C31.0183 40.3447 31.0808 40.2756 31.0808 40.1901V37.975C31.0808 37.8895 31.1434 37.8203 31.2206 37.8203H31.31C31.3872 37.8203 31.4497 37.7511 31.4497 37.6657V35.3853C31.4497 35.2999 31.5122 35.2307 31.5894 35.2307H31.6599C31.7371 35.2307 31.7997 35.1615 31.7997 35.076V0.666346C31.7997 0.580906 31.7371 0.511719 31.6599 0.511719H31.5705C31.4933 0.511719 31.4308 0.580906 31.4308 0.666346V2.84413C31.4308 2.92957 31.3683 2.99899 31.2911 2.99899Z" fill="white"/>
</g>
<defs>
<clipPath id="clip0_882_255">
<rect width="47.1513" height="48.1992" fill="white"/>
</clipPath>
</defs>
</svg>
