<svg width="222" height="49" viewBox="0 0 222 49" fill="none" xmlns="http://www.w3.org/2000/svg">
<path d="M162.819 15.0603V15.5888C162.819 21.4608 162.819 27.3327 162.819 33.2047C162.819 33.6341 162.728 33.7919 162.269 33.7791C161.142 33.746 160.012 33.7681 158.847 33.7681V9.17921C158.99 9.1682 159.12 9.14801 159.252 9.14801C161.058 9.14801 162.862 9.14802 164.665 9.13885C165.003 9.13885 165.139 9.25444 165.242 9.56823C167.126 15.3301 169.017 21.0901 170.915 26.8483C170.967 27.0061 171.029 27.1584 171.13 27.43C171.229 27.208 171.292 27.096 171.332 26.9749C173.221 21.2314 175.105 15.4854 176.984 9.73703C177.13 9.28379 177.319 9.12233 177.809 9.13334C179.507 9.17004 181.204 9.14617 182.902 9.14617H183.452V9.69667C183.452 17.5382 183.452 25.3785 183.452 33.2176C183.452 33.6213 183.371 33.7791 182.929 33.7681C181.755 33.735 180.58 33.757 179.342 33.757V15.0402L179.237 15.0181C179.18 15.112 179.13 15.2101 179.088 15.3117C177.055 21.2192 175.023 27.126 172.993 33.0322C172.693 33.9002 172.916 33.7442 171.994 33.7662C171.26 33.7662 170.526 33.7552 169.792 33.7662C169.674 33.7856 169.552 33.7582 169.454 33.6897C169.355 33.6212 169.287 33.517 169.264 33.3992C167.666 28.7224 166.062 24.0475 164.453 19.3744L163.12 15.4989C163.065 15.3429 162.999 15.1906 162.937 15.0365L162.819 15.0603Z" fill="black"/>
<path d="M79.6594 16.0049C78.3199 16.1132 77.0262 16.2251 75.7326 16.3077C75.6262 16.3077 75.439 16.1242 75.4023 16.0067C75.083 14.8947 74.5582 13.9185 73.6278 13.1919C72.8486 12.5912 71.918 12.2183 70.9396 12.1147C69.5377 11.9459 68.1541 12.0065 66.8806 12.7038C65.6071 13.401 64.9832 14.4323 65.1117 15.893C65.133 16.2594 65.2447 16.615 65.4368 16.9278C65.6289 17.2406 65.8954 17.501 66.2127 17.6857C67.154 18.2619 68.211 18.5041 69.2679 18.7519C71.6314 19.3024 74.015 19.7776 76.2922 20.6529C78.7952 21.6163 80.1255 23.4384 80.2705 26.0955C80.4815 29.9141 78.8264 32.3657 75.1215 33.5107C71.7176 34.564 68.2935 34.5218 64.9942 33.074C62.183 31.8408 60.5811 29.6022 60.0012 26.6166C59.9737 26.4717 59.9664 26.3212 59.9443 26.1193L64.152 25.6789C64.2492 26.1193 64.319 26.5065 64.4217 26.8864C64.8493 28.4443 65.809 29.5636 67.3137 30.1526C69.5377 31.0206 71.7892 31.1344 73.9857 30.0793C75.5491 29.3288 76.1785 27.9745 75.8555 26.301C75.6518 25.2386 74.9509 24.5541 73.9783 24.2312C72.5305 23.7522 71.0424 23.3889 69.5744 22.965C67.8898 22.4787 66.1686 22.0842 64.5336 21.4621C61.8252 20.4327 60.5077 18.1115 60.7462 15.236C60.9481 12.8084 62.1959 11.0578 64.3024 9.99531C67.7577 8.25574 71.347 8.16031 74.8866 9.71455C77.4887 10.8541 78.8961 13.0487 79.6191 15.7223C79.6392 15.8154 79.6527 15.9099 79.6594 16.0049Z" fill="black"/>
<path d="M151.523 17.9484V9.14047H153.292C153.889 9.14047 154.485 9.16249 155.08 9.14047C155.46 9.12212 155.544 9.26527 155.538 9.61391C155.52 10.7259 155.538 11.8397 155.538 12.9517V33.8064H151.714V31.4778C151.622 31.5431 151.536 31.6168 151.457 31.698C150.356 33.3183 148.742 34.0101 146.87 34.1844C141.864 34.6487 138.901 31.2099 138.165 27.3638C137.614 24.4369 137.833 21.5799 139.449 18.9779C141.934 14.9629 146.696 14.7115 149.501 16.2034C150.131 16.5392 150.635 17.1062 151.193 17.5723C151.31 17.6912 151.421 17.8168 151.523 17.9484ZM141.943 24.8131C141.996 25.404 142.02 26.0004 142.112 26.5857C142.187 27.0365 142.304 27.4794 142.46 27.9087C143.139 29.8355 144.628 30.9805 146.53 31.0704C148.681 31.1713 150.265 30.3016 151.081 28.3638C152.092 25.9673 152.092 23.5103 151.01 21.1321C150.204 19.3669 148.731 18.5173 146.789 18.5521C144.848 18.587 143.486 19.5229 142.668 21.2496C142.125 22.3726 141.965 23.5782 141.943 24.8131Z" fill="black"/>
<path d="M99.8496 24.8298C99.8165 26.6904 99.4826 28.4704 98.5486 30.1017C97.2641 32.3551 95.286 33.6505 92.7482 34.0726C90.9462 34.3735 89.1479 34.291 87.4157 33.6414C84.8981 32.7 83.2613 30.8889 82.4741 28.3603C81.7036 25.9737 81.7345 23.4006 82.5621 21.0332C83.7622 17.5926 86.289 15.7851 89.8764 15.4309C91.86 15.2346 93.7886 15.5007 95.5502 16.5063C98.0036 17.9082 99.2202 20.1267 99.6679 22.8296C99.7762 23.4884 99.7909 24.1618 99.8496 24.8298ZM95.7814 24.8188C95.7355 24.2683 95.7135 23.7178 95.6346 23.1838C95.5678 22.7321 95.4647 22.2866 95.3263 21.8516C94.7079 19.9046 93.1941 18.644 91.3774 18.5486C89.1571 18.4183 87.524 19.3083 86.7037 21.2735C85.7055 23.6884 85.7018 26.162 86.7826 28.5566C87.5405 30.2338 88.9351 31.0595 90.7994 31.0907C92.6638 31.1219 94.0657 30.3329 94.9465 28.6814C95.5887 27.4777 95.7557 26.162 95.7814 24.8188Z" fill="black"/>
<path d="M197.771 33.7987H193.774V15.8158H197.558V18.1187L197.675 18.1627C197.765 18.0581 197.859 17.9572 197.945 17.8471C200.29 14.7148 205.189 14.8029 207.56 16.7351C208.865 17.7976 209.492 19.1757 209.665 20.8014C209.711 21.2563 209.733 21.7132 209.731 22.1703C209.731 25.8758 209.731 29.58 209.731 33.283V33.7895H205.725V33.239C205.725 29.8235 205.725 26.4092 205.725 22.9961C205.725 22.1373 205.65 21.2914 205.299 20.4895C205.171 20.1697 204.979 19.8787 204.737 19.6336C204.494 19.3885 204.205 19.1942 203.887 19.0619C201.648 18.1334 198.956 18.8325 198.048 21.9465C197.866 22.6231 197.775 23.3212 197.78 24.0219C197.752 27.0845 197.769 30.1489 197.767 33.2133L197.771 33.7987Z" fill="black"/>
<path d="M119.94 15.8179H123.722V18.119L123.823 18.1685C123.924 18.0548 124.034 17.9483 124.124 17.8272C126.438 14.7334 131.478 14.7408 133.919 16.9097C134.522 17.4317 135.006 18.0772 135.337 18.8026C135.669 19.528 135.84 20.3162 135.84 21.1137C135.906 25.2901 135.871 29.4666 135.875 33.6412C135.867 33.6929 135.853 33.7435 135.833 33.7916H131.899V33.2411C131.899 29.8739 131.919 26.5049 131.884 23.1377C131.866 22.3318 131.752 21.531 131.544 20.7522C131.3 19.8017 130.609 19.2035 129.671 18.9172C126.928 18.0493 124.415 19.7301 124.032 22.6973C123.967 23.211 123.935 23.7283 123.935 24.246C123.935 27.2315 123.935 30.2189 123.935 33.2063V33.7843H119.94V15.8179Z" fill="black"/>
<path d="M117.426 33.8008H113.656V31.5145L113.537 31.4741C113.455 31.5658 113.365 31.6576 113.289 31.7475C112.08 33.3054 110.473 34.0834 108.518 34.2046C107.28 34.2798 106.074 34.1642 104.933 33.643C102.522 32.542 101.514 30.5566 101.492 28.0225C101.459 24.0901 101.481 20.1559 101.481 16.2235C101.481 16.1042 101.498 15.985 101.509 15.8327H105.52V16.3611C105.52 19.7326 105.52 23.1023 105.52 26.4701C105.522 26.9572 105.553 27.4437 105.614 27.927C105.905 30.2391 107.496 31.1236 109.596 30.9309C111.535 30.7474 112.954 29.3033 113.31 27.2609C113.415 26.6303 113.468 25.992 113.467 25.3526C113.483 22.3493 113.483 19.346 113.467 16.3428C113.467 15.9446 113.546 15.7813 113.992 15.7923C115.121 15.8271 116.251 15.8033 117.426 15.8033V33.8008Z" fill="black"/>
<path d="M213.689 18.6548C212.823 18.6548 212.142 18.6548 211.239 18.6548C210.872 18.6658 210.729 18.5631 210.744 18.1722C210.771 17.3997 210.744 16.6253 210.744 15.7867H213.68V10.7791H217.678V15.7831H218.909C219.658 15.7831 220.407 15.7959 221.155 15.7831C221.466 15.7831 221.592 15.862 221.583 16.1904C221.562 16.8767 221.562 17.5624 221.583 18.2474C221.583 18.5722 221.475 18.6677 221.161 18.6622C220.183 18.6456 219.205 18.6622 218.225 18.6622H217.674V19.1668C217.674 22.3205 217.674 25.4749 217.674 28.6298C217.674 30.1639 218.025 30.5162 219.555 30.5437C220.135 30.5437 220.713 30.5437 221.328 30.5437V33.8687C220.117 33.8687 218.915 33.8815 217.715 33.8687C217.303 33.8504 216.893 33.8039 216.487 33.7292C214.816 33.4632 213.918 32.5383 213.735 30.8483C213.69 30.3934 213.67 29.9365 213.674 29.4794C213.674 26.081 213.674 22.6826 213.674 19.2842L213.689 18.6548Z" fill="black"/>
<path d="M186.972 15.7886C188.245 15.7886 189.465 15.7886 190.688 15.8014C190.779 15.8014 190.871 15.917 190.935 16.0216C190.96 16.1092 190.969 16.2006 190.961 16.2914V33.7806H186.972V15.7886Z" fill="black"/>
<path d="M186.96 13.0616V9.13843H187.918C188.803 9.13843 189.689 9.13843 190.574 9.13843C190.876 9.13843 190.97 9.2375 190.966 9.53293C190.952 10.5825 190.966 11.6322 190.95 12.6818C190.95 12.8121 190.796 13.0488 190.709 13.0488C189.476 13.069 188.241 13.0616 186.96 13.0616Z" fill="black"/>
<g clip-path="url(#clip0_882_1141)">
<path d="M0.501215 48.1201H0.69109C0.779782 48.1201 0.851485 48.0574 0.851485 47.9799V15.9005C0.851485 15.8229 0.779782 15.7603 0.69109 15.7603H0.501215C0.412523 15.7603 0.34082 15.8229 0.34082 15.9005V47.9799C0.34082 48.0574 0.412523 48.1201 0.501215 48.1201Z" fill="black"/>
<path d="M0.78857 45.9061H0.915154C0.974282 45.9061 1.02208 45.8427 1.02208 45.7643V13.3473C1.02208 13.2689 0.974282 13.2056 0.915154 13.2056H0.78857C0.729443 13.2056 0.681641 13.2689 0.681641 13.3473V45.7643C0.681641 45.8427 0.729443 45.9061 0.78857 45.9061Z" fill="black"/>
<path d="M3.40772 13.1404H3.25434C3.1673 13.1404 3.09668 13.2093 3.09668 13.2942V47.9662C3.09668 48.0511 3.1673 48.12 3.25434 48.12H3.42508C3.51211 48.12 3.58273 48.0511 3.58273 47.9662V45.8704C3.58273 45.7855 3.65336 45.7166 3.74039 45.7166H3.89377C3.9808 45.7166 4.05143 45.6477 4.05143 45.5628V11.0481C4.05143 10.9632 3.9808 10.8943 3.89377 10.8943H3.72303C3.636 10.8943 3.56538 10.9632 3.56538 11.0481V12.9866C3.56538 13.0715 3.49475 13.1404 3.40772 13.1404Z" fill="black"/>
<path d="M43.3681 3.39137H43.5225C43.6092 3.39137 43.6799 3.32269 43.6796 3.23778V1.29861C43.6796 1.2137 43.75 1.14502 43.8368 1.14502H44.0083C44.0951 1.14502 44.1655 1.21393 44.1655 1.29861V35.8142C44.1655 35.8989 44.0951 35.9676 44.0083 35.9676H43.8539H43.5396H43.3681C43.2813 35.9676 43.2109 35.8989 43.2109 35.8142V3.54473C43.2109 3.46004 43.2813 3.39137 43.3681 3.39137Z" fill="black"/>
<path d="M43.5225 3.39137H43.3681C43.2813 3.39137 43.2109 3.46004 43.2109 3.54473V38.2174C43.2109 38.3021 43.2813 38.3708 43.3681 38.3708H43.5396C43.6264 38.3708 43.6968 38.3021 43.6968 38.2174V36.1209C43.6968 36.0363 43.7671 35.9676 43.8539 35.9676H44.0083C44.0951 35.9676 44.1655 35.8989 44.1655 35.8142V1.29861C44.1655 1.21393 44.0951 1.14502 44.0083 1.14502H43.8368C43.75 1.14502 43.6796 1.2137 43.6796 1.29861V3.23777C43.6799 3.32269 43.6092 3.39137 43.5225 3.39137Z" fill="black"/>
<path d="M46.2705 3.36556H46.4081C46.4855 3.36556 46.5485 3.29671 46.5483 3.21157V1.26728C46.5483 1.18214 46.6111 1.11328 46.6884 1.11328H46.8413C46.9187 1.11328 46.9815 1.18237 46.9815 1.26728V35.8741C46.9815 35.959 46.9187 36.0279 46.8413 36.0279H46.7037H46.4234H46.2705C46.1931 36.0279 46.1304 35.959 46.1304 35.8741V3.51933C46.1304 3.43442 46.1931 3.36556 46.2705 3.36556Z" fill="black"/>
<path d="M6.72629 10.8944H6.55555C6.46852 10.8944 6.3979 10.9633 6.3979 11.0482V12.9867C6.3979 13.0716 6.32727 13.1405 6.24024 13.1405H6.08686C5.99982 13.1405 5.9292 13.2094 5.9292 13.2944V47.9664C5.9292 48.0513 5.99982 48.1202 6.08686 48.1202H6.2576C6.34463 48.1202 6.41525 48.0513 6.41525 47.9664V45.8706C6.41525 45.7857 6.48588 45.7168 6.57291 45.7168H6.72629C6.81332 45.7168 6.88395 45.6478 6.88395 45.5629V43.3672C6.88395 43.2822 6.95458 43.2133 7.04161 43.2133H7.21235C7.29938 43.2133 7.37001 43.1444 7.37001 43.0595V8.65944C7.37001 8.57452 7.29938 8.50562 7.21235 8.50562H7.04161C6.95458 8.50562 6.88395 8.57452 6.88395 8.65944V10.7404C6.88419 10.8255 6.81356 10.8944 6.72629 10.8944Z" fill="black"/>
<path d="M40.7148 3.52871H40.5455C40.458 3.52871 40.3872 3.59785 40.3872 3.68323V5.6203C40.3872 5.70568 40.3163 5.77482 40.2288 5.77482H40.0768C39.9893 5.77482 39.9185 5.84396 39.9185 5.92934V40.5999C39.9185 40.6853 39.9893 40.7545 40.0768 40.7545H40.2461C40.3336 40.7545 40.4045 40.6853 40.4045 40.5999V38.5056C40.4045 38.4202 40.4754 38.351 40.5629 38.351H40.7148C40.8023 38.351 40.8732 38.2819 40.8732 38.1965V36.0019C40.8732 35.9165 40.9441 35.8474 41.0316 35.8474H41.2009C41.2884 35.8474 41.3593 35.7782 41.3593 35.6929V1.29466C41.3593 1.20928 41.2884 1.14014 41.2009 1.14014H41.0316C40.9441 1.14014 40.8732 1.20928 40.8732 1.29466V3.37419C40.8732 3.45957 40.8023 3.52871 40.7148 3.52871Z" fill="black"/>
<path d="M10.144 8.54273H9.97325C9.88622 8.54273 9.81559 8.61164 9.81559 8.69656V10.7775C9.81559 10.8624 9.74496 10.9313 9.65793 10.9313H9.48719C9.40016 10.9313 9.32954 11.0002 9.32954 11.0851V13.0236C9.32954 13.1085 9.25891 13.1774 9.17188 13.1774H9.0185C8.93147 13.1774 8.86084 13.2463 8.86084 13.3312V48.0032C8.86084 48.0882 8.93147 48.1571 9.0185 48.1571H9.18924C9.27627 48.1571 9.34689 48.0882 9.34689 48.0032V45.9075C9.34689 45.8225 9.41752 45.7536 9.50455 45.7536H9.65793C9.74496 45.7536 9.81559 45.6847 9.81559 45.5998V43.404C9.81559 43.3191 9.88622 43.2502 9.97325 43.2502H10.144C10.231 43.2502 10.3016 43.1813 10.3016 43.0964V41.1422C10.3016 41.0572 10.3723 40.9883 10.4593 40.9883H10.63C10.7171 40.9883 10.7877 40.9194 10.7877 40.8345V6.20729C10.7877 6.12237 10.7171 6.05347 10.63 6.05347H10.4593C10.3723 6.05347 10.3016 6.12237 10.3016 6.20729V8.38891C10.3016 8.47382 10.231 8.54273 10.144 8.54273Z" fill="black"/>
<path d="M37.7102 3.60255H37.5409C37.4533 3.60255 37.3825 3.67169 37.3825 3.75707V5.8366C37.3825 5.92198 37.3116 5.99112 37.2241 5.99112H37.0548C36.9673 5.99112 36.8964 6.06026 36.8964 6.14564V8.08271C36.8964 8.16809 36.8256 8.23723 36.7381 8.23723H36.5861C36.4986 8.23723 36.4277 8.30637 36.4277 8.39175V43.0624C36.4277 43.1477 36.4986 43.2169 36.5861 43.2169H36.7554C36.8429 43.2169 36.9138 43.1477 36.9138 43.0624V40.968C36.9138 40.8826 36.9847 40.8135 37.0722 40.8135H37.2241C37.3116 40.8135 37.3825 40.7443 37.3825 40.6589V38.4643C37.3825 38.3789 37.4533 38.3098 37.5409 38.3098H37.7102C37.7977 38.3098 37.8685 38.2407 37.8685 38.1553V36.2024C37.8685 36.1171 37.9394 36.0479 38.0269 36.0479H38.1962C38.2837 36.0479 38.3546 35.9788 38.3546 35.8934V1.2678C38.3546 1.18242 38.2837 1.11328 38.1962 1.11328H38.0269C37.9394 1.11328 37.8685 1.18242 37.8685 1.2678V3.44803C37.8688 3.53341 37.7977 3.60255 37.7102 3.60255Z" fill="black"/>
<path d="M13.6852 6.05354H13.5145C13.4274 6.05354 13.3568 6.12244 13.3568 6.20736V8.38898C13.3568 8.47389 13.2862 8.5428 13.1992 8.5428H13.0284C12.9414 8.5428 12.8708 8.61171 12.8708 8.69663V10.7775C12.8708 10.8625 12.8001 10.9314 12.7131 10.9314H12.5424C12.4553 10.9314 12.3847 11.0003 12.3847 11.0852V13.0237C12.3847 13.1086 12.3141 13.1775 12.2271 13.1775H12.0737C11.9866 13.1775 11.916 13.2464 11.916 13.3313V48.0033C11.916 48.0882 11.9866 48.1571 12.0737 48.1571H12.2444C12.3314 48.1571 12.4021 48.0882 12.4021 48.0033V45.9075C12.4021 45.8226 12.4727 45.7537 12.5597 45.7537H12.7131C12.8001 45.7537 12.8708 45.6848 12.8708 45.5999V43.4041C12.8708 43.3192 12.9414 43.2503 13.0284 43.2503H13.1992C13.2862 43.2503 13.3568 43.1814 13.3568 43.0965V41.1422C13.3568 41.0573 13.4274 40.9884 13.5145 40.9884H13.6852C13.7723 40.9884 13.8429 40.9195 13.8429 40.8346V38.6195C13.8429 38.5346 13.9135 38.4657 14.0005 38.4657H14.1713C14.2583 38.4657 14.3289 38.3968 14.3289 38.3119V3.82204C14.3289 3.73712 14.2583 3.66821 14.1713 3.66821H14.0005C13.9135 3.66821 13.8429 3.73712 13.8429 3.82204V5.89971C13.8429 5.98463 13.7723 6.05354 13.6852 6.05354Z" fill="black"/>
<path d="M34.622 3.49781H34.4689C34.3898 3.49781 34.3258 3.56692 34.3258 3.65228V5.83177C34.3258 5.91712 34.2617 5.98624 34.1826 5.98624H34.0296C33.9505 5.98624 33.8864 6.05536 33.8864 6.14071V8.21954C33.8864 8.30489 33.8224 8.37401 33.7433 8.37401H33.5902C33.5111 8.37401 33.4471 8.44313 33.4471 8.52848V10.4649C33.4471 10.5503 33.383 10.6194 33.3039 10.6194H33.1666C33.0875 10.6194 33.0234 10.6885 33.0234 10.7738V45.4331C33.0234 45.5184 33.0875 45.5875 33.1666 45.5875H33.3196C33.3987 45.5875 33.4628 45.5184 33.4628 45.4331V43.3394C33.4628 43.254 33.5268 43.1849 33.6059 43.1849H33.7433C33.8224 43.1849 33.8864 43.1158 33.8864 43.0304V40.8366C33.8864 40.7512 33.9505 40.6821 34.0296 40.6821H34.1826C34.2617 40.6821 34.3258 40.613 34.3258 40.5276V38.5754C34.3258 38.4901 34.3898 38.421 34.4689 38.421H34.622C34.7011 38.421 34.7651 38.3519 34.7651 38.2665V36.0536C34.7651 35.9683 34.8292 35.8991 34.9083 35.8991H35.0613C35.1404 35.8991 35.2044 35.83 35.2044 35.7447V1.26775C35.2044 1.1824 35.1404 1.11328 35.0613 1.11328H34.9083C34.8292 1.11328 34.7651 1.1824 34.7651 1.26775V3.34334C34.7651 3.42869 34.7011 3.49781 34.622 3.49781Z" fill="black"/>
<path d="M17.3515 3.60052H17.2471C17.1688 3.60052 17.1053 3.66831 17.1053 3.75189V5.83631C17.1053 5.91989 17.0418 5.98769 16.9635 5.98769H16.8398C16.7615 5.98769 16.698 6.05548 16.698 6.13906V8.32726C16.698 8.41084 16.6345 8.47863 16.5562 8.47863H16.4324C16.3541 8.47863 16.2906 8.54643 16.2906 8.63001V10.7177C16.2906 10.8013 16.2271 10.8691 16.1488 10.8691H16.025C15.9468 10.8691 15.8832 10.9368 15.8832 11.0204V12.9655C15.8832 13.0491 15.8197 13.1169 15.7414 13.1169H15.632C15.5537 13.1169 15.4902 13.1847 15.4902 13.2683V47.9689C15.4902 48.0524 15.5537 48.1202 15.632 48.1202H15.7558C15.8341 48.1202 15.8976 48.0524 15.8976 47.9689V45.8663C15.8976 45.7827 15.9611 45.715 16.0394 45.715H16.1488C16.2271 45.715 16.2906 45.6472 16.2906 45.5636V43.361C16.2906 43.2774 16.3541 43.2096 16.4324 43.2096H16.5562C16.6345 43.2096 16.698 43.1418 16.698 43.0582V41.0973C16.698 41.0137 16.7615 40.946 16.8398 40.946H16.9635C17.0418 40.946 17.1053 40.8782 17.1053 40.7946V38.5727C17.1053 38.4891 17.1688 38.4213 17.2471 38.4213H17.3709C17.4492 38.4213 17.5127 38.3535 17.5127 38.27V35.9831C17.5127 35.8995 17.5762 35.8317 17.6545 35.8317H17.7372C17.8154 35.8317 17.879 35.7639 17.879 35.6803V1.26466C17.879 1.18107 17.8154 1.11328 17.7372 1.11328H17.6351C17.5568 1.11328 17.4933 1.18107 17.4933 1.26466V3.44914C17.4933 3.53272 17.4298 3.60052 17.3515 3.60052Z" fill="black"/>
<path d="M20.9099 3.60052H20.8065C20.7289 3.60052 20.666 3.66831 20.666 3.75189V5.83631C20.666 5.91989 20.603 5.98769 20.5254 5.98769H20.4028C20.3252 5.98769 20.2623 6.05548 20.2623 6.13906V8.32726C20.2623 8.41084 20.1993 8.47863 20.1217 8.47863H19.9991C19.9215 8.47863 19.8586 8.54643 19.8586 8.63001V10.7177C19.8586 10.8013 19.7956 10.8691 19.7181 10.8691H19.5954C19.5178 10.8691 19.4549 10.9368 19.4549 11.0204V12.9655C19.4549 13.0491 19.392 13.1169 19.3144 13.1169H19.206C19.1284 13.1169 19.0654 13.1847 19.0654 13.2683V47.9689C19.0654 48.0524 19.1284 48.1202 19.206 48.1202H19.3286C19.4062 48.1202 19.4691 48.0524 19.4691 47.9689V45.8663C19.4691 45.7827 19.5321 45.715 19.6096 45.715H19.7181C19.7956 45.715 19.8586 45.6472 19.8586 45.5636V43.361C19.8586 43.2774 19.9215 43.2096 19.9991 43.2096H20.1217C20.1993 43.2096 20.2623 43.1418 20.2623 43.0582V41.0973C20.2623 41.0137 20.3252 40.946 20.4028 40.946H20.5254C20.603 40.946 20.666 40.8782 20.666 40.7946V38.5727C20.666 38.4891 20.7289 38.4213 20.8065 38.4213H20.9291C21.0067 38.4213 21.0696 38.3535 21.0696 38.27V35.9831C21.0696 35.8995 21.1326 35.8317 21.2102 35.8317H21.3136C21.3912 35.8317 21.4542 35.7639 21.4542 35.6803V1.26466C21.4542 1.18107 21.3912 1.11328 21.3136 1.11328H21.191C21.1134 1.11328 21.0505 1.18107 21.0505 1.26466V3.44914C21.0505 3.53272 20.9875 3.60052 20.9099 3.60052Z" fill="black"/>
<path d="M24.3154 3.60052H24.2389C24.1634 3.60052 24.1021 3.66831 24.1021 3.75189V5.83631C24.1021 5.91989 24.0409 5.98769 23.9654 5.98769H23.8701C23.7946 5.98769 23.7334 6.05548 23.7334 6.13906V8.32726C23.7334 8.41084 23.6721 8.47863 23.5966 8.47863H23.5014C23.4259 8.47863 23.3646 8.54643 23.3646 8.63001V10.7177C23.3646 10.8013 23.3034 10.8691 23.2279 10.8691H23.1326C23.0571 10.8691 22.9959 10.9368 22.9959 11.0204V12.9655C22.9959 13.0491 22.9346 13.1169 22.8591 13.1169H22.7769C22.7014 13.1169 22.6401 13.1847 22.6401 13.2683V47.9689C22.6401 48.0524 22.7014 48.1202 22.7769 48.1202H22.8721C22.9476 48.1202 23.0089 48.0524 23.0089 47.9689V45.8663C23.0089 45.7827 23.0701 45.715 23.1456 45.715H23.2279C23.3034 45.715 23.3646 45.6472 23.3646 45.5636V43.361C23.3646 43.2774 23.4259 43.2096 23.5014 43.2096H23.5966C23.6721 43.2096 23.7334 43.1418 23.7334 43.0582V41.0973C23.7334 41.0137 23.7946 40.946 23.8701 40.946H23.9656C24.0411 40.946 24.1023 40.8782 24.1023 40.7946V38.5727C24.1023 38.4891 24.1636 38.4213 24.2391 38.4213H24.3343C24.4098 38.4213 24.4711 38.3535 24.4711 38.27V35.9831C24.4711 35.8995 24.5323 35.8317 24.6078 35.8317H24.6844C24.7599 35.8317 24.8211 35.7639 24.8211 35.6803V1.26466C24.8211 1.18107 24.7599 1.11328 24.6844 1.11328H24.5892C24.5137 1.11328 24.4524 1.18107 24.4524 1.26466V3.44914C24.4522 3.53272 24.3909 3.60052 24.3154 3.60052Z" fill="black"/>
<path d="M27.7965 3.60055H27.7226C27.6418 3.60055 27.5763 3.66974 27.5763 3.75518V5.8329C27.5763 5.91834 27.5108 5.98753 27.4299 5.98753H27.3362C27.2553 5.98753 27.1898 6.05671 27.1898 6.14215V8.32388C27.1898 8.40932 27.1243 8.47851 27.0434 8.47851H26.9498C26.8689 8.47851 26.8034 8.5477 26.8034 8.63314V10.7141C26.8034 10.7995 26.7379 10.8687 26.657 10.8687H26.5634C26.4825 10.8687 26.417 10.9379 26.417 11.0234V12.9618C26.417 13.0472 26.3515 13.1164 26.2706 13.1164H26.1908C26.1099 13.1164 26.0444 13.1856 26.0444 13.271V47.9656C26.0444 48.051 26.1099 48.1202 26.1908 48.1202H26.2845C26.3653 48.1202 26.4308 48.051 26.4308 47.9656V45.8698C26.4308 45.7843 26.4964 45.7151 26.5772 45.7151H26.657C26.7379 45.7151 26.8034 45.646 26.8034 45.5605V43.3644C26.8034 43.279 26.8689 43.2098 26.9498 43.2098H27.0434C27.1243 43.2098 27.1898 43.1406 27.1898 43.0551V41.1009C27.1898 41.0155 27.2553 40.9463 27.3362 40.9463H27.4299C27.5108 40.9463 27.5763 40.8771 27.5763 40.7917V38.5765C27.5763 38.4911 27.6418 38.4219 27.7226 38.4219H27.8163C27.8972 38.4219 27.9627 38.3527 27.9627 38.2673V35.9869C27.9627 35.9014 28.0282 35.8322 28.1091 35.8322H28.1829C28.2638 35.8322 28.3293 35.763 28.3293 35.6776V1.26791C28.3293 1.18247 28.2638 1.11328 28.1829 1.11328H28.0893C28.0084 1.11328 27.9429 1.18247 27.9429 1.26791V3.44569C27.9429 3.53113 27.8774 3.60055 27.7965 3.60055Z" fill="black"/>
<path d="M31.2911 3.60055H31.2206C31.1434 3.60055 31.0808 3.66974 31.0808 3.75518V5.8329C31.0808 5.91834 31.0183 5.98753 30.9411 5.98753H30.8517C30.7745 5.98753 30.712 6.05671 30.712 6.14215V8.32388C30.712 8.40932 30.6495 8.47851 30.5723 8.47851H30.4829C30.4057 8.47851 30.3431 8.5477 30.3431 8.63314V10.7141C30.3431 10.7995 30.2806 10.8687 30.2034 10.8687H30.114C30.0368 10.8687 29.9743 10.9379 29.9743 11.0234V12.9618C29.9743 13.0472 29.9118 13.1164 29.8346 13.1164H29.7584C29.6812 13.1164 29.6187 13.1856 29.6187 13.271V47.9656C29.6187 48.051 29.6812 48.1202 29.7584 48.1202H29.8478C29.925 48.1202 29.9875 48.051 29.9875 47.9656V45.8698C29.9875 45.7843 30.05 45.7151 30.1272 45.7151H30.2034C30.2806 45.7151 30.3431 45.646 30.3431 45.5605V43.3644C30.3431 43.279 30.4057 43.2098 30.4829 43.2098H30.5723C30.6495 43.2098 30.712 43.1406 30.712 43.0551V41.1009C30.712 41.0155 30.7745 40.9463 30.8517 40.9463H30.9411C31.0183 40.9463 31.0808 40.8771 31.0808 40.7917V38.5765C31.0808 38.4911 31.1434 38.4219 31.2206 38.4219H31.31C31.3872 38.4219 31.4497 38.3527 31.4497 38.2673V35.9869C31.4497 35.9014 31.5122 35.8322 31.5894 35.8322H31.6599C31.7371 35.8322 31.7997 35.763 31.7997 35.6776V1.26791C31.7997 1.18247 31.7371 1.11328 31.6599 1.11328H31.5705C31.4933 1.11328 31.4308 1.18247 31.4308 1.26791V3.44569C31.4308 3.53113 31.3683 3.60055 31.2911 3.60055Z" fill="black"/>
</g>
<defs>
<clipPath id="clip0_882_1141">
<rect width="47.1513" height="48.1992" fill="white" transform="translate(0 0.601562)"/>
</clipPath>
</defs>
</svg>
