<svg width="35" height="36" viewBox="0 0 35 36" fill="none" xmlns="http://www.w3.org/2000/svg">
<circle cx="17.3593" cy="17.9531" r="17.3046" fill="#5FFECD"/>
<path fill-rule="evenodd" clip-rule="evenodd" d="M16.9139 7.72696C15.8508 7.81692 15.0055 7.98552 14.1533 8.27773C10.7706 9.43757 8.2186 12.3169 7.47342 15.8145C7.16274 17.2727 7.17935 18.8581 7.52061 20.321C8.37083 23.9653 11.2724 26.9357 14.8875 27.8624C15.8811 28.1171 16.4784 28.1913 17.5105 28.188C19.1679 28.1828 20.5074 27.8761 21.9486 27.1716C24.2762 26.034 26.0432 24.1406 27.0058 21.7527C27.1551 21.3825 27.4243 20.5293 27.469 20.2845C27.4836 20.205 27.347 20.1996 25.0506 20.189L22.6168 20.1778L22.4169 20.5468C21.2237 22.7505 18.8078 23.9031 16.4001 23.4172C13.2842 22.7883 11.3104 19.6625 12.0941 16.5981C12.3603 15.5572 12.8409 14.7344 13.629 13.9699C14.7001 12.9312 15.9795 12.4134 17.4866 12.4087C19.1323 12.4036 20.5984 13.0703 21.695 14.3224C21.9606 14.6258 22.3007 15.1214 22.4301 15.3937L22.5151 15.5726H24.9561C26.2985 15.5726 27.4087 15.5609 27.4229 15.5466C27.4551 15.5144 27.2379 14.7647 27.057 14.284C26.983 14.0872 26.7965 13.6771 26.6425 13.3726C25.1123 10.3458 22.2412 8.28221 18.9183 7.82074C18.3938 7.74791 17.2816 7.69585 16.9139 7.72696Z" fill="black"/>
</svg>
