<svg width="38" height="27" viewBox="0 0 38 27" fill="none" xmlns="http://www.w3.org/2000/svg">
<path fill-rule="evenodd" clip-rule="evenodd" d="M13.9567 0.0324704C11.5965 0.292274 8.82768 1.37648 6.49223 2.95542C6.23752 3.1276 6.00035 3.2914 5.96518 3.31936C5.73048 3.50592 4.83844 5.18153 4.26654 6.50984C2.44266 10.7463 1.29993 15.7137 0.884567 21.2114C0.840255 21.7979 0.840461 21.9341 0.885803 22.0083C0.998024 22.1918 2.04739 23.2007 2.53491 23.5937C4.17709 24.9174 6.03659 25.8466 8.27357 26.4616C9.29012 26.741 10.64 26.9675 11.4212 26.9896L11.789 27L12.4584 26.1118C12.8266 25.6233 13.129 25.2136 13.1304 25.2014C13.1319 25.1891 12.8598 25.0711 12.5256 24.9391C10.8777 24.2881 9.39278 23.4253 8.00762 22.3139C7.51067 21.9152 6.317 20.7799 6.08272 20.4831C5.96947 20.3397 6.00809 20.3597 6.44557 20.6709C9.07803 22.5436 11.9021 23.6624 15.3285 24.1899C17.7796 24.5672 20.7747 24.574 23.2639 24.2078C26.4884 23.7335 29.2658 22.6874 31.7681 21.0047C32.0852 20.7915 32.4373 20.5474 32.5505 20.4623L32.7564 20.3076L32.6251 20.4757C32.3939 20.7715 31.2045 21.9055 30.6956 22.3154C29.3418 23.406 27.8258 24.2869 26.1879 24.9349C25.8594 25.0648 25.5846 25.1767 25.5771 25.1835C25.5696 25.1903 25.8673 25.6018 26.2386 26.0979L26.9137 27L27.2817 26.9896C28.0675 26.9674 29.411 26.7414 30.4458 26.4574C32.677 25.845 34.5161 24.9212 36.1996 23.5672C36.6565 23.1997 37.7128 22.1806 37.8207 22.0032C37.8781 21.9086 37.862 21.6062 37.7168 20.0598C37.246 15.043 36.1374 10.4633 34.4369 6.50984C33.9188 5.30526 33.0035 3.57281 32.7654 3.34597C32.7152 3.29805 32.4146 3.08588 32.0975 2.87445C29.7937 1.33835 27.0845 0.305865 24.6228 0.025778L24.3961 0L24.1986 0.398938C24.0899 0.61834 24.0089 0.805808 24.0186 0.815517C24.0283 0.825225 24.3118 0.905657 24.6488 0.994227C26.8574 1.57493 28.7428 2.49352 30.5233 3.85641C30.9959 4.21812 31.8778 4.96771 31.8562 4.98935C31.8476 4.99791 31.3981 4.78354 30.8571 4.51296C26.629 2.39801 23.3114 1.62459 18.8368 1.71076C14.6948 1.79058 11.7657 2.54214 7.76353 4.55204C7.26786 4.80098 6.8553 4.99762 6.84673 4.98906C6.82766 4.9699 7.44354 4.43542 8.02648 3.96522C9.20421 3.01532 10.4974 2.26334 11.8841 1.72208C12.571 1.45398 13.6146 1.11233 14.1838 0.969234C14.413 0.911647 14.6237 0.850135 14.652 0.832578C14.6903 0.808825 14.6529 0.698359 14.5062 0.401996C14.2918 -0.0309004 14.3256 -0.0081381 13.9567 0.0324704ZM14.6922 11.9665C16.349 12.5244 17.2331 14.5478 16.6258 16.3922C15.9408 18.4728 13.7105 19.2286 12.1375 17.9131C11.4307 17.3221 11.0118 16.4279 10.962 15.404C10.9355 14.8594 10.987 14.4463 11.1364 14.0059C11.4353 13.1242 11.9972 12.4589 12.7483 12.0973C13.3658 11.8 14.0592 11.7534 14.6922 11.9665ZM25.2977 11.8792C26.1237 12.0269 26.8927 12.6198 27.3233 13.4408C27.6534 14.0702 27.7777 14.6541 27.7412 15.404C27.679 16.6832 27.0111 17.7901 26.0025 18.2852C25.6085 18.4787 25.2877 18.5546 24.8494 18.5582C23.3397 18.5705 22.0953 17.3237 21.9077 15.6108C21.7138 13.84 22.7563 12.2234 24.3141 11.8794C24.6369 11.8081 24.8997 11.8081 25.2977 11.8792Z" fill="#00FFFF"/>
</svg>
