<svg width="59" height="66" viewBox="0 0 59 66" fill="none" xmlns="http://www.w3.org/2000/svg">
<g clip-path="url(#clip0_1187_6153)">
<path d="M18.6221 66L20.0606 59.5215L38.9841 59.5323L40.477 66H18.6221Z" fill="black"/>
<path d="M29.5751 0L16.4563 17.0237V56.1308H42.5433V17.0237L29.5751 0Z" fill="black"/>
<path d="M29.4993 27.7207C32.9146 27.7207 35.6832 24.9695 35.6832 21.5757C35.6832 18.1819 32.9146 15.4307 29.4993 15.4307C26.0841 15.4307 23.3154 18.1819 23.3154 21.5757C23.3154 24.9695 26.0841 27.7207 29.4993 27.7207Z" fill="white"/>
<path d="M13.0444 53.9741H0V38.2844L13.0444 30.9785V53.9741Z" fill="black"/>
<path d="M45.9558 53.973H59.0002V38.2815L45.9558 30.9756V53.973Z" fill="black"/>
</g>
<defs>
<clipPath id="clip0_1187_6153">
<rect width="59" height="66" fill="white"/>
</clipPath>
</defs>
</svg>
