<svg width="60" height="59" viewBox="0 0 60 59" fill="none" xmlns="http://www.w3.org/2000/svg">
<g clip-path="url(#clip0_1187_6139)">
<path d="M30.1599 0.0273438V7.64871C18.1255 7.64871 8.36921 17.405 8.36921 29.4394H0.759766V0.0273438H30.1599Z" fill="#131313"/>
<path d="M59.572 29.4275V58.8276H30.1599V51.2062C42.1943 51.2062 51.9506 41.4499 51.9506 29.4155H59.572V29.4275Z" fill="#131313"/>
<path d="M39.7726 30.1196C40.1499 24.8105 36.1519 20.2008 30.8428 19.8235C25.5337 19.4462 20.924 23.4442 20.5467 28.7533C20.1694 34.0623 24.1674 38.6721 29.4765 39.0494C34.7856 39.4267 39.3953 35.4287 39.7726 30.1196Z" fill="#131313"/>
<path d="M39.7726 30.1196C40.1499 24.8105 36.1519 20.2008 30.8428 19.8235C25.5337 19.4462 20.924 23.4442 20.5467 28.7533C20.1694 34.0623 24.1674 38.6721 29.4765 39.0494C34.7856 39.4267 39.3953 35.4287 39.7726 30.1196Z" fill="#131313"/>
</g>
<defs>
<clipPath id="clip0_1187_6139">
<rect width="58.8122" height="58.8122" fill="white" transform="translate(0.759766 0.0273438)"/>
</clipPath>
</defs>
</svg>
