<svg width="232" height="180" viewBox="0 0 232 180" fill="none" xmlns="http://www.w3.org/2000/svg">
<path d="M162.527 141.004C146.429 164.308 119.628 179.611 89.2456 179.611C40.0188 179.611 0.0976562 139.459 0.0976562 89.9489C0.0976562 40.4384 40.0188 0.287109 89.2456 0.287109C119.628 0.287109 146.429 15.5427 162.527 38.8941C140.892 45.6796 125.212 65.9892 125.212 89.9489C125.212 113.909 140.892 134.218 162.527 141.004Z" fill="#00FFFF"/>
<path d="M231.575 89.9501C231.575 119.479 207.753 143.438 178.393 143.438C172.857 143.438 167.552 142.596 162.527 141.005C172.531 126.498 178.393 108.903 178.393 89.9501C178.393 70.9976 172.531 53.3554 162.527 38.8953C167.552 37.3042 172.857 36.4619 178.393 36.4619C207.753 36.4619 231.575 60.4216 231.575 89.9501Z" fill="#FFAA00"/>
<path d="M178.394 89.9503C178.394 108.95 172.531 126.545 162.527 141.005C140.892 134.22 125.212 113.91 125.212 89.9503C125.212 65.9906 140.892 45.681 162.527 38.8955C172.531 53.3556 178.394 70.951 178.394 89.9503Z" fill="black"/>
</svg>
