<svg width="144" height="189" viewBox="0 0 144 189" fill="none" xmlns="http://www.w3.org/2000/svg">
<path d="M95.5589 122.677H5.52811C2.79415 122.677 0.591797 120.483 0.591797 117.759V4.91766C0.591797 2.19403 2.79415 0 5.52811 0H95.5209C98.2549 0 100.457 2.19403 100.457 4.91766V117.721C100.495 120.445 98.2929 122.677 95.5589 122.677Z" fill="#45FEC4"/>
<path d="M138.543 188.612H48.5506C45.8166 188.612 43.6143 186.418 43.6143 183.694V70.8903C43.6143 68.1667 45.8166 65.9727 48.5506 65.9727H138.543C141.277 65.9727 143.48 68.1667 143.48 70.8903V183.694C143.48 186.418 141.239 188.612 138.543 188.612Z" fill="#FDFF2D"/>
<path d="M95.5584 122.677H43.5752V70.8903C43.5752 68.1667 45.7776 65.9727 48.5115 65.9727H100.495V117.759C100.495 120.445 98.2923 122.677 95.5584 122.677Z" fill="black"/>
</svg>
