<svg width="159" height="189" viewBox="0 0 159 189" fill="none" xmlns="http://www.w3.org/2000/svg">
<path d="M56.3414 188.611H5.2901C2.82116 188.611 0.830078 186.623 0.830078 184.157V98.7206C0.830078 96.2546 2.82116 94.3057 5.2901 94.3057H53.2354V185.469C53.2354 187.219 54.6291 188.611 56.3414 188.611Z" fill="#00FFFF"/>
<path d="M158.006 6.28439V182.367C158.006 185.827 155.178 188.651 151.714 188.651H102.455C104.167 188.651 105.601 187.259 105.601 185.509V97.4478C105.601 95.7375 104.207 94.3056 102.455 94.3056H53.2351V6.28439C53.2351 2.824 56.0624 0 59.5269 0H151.754C155.179 0 158.006 2.824 158.006 6.28439Z" fill="#FFAA00"/>
<path d="M105.601 98.7206V184.157C105.601 186.623 103.61 188.611 101.181 188.611H59.4879C56.0234 188.611 53.196 185.787 53.196 182.327V97.4479C53.196 95.7375 54.5898 94.3057 56.342 94.3057H101.181C103.61 94.3057 105.601 96.2944 105.601 98.7206Z" fill="black"/>
</svg>
